<?xml version="1.0" standalone="no"?>
<!DOCTYPE svg PUBLIC "-//W3C//DTD SVG 1.1//EN" "http://www.w3.org/Graphics/SVG/1.1/DTD/svg11.dtd" >
<svg xmlns="http://www.w3.org/2000/svg">
<metadata>
This is a custom SVG webfont generated by Font Squirrel.
Copyright   : Copyright  2003 The Royal National Institute for the Blind All rights reserved
</metadata>
<defs>
<font id="webfontKI1gZ6Ul" horiz-adv-x="1333" >
<font-face units-per-em="2048" ascent="1638" descent="-410" />
<missing-glyph horiz-adv-x="598" />
<glyph unicode=" "  horiz-adv-x="598" />
<glyph unicode="&#x09;" horiz-adv-x="598" />
<glyph unicode="&#xa0;" horiz-adv-x="598" />
<glyph unicode="!" horiz-adv-x="690" d="M82 0l47 279h291l-49 -279h-289zM231 406l25 583l88 500h291l-88 -500l-182 -583h-134z" />
<glyph unicode="&#x22;" horiz-adv-x="917" d="M152 977l55 512h254l-127 -512h-182zM528 977l56 512h254l-127 -512h-183z" />
<glyph unicode="#" horiz-adv-x="1806" d="M12 391l101 193h297l168 325h-297l100 195h299l203 385h221l-203 -385h375l203 385h223l-203 -385h299l-102 -195h-297l-170 -325h303l-107 -193h-299l-202 -391h-224l205 391h-377l-202 -391h-224l205 391h-295zM631 584h375l170 325h-375z" />
<glyph unicode="$" horiz-adv-x="1239" d="M6 135l144 209q164 -127 325 -139l82 459q-164 53 -244 114q-119 94 -118 230q0 23 8 67q47 262 274 377q104 53 232 70l26 157h162l-29 -157q180 -14 363 -140l-144 -196q-125 92 -264 98l-69 -395q287 -92 348 -266q31 -94 10 -213q-37 -213 -260 -344 q-104 -61 -254 -84l-31 -166h-159l28 161q-237 25 -430 158zM487 1081q0 -100 119 -143l62 348q-151 -15 -179 -172q-2 -13 -2 -33zM639 215q160 39 188 193q4 25 4 36q0 109 -122 162z" />
<glyph unicode="%" horiz-adv-x="1798" d="M154 1104q43 240 231 354q86 53 186 53q207 0 267 -202q29 -98 8 -205q-43 -242 -230 -354q-88 -55 -188 -56q-207 0 -266 203q-26 94 -8 207zM223 0l1151 1489h225l-1150 -1489h-226zM348 995q0 -143 107 -143q141 0 184 252q10 51 10 106q0 145 -104 146 q-139 0 -187 -252q-10 -68 -10 -109zM977 385q43 244 229 356q86 53 189 54q207 0 266 -203q29 -96 6 -207q-43 -240 -227 -352q-89 -55 -191 -56q-206 0 -264 203q-28 99 -8 205zM1171 279q0 -145 107 -146q141 0 184 252q10 51 11 109q0 145 -107 145q-137 0 -184 -254 q-11 -51 -11 -106z" />
<glyph unicode="&#x26;" horiz-adv-x="1515" d="M109 389q37 205 204 336q76 61 164 100q-127 133 -125 287q0 31 6 62q35 201 254 292q94 41 213 41q283 0 351 -209q23 -72 4 -168h-265q2 12 3 33q0 117 -123 117q-59 0 -109 -37q-51 -39 -51 -98q0 -66 72 -160l366 -479q37 47 60 110q20 61 34 164h236 q-20 -248 -184 -469l237 -311h-352l-88 119q-207 -145 -475 -146q-317 0 -410 213q-40 97 -22 203zM387 375q0 -82 62 -131q61 -45 143 -45q143 0 285 102l-269 356q-193 -84 -217 -237q-4 -29 -4 -45z" />
<glyph unicode="'" horiz-adv-x="540" d="M152 977l55 512h254l-127 -512h-182z" />
<glyph unicode="(" horiz-adv-x="929" d="M127 307q0 467 362 938q123 160 261 297l139 -94q-256 -317 -381 -666q-92 -254 -92 -506q0 -322 151 -649l-172 -96q-143 193 -213 424q-55 176 -55 352z" />
<glyph unicode=")" horiz-adv-x="929" d="M41 -373q471 582 471 1161q0 338 -152 660l175 94q201 -287 251 -635q66 -473 -239 -938q-160 -246 -369 -438z" />
<glyph unicode="*" horiz-adv-x="884" d="M59 1192l82 143l238 -96l47 272h160l-49 -272l274 96l35 -143l-281 -92l121 -221l-139 -93l-125 230l-199 -230l-119 93l195 221z" />
<glyph unicode="+" d="M88 641l39 221h446l80 453h232l-80 -453h446l-39 -221h-446l-80 -451h-229l78 451h-447z" />
<glyph unicode="," horiz-adv-x="614" d="M23 -291l249 570h293l-325 -570h-217z" />
<glyph unicode="-" horiz-adv-x="839" d="M111 500l39 219h616l-39 -219h-616z" />
<glyph unicode="." horiz-adv-x="614" d="M164 0l49 279h289l-49 -279h-289z" />
<glyph unicode="/" horiz-adv-x="864" d="M0 0l883 1489h245l-880 -1489h-248z" />
<glyph unicode="0" d="M94 537q0 96 19 206q80 449 370 662q145 106 332 106q274 0 385 -235q63 -133 64 -318q0 -106 -21 -215q-55 -319 -229 -530q-197 -238 -469.5 -238t-382.5 238q-68 142 -68 324zM375 518q0 -330 207 -330q186 0 299 273q52 126 80 282q23 135 22 230q0 326 -207 325 q-186 0 -301 -272q-52 -123 -80 -283q-20 -121 -20 -225z" />
<glyph unicode="1" horiz-adv-x="874" d="M125 1040l41 236q209 41 389 213h233l-264 -1489h-260l205 1169q-170 -109 -344 -129z" />
<glyph unicode="2" horiz-adv-x="1107" d="M-8 0l37 207q479 358 663 557q154 166 174 289q6 31 6 57q0 176 -202 176q-154 0 -353 -170l-120 164q299 236 553 236q141 0 241 -64q113 -72 150 -199q23 -82 4 -194q-37 -217 -295 -471q-154 -154 -449 -369h586l-39 -219h-956z" />
<glyph unicode="3" horiz-adv-x="1114" d="M2 20l41 232q184 -63 309 -64q238 0 350 131q59 70 78 173q4 18 4 51q0 201 -350 196q-55 0 -133 -8l25 141l460 392h-573l41 225h905l-35 -199l-417 -358q158 -6 260 -92q111 -94 110 -248q0 -39 -10 -96q-47 -266 -272 -404q-199 -121 -473 -121q-173 0 -320 49z" />
<glyph unicode="4" horiz-adv-x="1282" d="M37 322l31 178l688 989h262l-641 -952h385l84 481h258l-84 -481h223l-39 -215h-223l-57 -322h-258l57 322h-686z" />
<glyph unicode="5" horiz-adv-x="1136" d="M0 20l41 234q156 -66 305 -66q158 0 266 72q117 80 142 229q6 25 6 48q0 203 -354 202q-104 0 -226 -20l135 770h832l-39 -225h-569l-58 -316q31 2 66 2q383 0 475 -215q27 -61 27 -145q0 -51 -9 -94q-47 -268 -258 -404q-188 -121 -473 -121q-168 0 -309 49z" />
<glyph unicode="6" horiz-adv-x="1243" d="M80 469q0 127 26 272q57 328 250 539q215 233 535 233q156 0 285 -55l-80 -186q-104 39 -207 39q-240 0 -373 -205q-61 -95 -92 -227q137 70 311 69q283 0 369 -205q27 -61 26 -145q0 -41 -10 -106q-55 -315 -319 -451q-127 -66 -277 -66q-444 0 -444 494zM362 457 q0 -268 199 -269q221 0 277 308q6 41 6 71q0 174 -191 174q-164 0 -272 -94q-19 -107 -19 -190z" />
<glyph unicode="7" horiz-adv-x="1159" d="M4 0l805 1266h-725l41 223h1030l-33 -186l-831 -1303h-287z" />
<glyph unicode="8" horiz-adv-x="1304" d="M45 334q0 43 8 78q37 223 332 391q-137 113 -137 270q0 35 6 72q39 231 297 323q117 43 264 43q283 0 385 -161q37 -59 37 -138q0 -33 -6 -69q-35 -199 -277 -342q229 -117 230 -320q0 -33 -6 -69q-49 -270 -349 -381q-135 -51 -297 -51q-227 0 -364 106 q-123 94 -123 248zM328 354q0 -174 247 -174q113 0 193 47q92 53 111 156q4 20 4 27q2 82 -72 150.5t-223 127.5q-227 -119 -254 -278q-6 -29 -6 -56zM518 1106q0 -156 227 -219q180 106 205 246q4 29 4 41q0 154 -192 153q-127 0 -195 -82q-49 -57 -49 -139z" />
<glyph unicode="9" horiz-adv-x="1243" d="M53 43l78 186q135 -53 252 -53q344 0 461 432q-127 -68 -312 -67q-215 0 -319 123q-78 90 -78 227q0 43 10 104q41 227 201 371q166 147 395 147q446 0 447 -495q0 -106 -27 -270q-55 -311 -235 -525q-209 -244 -551 -243q-164 0 -322 63zM424 922q0 -174 178 -174 q157 0 283 92q18 106 18 192q0 266 -198 266q-221 0 -275 -299q-6 -42 -6 -77z" />
<glyph unicode=":" horiz-adv-x="614" d="M63 0l50 279h288l-49 -279h-289zM207 815l49 279h289l-49 -279h-289z" />
<glyph unicode=";" horiz-adv-x="614" d="M-39 -291l252 570h295l-330 -570h-217zM307 815l49 279h289l-49 -279h-289z" />
<glyph unicode="&#x3c;" d="M31 674l26 157l1264 515l-41 -236l-911 -358l784 -357l-41 -235z" />
<glyph unicode="=" d="M51 428l39 219h1124l-38 -219h-1125zM127 858l39 217h1124l-39 -217h-1124z" />
<glyph unicode="&#x3e;" d="M29 160l43 235l909 357l-784 358l41 236l1083 -515l-29 -157z" />
<glyph unicode="?" horiz-adv-x="1054" d="M88 1204q127 197 330 269q90 33 190 32q266 0 359 -168q31 -59 30 -133q0 -35 -6 -71q-14 -88 -90 -179q-45 -55 -151 -145q-66 -57 -154 -145q-51 -66 -82 -238h-268q28 141 43 184q31 94 96 168q74 78 199 178q119 98 131 168t-37 113q-45 39 -117 39q-162 0 -289 -182 zM166 0l49 279h279l-50 -279h-278z" />
<glyph unicode="@" horiz-adv-x="2002" d="M137 469q0 78 17 176q66 373 362 625q295 250 676 250q340 0 539 -197q166 -160 165 -399q0 -76 -14 -146q-55 -317 -276 -481q-193 -143 -416 -143q-59 0 -98 34q-37 33 -31 93q-121 -127 -270 -127q-199 0 -267 188q-33 90 -14 186q39 223 201 392q172 180 391 180 q178 0 233 -154l56 119h178l-248 -580q-23 -51 -35 -92q-2 -6 -2 -18q0 -39 45 -39q157 0 283 203q59 96 82 223q12 66 12 121q0 188 -121 309q-150 150 -428 149q-299 0 -526 -202q-223 -199 -275 -498q-14 -74 -14 -152q0 -213 127 -356q162 -182 471 -182q193 0 377 90 q86 43 149 94h205q-186 -225 -485 -319q-141 -45 -289 -45q-381 0 -594 241q-166 191 -166 457zM725 494q0 -141 149 -142q160 0 281 195q53 84 68 162q14 76 -25 135q-37 55 -117 55q-121 0 -227 -113q-102 -109 -123 -231q-6 -33 -6 -61z" />
<glyph unicode="A" horiz-adv-x="1353" d="M10 0l791 1489h248l264 -1489h-285l-67 418h-465l-217 -418h-269zM602 633h326l-76 485z" />
<glyph unicode="B" d="M102 0l263 1489h395q319 0 399 -150q29 -53 29 -129q0 -39 -10 -100q-37 -203 -220 -305q258 -40 259 -295q0 -45 -9 -86q-74 -424 -620 -424h-486zM414 219h217q182 0 250 90q37 49 51 129q6 29 6 56q0 168 -229 168h-217zM530 881h162q182 0 219 206q4 33 4 46 q0 137 -184 137h-133z" />
<glyph unicode="C" horiz-adv-x="1148" d="M10 430q-9 57 -8 120q0 88 16 189q55 310 258 529q221 240 521 239q205 0 370 -125l-168 -174q-100 82 -237 82q-215 0 -354 -256q-68 -126 -99 -295q-16 -90 -16 -184q0 -203 98 -299q66 -66 176 -66q133 0 297 103l94 -172q-211 -150 -440 -150q-209 0 -346 127 q-131 123 -162 332z" />
<glyph unicode="D" horiz-adv-x="1382" d="M66 0l264 1489h415q335 0 467 -215q80 -131 80 -328q0 -95 -18 -203q-55 -305 -252 -514q-217 -229 -512 -229h-444zM381 225h158q218 0 356 234q68 117 98 284q16 94 17 162q0 195 -113 295q-70 63 -176 64h-158z" />
<glyph unicode="E" horiz-adv-x="1165" d="M29 0l264 1489h858l-39 -219h-586l-69 -389h485l-39 -219h-483l-78 -443h586l-39 -219h-860z" />
<glyph unicode="F" horiz-adv-x="1120" d="M0 0l262 1489h860l-39 -219h-585l-70 -389h485l-39 -219h-485l-117 -662h-272z" />
<glyph unicode="G" horiz-adv-x="1347" d="M84 563q0 94 14 182q37 201 146 379q113 180 282 287q164 102 342 102q276 0 424 -172l-166 -170q-119 125 -280 125q-217 0 -357 -249q-70 -131 -100 -302q-16 -90 -16 -184q0 -217 119 -311q76 -59 172 -60q106 0 208 66l68 383h-299l39 215h557l-123 -694 q-240 -182 -516 -183q-184 0 -311 98.5t-176 278.5q-27 94 -27 209z" />
<glyph unicode="H" horiz-adv-x="1439" d="M76 0l264 1489h272l-108 -608h485l109 608h272l-262 -1489h-274l116 662h-483l-119 -662h-272z" />
<glyph unicode="I" horiz-adv-x="802" d="M0 0l33 188h170l196 1112h-170l33 189h615l-35 -189h-170l-197 -1112h170l-33 -188h-612z" />
<glyph unicode="J" horiz-adv-x="686" d="M-238 -483l41 227q240 18 347 168q61 84 81 213l242 1364h272l-235 -1339q-111 -633 -748 -633z" />
<glyph unicode="K" horiz-adv-x="1294" d="M0 0l262 1489h275l-111 -623l600 623h309l-684 -698l441 -791h-326l-371 694l-123 -694h-272z" />
<glyph unicode="L" horiz-adv-x="1052" d="M141 0l265 1489h272l-223 -1270h540l-39 -219h-815z" />
<glyph unicode="M" horiz-adv-x="1824" d="M80 0l418 1489h297l186 -834l477 834h295l-108 -1489h-279l84 1047l-418 -738h-229l-168 738l-289 -1047h-266z" />
<glyph unicode="N" horiz-adv-x="1523" d="M86 0l262 1489h295l375 -1012l178 1012h268l-264 -1489h-289l-376 1024l-183 -1024h-266z" />
<glyph unicode="O" horiz-adv-x="1470" d="M96 557q0 80 17 182q37 205 145 379q113 182 285 289q162 100 340 100q182 0 309 -102q121 -100 174 -277q31 -113 31 -215q0 -80 -17 -174q-37 -209 -141 -381q-113 -180 -283 -286q-162 -100 -344 -101q-184 0 -311 100.5t-176 274.5q-29 102 -29 211zM387 555 q0 -193 96 -295q63 -70 168 -70q209 0 346 265q63 123 93 284q16 84 16 176q0 129 -39 220q-63 154 -223 153q-180 0 -305 -192q-98 -151 -136 -357q-16 -90 -16 -184z" />
<glyph unicode="P" horiz-adv-x="1265" d="M49 0l264 1489h426q477 0 478 -346q0 -47 -11 -113q-80 -457 -624 -457h-158l-100 -573h-275zM463 793h162q264 0 307 237q6 35 6 64q0 176 -229 176h-162z" />
<glyph unicode="Q" horiz-adv-x="1470" d="M80 557q0 80 16 182q37 205 146 379q114 184 282 289q162 100 342 100q182 0 310 -102q121 -100 174 -277q29 -104 28 -215q0 -90 -14 -174q-72 -397 -367 -624l150 -289h-252l-92 180q-92 -35 -207 -35q-184 0 -311 101q-129 102 -179 274q-26 94 -26 211zM371 555 q0 -193 96 -295q63 -70 168 -70q33 0 67 11l-127 252h252l66 -129q131 150 178 415q18 96 19 176q0 125 -41 220q-65 154 -222 153q-180 0 -305 -192q-98 -151 -135 -357q-16 -90 -16 -184z" />
<glyph unicode="R" horiz-adv-x="1341" d="M129 0l264 1489h418q459 0 459 -328q0 -39 -10 -100q-49 -287 -349 -379l357 -682h-316l-336 645h-100l-113 -645h-274zM555 856h119q276 0 311 201q4 18 4 53q0 162 -219 162h-143z" />
<glyph unicode="S" horiz-adv-x="1226" d="M10 135l144 207q171 -140 358 -140q8 0 16 1q268 6 303 205q2 12 3 34q0 100 -107 152q-47 23 -201 80q-139 53 -192 90q-133 84 -133 246q0 39 6 77q49 274 317 381q123 51 271 52q272 0 438 -142l-141 -194q-158 104 -344 104q-223 0 -256 -188q-2 -8 -3 -27 q0 -100 162 -153q4 -2 38 -11.5t63 -19.5q272 -92 344 -248q29 -63 28 -139q0 -39 -10 -94q-45 -258 -330 -375q-135 -55 -292 -56q-292 0 -482 158z" />
<glyph unicode="T" horiz-adv-x="1150" d="M39 1270l39 219h1063l-39 -219h-395l-226 -1270h-272l223 1270h-393z" />
<glyph unicode="U" horiz-adv-x="1435" d="M96 301q0 43 8 84l195 1104h272l-186 -1067q-6 -31 -6 -57q0 -170 225 -170q261 0 301 227l189 1067h272l-197 -1104q-45 -254 -301 -356q-131 -53 -303 -54q-195 0 -315 66q-154 82 -154 260z" />
<glyph unicode="V" horiz-adv-x="1353" d="M43 1489h285l176 -1112l571 1112h268l-788 -1489h-248z" />
<glyph unicode="W" horiz-adv-x="1851" d="M43 1489h279l61 -1098l397 789h213l119 -791l471 1100h256l-641 -1489h-268l-119 762l-385 -762h-266z" />
<glyph unicode="X" horiz-adv-x="1294" d="M27 0l614 793l-293 696h291l197 -475l356 475h281l-539 -696l334 -793h-289l-231 573l-431 -573h-290z" />
<glyph unicode="Y" horiz-adv-x="1259" d="M41 1489h291l207 -627l430 627h278l-626 -911l-103 -578h-272l102 578z" />
<glyph unicode="Z" horiz-adv-x="1159" d="M0 0l37 211l887 1059h-656l39 219h959l-37 -207l-887 -1063h731l-39 -219h-1034z" />
<glyph unicode="[" horiz-adv-x="925" d="M59 -469l355 2005h483l-31 -176h-223l-291 -1655h221l-30 -174h-484z" />
<glyph unicode="\" horiz-adv-x="864" d="M154 1489h245l357 -1489h-246z" />
<glyph unicode="]" horiz-adv-x="925" d="M47 -469l33 174h221l293 1655h-223l30 176h484l-355 -2005h-483z" />
<glyph unicode="^" horiz-adv-x="1382" d="M145 639l586 850h207l285 -850h-242l-190 598l-404 -598h-242z" />
<glyph unicode="_" horiz-adv-x="1024" d="M-18 -383l38 219h1024l-38 -219h-1024z" />
<glyph unicode="`" horiz-adv-x="1069" d="M387 1593h295l88 -313h-195z" />
<glyph unicode="a" horiz-adv-x="1126" d="M86 260q0 53 6 82q41 238 309 311q127 35 271 35q45 0 110 -4q10 57 11 92q0 82 -41 113q-34 25 -117 24q-111 0 -229 -53l-56 180q178 76 367 76q274 0 325 -178q14 -50 14 -117q0 -72 -16 -164l-116 -659h-256l14 80q-119 -102 -274 -103q-172 0 -258 99 q-64 71 -64 186zM336 326q-3 -17 -4 -33q0 -53 41 -86q45 -37 123 -37q135 0 217 111l39 225q-31 6 -76 6q-307 0 -340 -186z" />
<glyph unicode="b" horiz-adv-x="1206" d="M98 0l281 1579h262l-98 -559q133 96 280 96q195 0 279 -145q59 -100 59 -236q0 -84 -12 -145q-43 -248 -160 -412q-145 -201 -371 -201q-162 0 -253 97l-13 -74h-254zM410 264q80 -84 174 -84q217 0 288 404q12 68 13 123q0 197 -160 196q-102 0 -219 -86z" />
<glyph unicode="c" horiz-adv-x="1064" d="M72 389q0 76 14 150q39 225 201 393q170 176 395 176q197 0 358 -150l-129 -155q-129 113 -258 112q-127 0 -207 -135q-59 -98 -84 -241q-14 -74 -14 -144q0 -233 195 -233q123 0 278 106l78 -137q-205 -162 -414 -162q-293 0 -385 248q-28 76 -28 172z" />
<glyph unicode="d" horiz-adv-x="1206" d="M53 504q43 244 160 407q143 203 367 203q156 0 247 -90l97 555h264l-279 -1579h-252l17 90q-131 -113 -299 -113q-258 0 -320 254q-16 61 -15 133q-1 66 13 140zM317 385q0 -195 158 -195q102 0 219 86l99 551q-80 84 -175 84q-219 0 -288 -401q-13 -72 -13 -125z" />
<glyph unicode="e" horiz-adv-x="1150" d="M92 412q0 53 14 135q39 227 193 391q166 176 389 176q283 0 367 -264q23 -78 22 -172q0 -89 -18 -197h-688q-8 -61 -9 -84q0 -227 209 -227q143 0 332 137l78 -143q-229 -188 -475 -189q-218 0 -332 160q-82 117 -82 277zM410 666h401q0 8 1 24.5t1 22.5q0 209 -158 209 q-173 0 -245 -256z" />
<glyph unicode="f" horiz-adv-x="780" d="M4 895l35 199h199l14 75q47 258 213 373q88 59 194 60q119 0 244 -72l-96 -176q-76 39 -127 39q-127 0 -168 -230l-10 -69h264l-37 -199h-262l-160 -895h-262l158 895h-199z" />
<glyph unicode="g" horiz-adv-x="1206" d="M51 -324l133 154q114 -86 252 -86q243 0 289 258l14 82q-141 -117 -301 -117q-250 0 -311 254q-14 60 -14 128t14 145q68 381 287 532q113 78 248 78q147 0 239 -84l12 63h263l-195 -1108q-37 -213 -190 -323q-143 -102 -365 -103q-232 0 -375 127zM389 379 q0 -201 160 -201q106 0 219 86l98 551q-84 84 -176 84q-215 0 -287 -399q-14 -78 -14 -121z" />
<glyph unicode="h" horiz-adv-x="1218" d="M98 0l281 1579h262l-102 -578q195 115 372 115q186 0 230 -123q13 -34 12 -76q0 -30 -6 -65l-150 -852h-264l133 754q4 29 4 41q0 98 -116 98q-111 0 -250 -96l-142 -797h-264z" />
<glyph unicode="i" horiz-adv-x="598" d="M35 0l192 1094h265l-193 -1094h-264zM260 1284l53 295h265l-54 -295h-264z" />
<glyph unicode="j" horiz-adv-x="598" d="M-225 -373l96 183q66 -33 113 -33q145 0 188 254l188 1063h265l-195 -1102q-49 -276 -223 -383q-82 -51 -193 -51q-120 -1 -239 69zM393 1284l53 295h265l-54 -295h-264z" />
<glyph unicode="k" horiz-adv-x="1130" d="M35 0l278 1579h265l-154 -868l399 383h307l-499 -473l389 -621h-318l-313 518l-90 -518h-264z" />
<glyph unicode="l" horiz-adv-x="647" d="M82 195q0 76 12 139l219 1245h265l-211 -1196q-13 -69 -13 -112q0 -26 4 -42q14 -51 80 -51q41 0 90 21l37 -172q-127 -51 -241 -52q-156 0 -209 76q-33 48 -33 144z" />
<glyph unicode="m" horiz-adv-x="1855" d="M96 0l193 1094h264l-16 -93q195 115 372 115q180 0 230 -135q209 135 405 135q178 0 228 -123q14 -38 13 -82q0 -28 -5 -59l-150 -852h-264l133 754q4 29 4 39q0 100 -117 100q-113 0 -251 -90l-142 -803h-262l133 754q4 29 4 39q0 100 -118 100q-104 0 -250 -90 l-142 -803h-262z" />
<glyph unicode="n" horiz-adv-x="1218" d="M92 0l195 1094h262l-17 -93q195 115 373 115t228 -123q14 -38 13 -82q0 -28 -5 -59l-150 -852h-264l133 754q4 29 4 39q0 100 -119 100q-111 0 -247 -92l-142 -801h-264z" />
<glyph unicode="o" horiz-adv-x="1153" d="M111 545q61 340 317 495q123 74 266 74q293 0 373 -278q22 -76 22 -163q0 -62 -12 -128q-57 -336 -317 -494q-127 -76 -266 -76q-295 0 -375 281q-20 72 -21 154q1 64 13 135zM371 385q0 -215 157 -215q209 0 273 375q16 92 16 153q0 221 -158 222q-209 0 -274 -375 q-14 -84 -14 -160z" />
<glyph unicode="p" horiz-adv-x="1206" d="M35 -412l266 1506h254l-18 -93q127 115 288 115q215 0 297 -162q47 -92 47 -223q0 -63 -12 -141q-72 -393 -293 -541q-109 -72 -235 -72q-157 0 -246 93l-84 -482h-264zM418 264q84 -84 174 -84q217 0 289 404q12 68 12 121q0 199 -160 198q-111 0 -221 -92z" />
<glyph unicode="q" horiz-adv-x="1206" d="M76 365q0 72 14 141q43 246 158 407q145 203 364 203q162 0 260 -98l15 76h252l-267 -1506h-262l88 498q-121 -109 -286 -109q-187 0 -277 148q-59 95 -59 240zM352 385q0 -195 160 -195q109 0 219 86l96 549q-78 86 -174 86q-217 0 -286 -399q-15 -82 -15 -127z" />
<glyph unicode="r" horiz-adv-x="817" d="M41 0l192 1094h265l-21 -111q166 131 262 131q74 0 148 -55l-123 -221q-68 27 -115 26q-102 0 -209 -94l-137 -770h-262z" />
<glyph unicode="s" horiz-adv-x="1003" d="M6 90l127 184q163 -104 326 -104q164 0 186 129q0 4 1 8t1 8q0 51 -55 82q-29 18 -119 45q-233 74 -283 179q-19 42 -18 94q0 30 6 63q33 203 248 291q113 45 244 45q170 0 336 -102l-115 -176q-137 84 -256 84q-74 0 -123 -31q-61 -34 -61 -105q0 -45 55 -75 q37 -18 170 -66q92 -33 135 -57q121 -72 121 -197q0 -33 -6 -65q-37 -211 -262 -304q-113 -45 -236 -45q-221 0 -422 115z" />
<glyph unicode="t" horiz-adv-x="806" d="M33 893l35 199h196l70 395h264l-70 -395h265l-35 -199h-264l-91 -510q-16 -83 -15 -116q0 -10 1 -17q10 -72 84 -72q63 0 158 37l35 -170q-152 -70 -306 -70q-205 0 -235 140q-8 34 -8 79q0 59 14 140l98 559h-196z" />
<glyph unicode="u" horiz-adv-x="1218" d="M100 244l152 850h262l-133 -754q-4 -29 -4 -39q0 -98 119 -98q113 0 249 94l142 797h262l-193 -1094h-264l17 92q-201 -115 -371 -115q-182 0 -229 123q-14 40 -14 85q-1 29 5 59z" />
<glyph unicode="v" horiz-adv-x="1085" d="M25 1094h272l127 -709l387 709h250l-621 -1094h-182z" />
<glyph unicode="w" horiz-adv-x="1533" d="M41 1094h258l57 -672l316 672h231l80 -672l293 672h248l-516 -1094h-205l-88 713l-336 -713h-207z" />
<glyph unicode="x" horiz-adv-x="1136" d="M0 0l498 596l-248 498h297l135 -308l246 308h276l-411 -498l294 -596h-296l-185 408l-327 -408h-279z" />
<glyph unicode="y" horiz-adv-x="1083" d="M0 -283q274 92 381 316l-209 1057h272l123 -717l391 717h248l-604 -1094q-106 -190 -217 -287q-123 -108 -319 -160z" />
<glyph unicode="z" horiz-adv-x="978" d="M0 0l27 145l671 750h-481l35 199h788l-28 -166l-658 -729h537l-35 -199h-856z" />
<glyph unicode="{" horiz-adv-x="774" d="M4 446l31 177q119 6 176 94q29 41 37 94l78 438q31 170 178 248q74 39 151 39h185l-33 -184h-127q-90 0 -115 -138l-73 -426q-33 -193 -213 -253q129 -37 129 -187q0 -23 -9 -76l-73 -419q-4 -20 -4 -54q0 -86 69 -86h127l-33 -182h-184q-123 0 -186 82q-47 59 -47 145 q0 29 6 60l76 430q4 20 4 55q0 137 -150 143z" />
<glyph unicode="|" horiz-adv-x="530" d="M6 -68l293 1667h238l-295 -1667h-236z" />
<glyph unicode="}" horiz-adv-x="774" d="M-6 -469l33 182h129q88 0 112 140l74 419q37 215 213 263q-129 52 -129 190q0 29 6 63l76 426q4 20 4 54q0 84 -70 84h-127l33 184h184q168 0 220 -141q25 -68 10 -146l-78 -438q-4 -16 -4 -49q0 -129 151 -139l-30 -177q-180 -6 -215 -198l-76 -430q-31 -178 -191 -254 q-72 -33 -141 -33h-184z" />
<glyph unicode="~" horiz-adv-x="1492" d="M233 737q160 182 320 183q78 0 233 -66q162 -68 203 -68q59 0 215 154l64 -174q-145 -182 -314 -182q-82 0 -241 67q-154 66 -199 66q-76 0 -215 -158z" />
<glyph unicode="&#xa1;" horiz-adv-x="690" d="M82 -395l88 499l178 584h139l-28 -584l-88 -499h-289zM295 815l49 279h289l-49 -279h-289z" />
<glyph unicode="&#xa2;" horiz-adv-x="1165" d="M86 547q57 324 326 481q117 70 247 88l23 139h164l-25 -139q178 -16 303 -147l-143 -162q-92 86 -197 106l-129 -741q123 18 240 102l88 -141q-150 -129 -362 -156l-29 -163h-164l31 163q-291 37 -365 287q-37 121 -8 283zM354 426q0 -188 140 -242l129 727 q-106 -31 -177 -147q-57 -94 -79 -217q-13 -64 -13 -121z" />
<glyph unicode="&#xa3;" horiz-adv-x="1198" d="M0 0l37 211q262 23 305 264q6 29 6 105q0 25 -4 90h-256l37 204h203q-8 41 -9 99q0 47 11 108q49 276 307 385q117 49 248 50q184 0 332 -130l-150 -184q-96 82 -203 82q-219 0 -258 -229q-6 -31 -6 -82q0 -25 4 -99h432l-37 -204h-385q4 -53 4 -80q0 -223 -143 -365h569 l-38 -225h-1006z" />
<glyph unicode="&#xa5;" horiz-adv-x="1337" d="M-2 322l31 176h393l12 80l-43 129h-325l30 176h236l-205 606h293l205 -627l432 627h280l-417 -606h235l-31 -176h-325l-90 -129l-15 -80h393l-30 -176h-393l-58 -322h-272l55 322h-391z" />
<glyph unicode="&#xa8;" horiz-adv-x="1069" d="M158 1421q0 59 39 99q41 41 100 41q57 0 98 -41t41 -98.5t-41 -98.5q-43 -43 -98 -43q-57 0 -100 43q-39 39 -39 98zM635 1421q0 57 41 98.5t98 41.5q59 0 100 -41t41 -98.5t-41 -98.5q-43 -43 -100 -43q-51 0 -98 43q-41 39 -41 98z" />
<glyph unicode="&#xa9;" horiz-adv-x="1812" d="M111 633q0 76 14 147q58 332 332 566q276 236 610 235q330 0 524 -233q147 -181 148 -418q0 -74 -13 -150q-58 -332 -331 -565q-274 -236 -613 -235q-332 0 -524 235q-147 178 -147 418zM272 666q0 -104 41 -205q61 -154 199 -240q131 -82 299 -82q178 0 342 88 q160 86 270 234q113 152 144 319q10 66 10 115q0 104 -41 205q-61 152 -199 237q-133 84 -299 84q-174 0 -342 -90q-162 -86 -270 -229q-111 -145 -141 -322q-13 -59 -13 -114zM496 766q37 209 172 332q139 127 346 127q162 0 248 -86t84 -250h-189q-6 162 -172 162 q-246 0 -295 -281q-6 -40 -6 -74q0 -78 33 -131q51 -88 172 -88q164 0 225 174h189q-80 -215 -246 -301q-90 -47 -199 -47q-272 0 -348 223q-37 107 -14 240z" />
<glyph unicode="&#xaa;" horiz-adv-x="1126" d="M86 260q0 53 6 82q41 238 309 311q127 35 271 35q45 0 110 -4q10 57 11 92q0 82 -41 113q-34 25 -117 24q-111 0 -229 -53l-56 180q178 76 367 76q274 0 325 -178q14 -50 14 -117q0 -72 -16 -164l-116 -659h-256l14 80q-119 -102 -274 -103q-172 0 -258 99 q-64 71 -64 186zM336 326q-3 -17 -4 -33q0 -53 41 -86q45 -37 123 -37q135 0 217 111l39 225q-31 6 -76 6q-307 0 -340 -186z" />
<glyph unicode="&#xab;" horiz-adv-x="1095" d="M86 518l37 205l428 283l-39 -228l-242 -157l187 -156l-41 -229zM563 518l35 205l428 283l-41 -228l-240 -157l187 -156l-41 -229z" />
<glyph unicode="&#xac;" horiz-adv-x="1335" d="M94 645l37 217h1118l-112 -639h-232l76 422h-887z" />
<glyph unicode="&#xad;" d="M104 641v221h1127v-221h-1127z" />
<glyph unicode="&#x2212;" d="M104 641v221h1127v-221h-1127z" />
<glyph unicode="&#xae;" horiz-adv-x="1812" d="M111 633q0 76 14 147q58 332 332 566q276 236 610 235q330 0 524 -233q147 -181 148 -418q0 -74 -13 -150q-58 -332 -331 -565q-274 -236 -613 -235q-332 0 -524 235q-147 178 -147 418zM272 666q0 -104 41 -205q61 -154 199 -240q131 -82 299 -82q178 0 342 88 q160 86 270 234q113 152 144 319q10 66 10 115q0 104 -41 205q-61 152 -199 237q-133 84 -299 84q-174 0 -342 -90q-162 -86 -270 -229q-111 -145 -141 -322q-13 -59 -13 -114zM541 342l155 883h336q281 0 281 -199q0 -39 -4 -59q-39 -223 -254 -240l149 -385h-194l-138 375 h-79l-66 -375h-186zM819 862h129q152 0 170 107q2 8 2 20q0 86 -139 86h-125z" />
<glyph unicode="&#xb0;" horiz-adv-x="872" d="M115 1194q0 182 159 279q74 43 162 43q135 0 229.5 -94.5t94.5 -227.5q0 -184 -162 -281q-74 -43 -162 -43q-182 0 -278 160q-43 74 -43 164zM256 1194q0 -76 53 -129t127 -53q76 0 129 53t53 129t-53 129q-51 51 -129 51q-76 0 -129 -53q-51 -51 -51 -127z" />
<glyph unicode="&#xb2;" horiz-adv-x="1107" d="M-8 0l37 207q479 358 663 557q154 166 174 289q6 31 6 57q0 176 -202 176q-154 0 -353 -170l-120 164q299 236 553 236q141 0 241 -64q113 -72 150 -199q23 -82 4 -194q-37 -217 -295 -471q-154 -154 -449 -369h586l-39 -219h-956z" />
<glyph unicode="&#xb3;" horiz-adv-x="1114" d="M2 20l41 232q184 -63 309 -64q238 0 350 131q59 70 78 173q4 18 4 51q0 201 -350 196q-55 0 -133 -8l25 141l460 392h-573l41 225h905l-35 -199l-417 -358q158 -6 260 -92q111 -94 110 -248q0 -39 -10 -96q-47 -266 -272 -404q-199 -121 -473 -121q-173 0 -320 49z" />
<glyph unicode="&#xb4;" horiz-adv-x="1069" d="M592 1280l199 313h292l-299 -313h-192z" />
<glyph unicode="&#xb6;" horiz-adv-x="1452" d="M129 1008q0 37 6 75q70 406 600 406h608l-305 -1735h-233l272 1544h-203l-272 -1544h-233l166 940q-169 6 -277 74q-129 83 -129 240z" />
<glyph unicode="&#xb7;" horiz-adv-x="610" d="M162 610v279h289v-279h-289z" />
<glyph unicode="&#x2219;" horiz-adv-x="610" d="M162 610v279h289v-279h-289z" />
<glyph unicode="&#xb9;" horiz-adv-x="874" d="M125 1040l41 236q209 41 389 213h233l-264 -1489h-260l205 1169q-170 -109 -344 -129z" />
<glyph unicode="&#xba;" horiz-adv-x="1153" d="M111 545q61 340 317 495q123 74 266 74q293 0 373 -278q22 -76 22 -163q0 -62 -12 -128q-57 -336 -317 -494q-127 -76 -266 -76q-295 0 -375 281q-20 72 -21 154q1 64 13 135zM371 385q0 -215 157 -215q209 0 273 375q16 92 16 153q0 221 -158 222q-209 0 -274 -375 q-14 -84 -14 -160z" />
<glyph unicode="&#xbb;" horiz-adv-x="1095" d="M90 236l39 229l244 156l-189 157l41 228l328 -283l-35 -205zM565 236l41 229l242 156l-186 157l38 228l328 -283l-35 -205z" />
<glyph unicode="&#xbc;" horiz-adv-x="2048" d="M276 1184l31 170q132 46 228 135h167l-163 -936h-199l121 696q-93 -51 -185 -65zM285 0l1149 1489h225l-1151 -1489h-223zM1061 188l24 142l416 606h195l-389 -588h198l56 303h192l-53 -303h135l-29 -160h-135l-33 -188h-192l33 188h-418z" />
<glyph unicode="&#xbd;" horiz-adv-x="2048" d="M297 1184l31 170q129 43 227 135h168l-166 -936h-199l123 696q-94 -51 -184 -65zM303 0l1149 1489h225l-1149 -1489h-225zM1161 0l29 152q334 246 440 380q66 84 66 150q0 88 -107 88q-86 0 -219 -111l-92 125q193 162 367 162q207 0 251 -162q18 -53 2 -133 q-25 -135 -196 -305q-83 -80 -221 -184h325l-26 -162h-619z" />
<glyph unicode="&#xbe;" horiz-adv-x="2048" d="M158 590l28 166q119 -47 203 -47q201 0 227 161q2 10 2 27q0 113 -182 113q-35 0 -106 -9l14 97l270 231h-329l26 160h576l-27 -137l-221 -197q195 -20 195 -211q0 -31 -7 -63q-37 -213 -256 -297q-98 -37 -198 -37q-111 0 -215 43zM367 0l1151 1489h225l-1149 -1489 h-227zM1145 188l24 142l416 606h195l-389 -588h198l56 303h194l-53 -303h133l-29 -160h-133l-33 -188h-194l33 188h-418z" />
<glyph unicode="&#xbf;" horiz-adv-x="1054" d="M80 -109q0 33 6 70q14 90 90 180q63 74 152 146q63 53 153 143q51 68 82 238h268q-31 -154 -40 -185q-33 -100 -123 -192q-49 -53 -174 -154q-119 -94 -132 -168q-12 -68 37 -110q49 -39 117 -39q164 0 289 180l184 -109q-199 -303 -520 -303q-264 0 -356 168 q-33 65 -33 135zM586 817l49 277h276l-49 -277h-276z" />
<glyph unicode="&#xc0;" horiz-adv-x="1353" d="M10 0l791 1489h248l264 -1489h-285l-67 418h-465l-217 -418h-269zM602 633h326l-76 485zM446 1988h295l88 -313h-195z" />
<glyph unicode="&#xc1;" horiz-adv-x="1353" d="M10 0l791 1489h248l264 -1489h-285l-67 418h-465l-217 -418h-269zM602 633h326l-76 485zM813 1675l199 313h292l-299 -313h-192z" />
<glyph unicode="&#xc2;" horiz-adv-x="1353" d="M10 0l791 1489h248l264 -1489h-285l-67 418h-465l-217 -418h-269zM602 633h326l-76 485zM377 1675l196 319h207l195 -319h-181l-118 147l-121 -147h-178z" />
<glyph unicode="&#xc3;" horiz-adv-x="1353" d="M10 0l791 1489h248l264 -1489h-285l-67 418h-465l-217 -418h-269zM602 633h326l-76 485zM320 1679q37 258 213 258q51 0 157 -49q102 -47 152 -47q70 0 82 94h117q-6 -260 -209 -260q-51 0 -160 47q-113 49 -154 49q-70 0 -82 -92h-116z" />
<glyph unicode="&#xc4;" horiz-adv-x="1353" d="M10 0l791 1489h248l264 -1489h-285l-67 418h-465l-217 -418h-269zM602 633h326l-76 485zM299 1816q0 59 39 99q41 41 100 41q57 0 98 -41t41 -98.5t-41 -98.5q-43 -43 -98 -43q-57 0 -100 43q-39 39 -39 98zM776 1816q0 57 41 98.5t98 41.5q59 0 100 -41t41 -98.5 t-41 -98.5q-43 -43 -100 -43q-51 0 -98 43q-41 39 -41 98z" />
<glyph unicode="&#xc5;" horiz-adv-x="1353" d="M2 0l791 1489h248l264 -1489h-285l-67 418h-465l-217 -418h-269zM594 633h326l-76 485zM655 2019q82 0 137 -55q57 -57 58 -140q0 -113 -99 -168q-47 -25 -96 -24q-115 0 -168 96q-27 49 -27 96q0 113 99 168q49 27 96 27zM655 1915q-37 0 -63.5 -27t-26.5 -64 q0 -35 27 -61q29 -29 63 -29q37 0 63.5 27t26.5 63q0 39 -27 66q-24 25 -63 25z" />
<glyph unicode="&#xc6;" horiz-adv-x="1925" d="M0 0l977 1489h848v-219h-588v-389h487v-219h-487v-443h588v-219h-860v418h-410l-266 -418h-289zM688 635h277v430z" />
<glyph unicode="&#xc7;" horiz-adv-x="1148" d="M102 743q0 311 162 529q181 240 479 239q209 0 394 -122l-138 -177q-113 82 -251 82q-217 0 -310 -256q-45 -123 -45 -295q0 -340 166 -481q80 -68 189 -67q133 0 278 102l125 -172q-162 -129 -360 -148l-80 -102q27 6 53 6q86 0 141 -43q59 -47 60 -133 q0 -135 -144 -188q-74 -27 -155 -27q-117 0 -230 57l58 105q100 -45 168 -45q133 0 133 88q0 80 -113 80q-55 0 -102 -27l-60 68l129 166q-332 43 -477 391q-70 163 -70 370z" />
<glyph unicode="&#xc8;" horiz-adv-x="1165" d="M29 0l264 1489h858l-39 -219h-586l-69 -389h485l-39 -219h-483l-78 -443h586l-39 -219h-860zM387 1988h295l88 -313h-195z" />
<glyph unicode="&#xc9;" horiz-adv-x="1165" d="M29 0l264 1489h858l-39 -219h-586l-69 -389h485l-39 -219h-483l-78 -443h586l-39 -219h-860zM772 1675l199 313h292l-299 -313h-192z" />
<glyph unicode="&#xca;" horiz-adv-x="1165" d="M29 0l264 1489h858l-39 -219h-586l-69 -389h485l-39 -219h-483l-78 -443h586l-39 -219h-860zM332 1675l196 319h207l195 -319h-181l-118 147l-121 -147h-178z" />
<glyph unicode="&#xcb;" horiz-adv-x="1165" d="M29 0l264 1489h858l-39 -219h-586l-69 -389h485l-39 -219h-483l-78 -443h586l-39 -219h-860zM248 1816q0 59 39 99q41 41 100 41q57 0 98 -41t41 -98.5t-41 -98.5q-43 -43 -98 -43q-57 0 -100 43q-39 39 -39 98zM725 1816q0 57 41 98.5t98 41.5q59 0 100 -41t41 -98.5 t-41 -98.5q-43 -43 -100 -43q-51 0 -98 43q-41 39 -41 98z" />
<glyph unicode="&#xcc;" horiz-adv-x="802" d="M0 0l33 188h170l196 1112h-170l33 189h615l-35 -189h-170l-197 -1112h170l-33 -188h-612zM174 1988h295l88 -313h-195z" />
<glyph unicode="&#xcd;" horiz-adv-x="802" d="M0 0l33 188h170l196 1112h-170l33 189h615l-35 -189h-170l-197 -1112h170l-33 -188h-612zM529 1675l199 313h292l-299 -313h-192z" />
<glyph unicode="&#xce;" horiz-adv-x="802" d="M0 0l33 188h170l196 1112h-170l33 189h615l-35 -189h-170l-197 -1112h170l-33 -188h-612zM105 1675l196 319h207l195 -319h-181l-118 147l-121 -147h-178z" />
<glyph unicode="&#xcf;" horiz-adv-x="802" d="M0 0l33 188h170l196 1112h-170l33 189h615l-35 -189h-170l-197 -1112h170l-33 -188h-612zM23 1816q0 59 39 99q41 41 100 41q57 0 98 -41t41 -98.5t-41 -98.5q-43 -43 -98 -43q-57 0 -100 43q-39 39 -39 98zM500 1816q0 57 41 98.5t98 41.5q59 0 100 -41t41 -98.5 t-41 -98.5q-43 -43 -100 -43q-51 0 -98 43q-41 39 -41 98z" />
<glyph unicode="&#xd1;" horiz-adv-x="1523" d="M86 0l262 1489h295l375 -1012l178 1012h268l-264 -1489h-289l-376 1024l-183 -1024h-266zM404 1679q37 258 213 258q51 0 157 -49q102 -47 152 -47q70 0 82 94h117q-6 -260 -209 -260q-51 0 -160 47q-113 49 -154 49q-70 0 -82 -92h-116z" />
<glyph unicode="&#xd2;" horiz-adv-x="1470" d="M96 557q0 80 17 182q37 205 145 379q113 182 285 289q162 100 340 100q182 0 309 -102q121 -100 174 -277q31 -113 31 -215q0 -80 -17 -174q-37 -209 -141 -381q-113 -180 -283 -286q-162 -100 -344 -101q-184 0 -311 100.5t-176 274.5q-29 102 -29 211zM387 555 q0 -193 96 -295q63 -70 168 -70q209 0 346 265q63 123 93 284q16 84 16 176q0 129 -39 220q-63 154 -223 153q-180 0 -305 -192q-98 -151 -136 -357q-16 -90 -16 -184zM510 1988h295l88 -313h-195z" />
<glyph unicode="&#xd3;" horiz-adv-x="1470" d="M96 557q0 80 17 182q37 205 145 379q113 182 285 289q162 100 340 100q182 0 309 -102q121 -100 174 -277q31 -113 31 -215q0 -80 -17 -174q-37 -209 -141 -381q-113 -180 -283 -286q-162 -100 -344 -101q-184 0 -311 100.5t-176 274.5q-29 102 -29 211zM387 555 q0 -193 96 -295q63 -70 168 -70q209 0 346 265q63 123 93 284q16 84 16 176q0 129 -39 220q-63 154 -223 153q-180 0 -305 -192q-98 -151 -136 -357q-16 -90 -16 -184zM871 1675l199 313h292l-299 -313h-192z" />
<glyph unicode="&#xd4;" horiz-adv-x="1470" d="M96 557q0 80 17 182q37 205 145 379q113 182 285 289q162 100 340 100q182 0 309 -102q121 -100 174 -277q31 -113 31 -215q0 -80 -17 -174q-37 -209 -141 -381q-113 -180 -283 -286q-162 -100 -344 -101q-184 0 -311 100.5t-176 274.5q-29 102 -29 211zM387 555 q0 -193 96 -295q63 -70 168 -70q209 0 346 265q63 123 93 284q16 84 16 176q0 129 -39 220q-63 154 -223 153q-180 0 -305 -192q-98 -151 -136 -357q-16 -90 -16 -184zM437 1675l196 319h207l195 -319h-181l-118 147l-121 -147h-178z" />
<glyph unicode="&#xd5;" horiz-adv-x="1470" d="M96 557q0 80 17 182q37 205 145 379q113 182 285 289q162 100 340 100q182 0 309 -102q121 -100 174 -277q31 -113 31 -215q0 -80 -17 -174q-37 -209 -141 -381q-113 -180 -283 -286q-162 -100 -344 -101q-184 0 -311 100.5t-176 274.5q-29 102 -29 211zM387 555 q0 -193 96 -295q63 -70 168 -70q209 0 346 265q63 123 93 284q16 84 16 176q0 129 -39 220q-63 154 -223 153q-180 0 -305 -192q-98 -151 -136 -357q-16 -90 -16 -184zM375 1679q37 258 213 258q51 0 157 -49q102 -47 152 -47q70 0 82 94h117q-6 -260 -209 -260 q-51 0 -160 47q-113 49 -154 49q-70 0 -82 -92h-116z" />
<glyph unicode="&#xd6;" horiz-adv-x="1470" d="M96 557q0 80 17 182q37 205 145 379q113 182 285 289q162 100 340 100q182 0 309 -102q121 -100 174 -277q31 -113 31 -215q0 -80 -17 -174q-37 -209 -141 -381q-113 -180 -283 -286q-162 -100 -344 -101q-184 0 -311 100.5t-176 274.5q-29 102 -29 211zM387 555 q0 -193 96 -295q63 -70 168 -70q209 0 346 265q63 123 93 284q16 84 16 176q0 129 -39 220q-63 154 -223 153q-180 0 -305 -192q-98 -151 -136 -357q-16 -90 -16 -184zM357 1804q0 59 39 99q41 41 100 41q57 0 98 -41t41 -98.5t-41 -98.5q-43 -43 -98 -43q-57 0 -100 43 q-39 39 -39 98zM834 1804q0 57 41 98.5t98 41.5q59 0 100 -41t41 -98.5t-41 -98.5q-43 -43 -100 -43q-51 0 -98 43q-41 39 -41 98z" />
<glyph unicode="&#xd7;" d="M143 369l381 383l-381 383l142 143l383 -383l383 383l143 -143l-383 -383l383 -383l-143 -142l-383 381l-383 -381z" />
<glyph unicode="&#xd8;" horiz-adv-x="1470" d="M100 82l138 176q-88 129 -119 309q-16 94 -17 176q0 201 74 373q82 186 238 295q145 100 321 100q206 0 369 -135l110 146l156 -117l-135 -176q135 -203 135 -486q0 -197 -76 -372q-82 -186 -235 -295q-145 -100 -324 -101q-207 0 -366 136l-111 -146zM393 743 q0 -123 33 -243l526 684q-88 109 -217 108q-178 0 -270 -194q-72 -154 -72 -355zM520 303q90 -109 215 -108q209 0 301 264q43 127 43 284q0 126 -30 246z" />
<glyph unicode="&#xd9;" horiz-adv-x="1435" d="M96 301q0 43 8 84l195 1104h272l-186 -1067q-6 -31 -6 -57q0 -170 225 -170q261 0 301 227l189 1067h272l-197 -1104q-45 -254 -301 -356q-131 -53 -303 -54q-195 0 -315 66q-154 82 -154 260zM508 1988h295l88 -313h-195z" />
<glyph unicode="&#xda;" horiz-adv-x="1435" d="M96 301q0 43 8 84l195 1104h272l-186 -1067q-6 -31 -6 -57q0 -170 225 -170q261 0 301 227l189 1067h272l-197 -1104q-45 -254 -301 -356q-131 -53 -303 -54q-195 0 -315 66q-154 82 -154 260zM844 1675l199 313h292l-299 -313h-192z" />
<glyph unicode="&#xdb;" horiz-adv-x="1435" d="M96 301q0 43 8 84l195 1104h272l-186 -1067q-6 -31 -6 -57q0 -170 225 -170q261 0 301 227l189 1067h272l-197 -1104q-45 -254 -301 -356q-131 -53 -303 -54q-195 0 -315 66q-154 82 -154 260zM420 1675l196 319h207l195 -319h-181l-118 147l-121 -147h-178z" />
<glyph unicode="&#xdc;" horiz-adv-x="1435" d="M96 301q0 43 8 84l195 1104h272l-186 -1067q-6 -31 -6 -57q0 -170 225 -170q261 0 301 227l189 1067h272l-197 -1104q-45 -254 -301 -356q-131 -53 -303 -54q-195 0 -315 66q-154 82 -154 260zM340 1816q0 59 39 99q41 41 100 41q57 0 98 -41t41 -98.5t-41 -98.5 q-43 -43 -98 -43q-57 0 -100 43q-39 39 -39 98zM817 1816q0 57 41 98.5t98 41.5q59 0 100 -41t41 -98.5t-41 -98.5q-43 -43 -100 -43q-51 0 -98 43q-41 39 -41 98z" />
<glyph unicode="&#xdd;" horiz-adv-x="1259" d="M41 1489h291l207 -627l430 627h278l-626 -911l-103 -578h-272l102 578zM766 1675l199 313h292l-299 -313h-192z" />
<glyph unicode="&#xdf;" horiz-adv-x="1341" d="M160 0v1008q0 596 551 596q276 0 405 -195q63 -94 64 -219q0 -172 -101 -264q-51 -49 -139 -80q194 -37 270 -197q39 -84 39 -184q0 -221 -139 -354q-137 -131 -360 -131q-109 0 -209 32v213q92 -37 172 -37q123 0 192.5 80t69.5 199q0 154 -125 215q-84 43 -262 47v199 q154 4 223 47q92 57 92 196q0 221 -215 222q-266 0 -266 -355v-1038h-262z" />
<glyph unicode="&#xe0;" horiz-adv-x="1126" d="M86 260q0 53 6 82q41 238 309 311q127 35 271 35q45 0 110 -4q10 57 11 92q0 82 -41 113q-34 25 -117 24q-111 0 -229 -53l-56 180q178 76 367 76q274 0 325 -178q14 -50 14 -117q0 -72 -16 -164l-116 -659h-256l14 80q-119 -102 -274 -103q-172 0 -258 99 q-64 71 -64 186zM336 326q-3 -17 -4 -33q0 -53 41 -86q45 -37 123 -37q135 0 217 111l39 225q-31 6 -76 6q-307 0 -340 -186zM350 1593h295l88 -313h-195z" />
<glyph unicode="&#xe1;" horiz-adv-x="1126" d="M86 260q0 53 6 82q41 238 309 311q127 35 271 35q45 0 110 -4q10 57 11 92q0 82 -41 113q-34 25 -117 24q-111 0 -229 -53l-56 180q178 76 367 76q274 0 325 -178q14 -50 14 -117q0 -72 -16 -164l-116 -659h-256l14 80q-119 -102 -274 -103q-172 0 -258 99 q-64 71 -64 186zM336 326q-3 -17 -4 -33q0 -53 41 -86q45 -37 123 -37q135 0 217 111l39 225q-31 6 -76 6q-307 0 -340 -186zM719 1280l199 313h292l-299 -313h-192z" />
<glyph unicode="&#xe2;" horiz-adv-x="1126" d="M86 260q0 53 6 82q41 238 309 311q127 35 271 35q45 0 110 -4q10 57 11 92q0 82 -41 113q-34 25 -117 24q-111 0 -229 -53l-56 180q178 76 367 76q274 0 325 -178q14 -50 14 -117q0 -72 -16 -164l-116 -659h-256l14 80q-119 -102 -274 -103q-172 0 -258 99 q-64 71 -64 186zM336 326q-3 -17 -4 -33q0 -53 41 -86q45 -37 123 -37q135 0 217 111l39 225q-31 6 -76 6q-307 0 -340 -186zM275 1280l196 319h207l195 -319h-181l-118 147l-121 -147h-178z" />
<glyph unicode="&#xe3;" horiz-adv-x="1126" d="M86 260q0 53 6 82q41 238 309 311q127 35 271 35q45 0 110 -4q10 57 11 92q0 82 -41 113q-34 25 -117 24q-111 0 -229 -53l-56 180q178 76 367 76q274 0 325 -178q14 -50 14 -117q0 -72 -16 -164l-116 -659h-256l14 80q-119 -102 -274 -103q-172 0 -258 99 q-64 71 -64 186zM336 326q-3 -17 -4 -33q0 -53 41 -86q45 -37 123 -37q135 0 217 111l39 225q-31 6 -76 6q-307 0 -340 -186zM226 1284q37 258 213 258q51 0 157 -49q102 -47 152 -47q70 0 82 94h117q-6 -260 -209 -260q-51 0 -160 47q-113 49 -154 49q-70 0 -82 -92h-116z " />
<glyph unicode="&#xe4;" horiz-adv-x="1126" d="M86 260q0 53 6 82q41 238 309 311q127 35 271 35q45 0 110 -4q10 57 11 92q0 82 -41 113q-34 25 -117 24q-111 0 -229 -53l-56 180q178 76 367 76q274 0 325 -178q14 -50 14 -117q0 -72 -16 -164l-116 -659h-256l14 80q-119 -102 -274 -103q-172 0 -258 99 q-64 71 -64 186zM336 326q-3 -17 -4 -33q0 -53 41 -86q45 -37 123 -37q135 0 217 111l39 225q-31 6 -76 6q-307 0 -340 -186zM189 1421q0 59 39 99q41 41 100 41q57 0 98 -41t41 -98.5t-41 -98.5q-43 -43 -98 -43q-57 0 -100 43q-39 39 -39 98zM666 1421q0 57 41 98.5 t98 41.5q59 0 100 -41t41 -98.5t-41 -98.5q-43 -43 -100 -43q-51 0 -98 43q-41 39 -41 98z" />
<glyph unicode="&#xe5;" horiz-adv-x="1126" d="M86 260q0 53 6 82q41 238 309 311q127 35 271 35q45 0 110 -4q10 57 11 92q0 82 -41 113q-34 25 -117 24q-111 0 -229 -53l-56 180q178 76 367 76q274 0 325 -178q14 -50 14 -117q0 -72 -16 -164l-116 -659h-256l14 80q-119 -102 -274 -103q-172 0 -258 99 q-64 71 -64 186zM336 326q-3 -17 -4 -33q0 -53 41 -86q45 -37 123 -37q135 0 217 111l39 225q-31 6 -76 6q-307 0 -340 -186zM578 1620q82 0 137 -55q57 -57 58 -140q0 -113 -99 -168q-47 -25 -96 -24q-115 0 -168 96q-27 49 -27 96q0 113 99 168q49 27 96 27zM578 1516 q-37 0 -63.5 -27t-26.5 -64q0 -35 27 -61q29 -29 63 -29q37 0 63.5 27t26.5 63q0 39 -27 66q-24 25 -63 25z" />
<glyph unicode="&#xe6;" horiz-adv-x="1755" d="M82 346q0 238 254 311q113 33 262 33q43 0 113 -4q0 170 -72 209q-41 23 -117 23q-109 0 -219 -54l-88 178q164 76 352 76q231 0 320 -110q127 109 295 108q283 0 411 -264q70 -145 70 -369h-688q12 -311 256 -311q139 0 307 137l102 -143q-195 -188 -442 -189 q-233 0 -367 168q-160 -168 -370 -165q-174 4 -275 98q-104 96 -104 268zM326 330q0 -78 59 -119q53 -37 129 -37q145 0 219 143q-33 92 -35 195q-18 2 -65 2q-307 0 -307 -184zM981 668h401q-29 256 -200 256q-176 0 -201 -256z" />
<glyph unicode="&#xe7;" horiz-adv-x="978" d="M94 546.5q0 227.5 131 391.5q141 178 363 178q199 0 387 -149l-103 -156q-147 113 -276 113q-126 0 -184 -136q-41 -94 -41 -241q0 -377 245 -377q123 0 261 106l102 -137q-137 -125 -305 -153l-84 -109q29 6 53 6q195 0 195 -170q0 -109 -95 -166q-74 -43 -192 -43 q-113 0 -227 56l55 100q96 -43 164 -43q131 0 131 86q0 76 -107 76q-47 0 -102 -23l-59 64l126 164q-219 25 -333 188q-105 147 -105 374.5z" />
<glyph unicode="&#xe8;" horiz-adv-x="1150" d="M92 412q0 53 14 135q39 227 193 391q166 176 389 176q283 0 367 -264q23 -78 22 -172q0 -89 -18 -197h-688q-8 -61 -9 -84q0 -227 209 -227q143 0 332 137l78 -143q-229 -188 -475 -189q-218 0 -332 160q-82 117 -82 277zM410 666h401q0 8 1 24.5t1 22.5q0 209 -158 209 q-173 0 -245 -256zM360 1593h295l88 -313h-195z" />
<glyph unicode="&#xe9;" horiz-adv-x="1150" d="M92 412q0 53 14 135q39 227 193 391q166 176 389 176q283 0 367 -264q23 -78 22 -172q0 -89 -18 -197h-688q-8 -61 -9 -84q0 -227 209 -227q143 0 332 137l78 -143q-229 -188 -475 -189q-218 0 -332 160q-82 117 -82 277zM410 666h401q0 8 1 24.5t1 22.5q0 209 -158 209 q-173 0 -245 -256zM721 1280l199 313h292l-299 -313h-192z" />
<glyph unicode="&#xea;" horiz-adv-x="1150" d="M92 412q0 53 14 135q39 227 193 391q166 176 389 176q283 0 367 -264q23 -78 22 -172q0 -89 -18 -197h-688q-8 -61 -9 -84q0 -227 209 -227q143 0 332 137l78 -143q-229 -188 -475 -189q-218 0 -332 160q-82 117 -82 277zM410 666h401q0 8 1 24.5t1 22.5q0 209 -158 209 q-173 0 -245 -256zM289 1280l196 319h207l195 -319h-181l-118 147l-121 -147h-178z" />
<glyph unicode="&#xeb;" horiz-adv-x="1150" d="M92 412q0 53 14 135q39 227 193 391q166 176 389 176q283 0 367 -264q23 -78 22 -172q0 -89 -18 -197h-688q-8 -61 -9 -84q0 -227 209 -227q143 0 332 137l78 -143q-229 -188 -475 -189q-218 0 -332 160q-82 117 -82 277zM410 666h401q0 8 1 24.5t1 22.5q0 209 -158 209 q-173 0 -245 -256zM201 1421q0 59 39 99q41 41 100 41q57 0 98 -41t41 -98.5t-41 -98.5q-43 -43 -98 -43q-57 0 -100 43q-39 39 -39 98zM678 1421q0 57 41 98.5t98 41.5q59 0 100 -41t41 -98.5t-41 -98.5q-43 -43 -100 -43q-51 0 -98 43q-41 39 -41 98z" />
<glyph unicode="&#xec;" horiz-adv-x="598" d="M-39 1593h293l143 -313h-192zM168 0v1094h262v-1094h-262z" />
<glyph unicode="&#xed;" horiz-adv-x="598" d="M168 0v1094h262v-1094h-262zM207 1280l143 313h293l-244 -313h-192z" />
<glyph unicode="&#xee;" horiz-adv-x="598" d="M0 1280l197 319h204l197 -319h-180l-119 147l-123 -147h-176zM168 0v1094h262v-1094h-262z" />
<glyph unicode="&#xef;" horiz-adv-x="598" d="M-70 1421q0 57 41 98.5t98.5 41.5t98.5 -41t41 -98.5t-41 -98.5q-43 -43 -98.5 -43t-98.5 43q-41 41 -41 98zM168 0v1094h262v-1094h-262zM387 1421q0 57 41 98.5t100.5 41.5t100.5 -41t41 -98.5t-41 -98.5q-43 -43 -101 -43q-51 0 -98 43q-43 40 -43 98z" />
<glyph unicode="&#xf1;" horiz-adv-x="1218" d="M92 0l195 1094h262l-17 -93q195 115 373 115t228 -123q14 -38 13 -82q0 -28 -5 -59l-150 -852h-264l133 754q4 29 4 39q0 100 -119 100q-111 0 -247 -92l-142 -801h-264zM262 1284q37 258 213 258q51 0 157 -49q102 -47 152 -47q70 0 82 94h117q-6 -260 -209 -260 q-51 0 -160 47q-113 49 -154 49q-70 0 -82 -92h-116z" />
<glyph unicode="&#xf2;" horiz-adv-x="1153" d="M111 545q61 340 317 495q123 74 266 74q293 0 373 -278q22 -76 22 -163q0 -62 -12 -128q-57 -336 -317 -494q-127 -76 -266 -76q-295 0 -375 281q-20 72 -21 154q1 64 13 135zM371 385q0 -215 157 -215q209 0 273 375q16 92 16 153q0 221 -158 222q-209 0 -274 -375 q-14 -84 -14 -160zM362 1593h295l88 -313h-195z" />
<glyph unicode="&#xf3;" horiz-adv-x="1153" d="M111 545q61 340 317 495q123 74 266 74q293 0 373 -278q22 -76 22 -163q0 -62 -12 -128q-57 -336 -317 -494q-127 -76 -266 -76q-295 0 -375 281q-20 72 -21 154q1 64 13 135zM371 385q0 -215 157 -215q209 0 273 375q16 92 16 153q0 221 -158 222q-209 0 -274 -375 q-14 -84 -14 -160zM715 1280l199 313h292l-299 -313h-192z" />
<glyph unicode="&#xf4;" horiz-adv-x="1153" d="M111 545q61 340 317 495q123 74 266 74q293 0 373 -278q22 -76 22 -163q0 -62 -12 -128q-57 -336 -317 -494q-127 -76 -266 -76q-295 0 -375 281q-20 72 -21 154q1 64 13 135zM371 385q0 -215 157 -215q209 0 273 375q16 92 16 153q0 221 -158 222q-209 0 -274 -375 q-14 -84 -14 -160zM279 1280l196 319h207l195 -319h-181l-118 147l-121 -147h-178z" />
<glyph unicode="&#xf5;" horiz-adv-x="1153" d="M111 545q61 340 317 495q123 74 266 74q293 0 373 -278q22 -76 22 -163q0 -62 -12 -128q-57 -336 -317 -494q-127 -76 -266 -76q-295 0 -375 281q-20 72 -21 154q1 64 13 135zM371 385q0 -215 157 -215q209 0 273 375q16 92 16 153q0 221 -158 222q-209 0 -274 -375 q-14 -84 -14 -160zM217 1284q37 258 213 258q51 0 157 -49q102 -47 152 -47q70 0 82 94h117q-6 -260 -209 -260q-51 0 -160 47q-113 49 -154 49q-70 0 -82 -92h-116z" />
<glyph unicode="&#xf6;" horiz-adv-x="1153" d="M111 545q61 340 317 495q123 74 266 74q293 0 373 -278q22 -76 22 -163q0 -62 -12 -128q-57 -336 -317 -494q-127 -76 -266 -76q-295 0 -375 281q-20 72 -21 154q1 64 13 135zM371 385q0 -215 157 -215q209 0 273 375q16 92 16 153q0 221 -158 222q-209 0 -274 -375 q-14 -84 -14 -160zM201 1421q0 59 39 99q41 41 100 41q57 0 98 -41t41 -98.5t-41 -98.5q-43 -43 -98 -43q-57 0 -100 43q-39 39 -39 98zM678 1421q0 57 41 98.5t98 41.5q59 0 100 -41t41 -98.5t-41 -98.5q-43 -43 -100 -43q-51 0 -98 43q-41 39 -41 98z" />
<glyph unicode="&#xf7;" d="M106 641v221h1125v-221h-1125zM532 369q0 55 41 96q39 39 95 39q57 0 96 -39t39 -96q0 -55 -39 -95q-41 -41 -96 -41q-53 0 -94.5 41.5t-41.5 94.5zM532 1137q0 53 41 94t95 41q55 0 96 -41q39 -39 39 -94q0 -57 -39 -96.5t-96 -39.5q-55 0 -95 39q-41 42 -41 97z" />
<glyph unicode="&#xf8;" horiz-adv-x="1153" d="M90 70l98 127q-94 154 -94 350q0 338 232 495q111 74 254 74q150 0 262 -82l76 99l145 -105l-96 -127q96 -150 96 -354q0 -336 -232 -494q-115 -76 -251 -76q-147 0 -267 84l-75 -98zM371 547q0 -70 8 -111l328 424q-49 61 -127 62q-209 0 -209 -375zM449 236 q51 -63 131 -64q207 0 206 375q0 63 -8 115z" />
<glyph unicode="&#xf9;" horiz-adv-x="1218" d="M100 244l152 850h262l-133 -754q-4 -29 -4 -39q0 -98 119 -98q113 0 249 94l142 797h262l-193 -1094h-264l17 92q-201 -115 -371 -115q-182 0 -229 123q-14 40 -14 85q-1 29 5 59zM373 1593h295l88 -313h-195z" />
<glyph unicode="&#xfa;" horiz-adv-x="1218" d="M100 244l152 850h262l-133 -754q-4 -29 -4 -39q0 -98 119 -98q113 0 249 94l142 797h262l-193 -1094h-264l17 92q-201 -115 -371 -115q-182 0 -229 123q-14 40 -14 85q-1 29 5 59zM733 1280l199 313h292l-299 -313h-192z" />
<glyph unicode="&#xfb;" horiz-adv-x="1218" d="M100 244l152 850h262l-133 -754q-4 -29 -4 -39q0 -98 119 -98q113 0 249 94l142 797h262l-193 -1094h-264l17 92q-201 -115 -371 -115q-182 0 -229 123q-14 40 -14 85q-1 29 5 59zM299 1280l196 319h207l195 -319h-181l-118 147l-121 -147h-178z" />
<glyph unicode="&#xfc;" horiz-adv-x="1218" d="M100 244l152 850h262l-133 -754q-4 -29 -4 -39q0 -98 119 -98q113 0 249 94l142 797h262l-193 -1094h-264l17 92q-201 -115 -371 -115q-182 0 -229 123q-14 40 -14 85q-1 29 5 59zM230 1421q0 59 39 99q41 41 100 41q57 0 98 -41t41 -98.5t-41 -98.5q-43 -43 -98 -43 q-57 0 -100 43q-39 39 -39 98zM707 1421q0 57 41 98.5t98 41.5q59 0 100 -41t41 -98.5t-41 -98.5q-43 -43 -100 -43q-51 0 -98 43q-41 39 -41 98z" />
<glyph unicode="&#xfd;" horiz-adv-x="1083" d="M0 -283q274 92 381 316l-209 1057h272l123 -717l391 717h248l-604 -1094q-106 -190 -217 -287q-123 -108 -319 -160zM682 1280l199 313h292l-299 -313h-192z" />
<glyph unicode="&#xff;" horiz-adv-x="1083" d="M0 -283q274 92 381 316l-209 1057h272l123 -717l391 717h248l-604 -1094q-106 -190 -217 -287q-123 -108 -319 -160zM158 1421q0 59 39 99q41 41 100 41q57 0 98 -41t41 -98.5t-41 -98.5q-43 -43 -98 -43q-57 0 -100 43q-39 39 -39 98zM635 1421q0 57 41 98.5t98 41.5 q59 0 100 -41t41 -98.5t-41 -98.5q-43 -43 -100 -43q-51 0 -98 43q-41 39 -41 98z" />
<glyph unicode="&#x152;" horiz-adv-x="1865" d="M27 559q0 96 16 184q61 340 254 533q209 213 541 213h999l-39 -219h-584l-69 -389h483l-37 -219h-483l-80 -443h586l-39 -219h-1030q-240 0 -385 164q-133 151 -133 395zM309 592q0 -123 43 -215q72 -152 246 -152h160l182 1039h-160q-188 0 -317 -174 q-102 -137 -139 -347q-15 -73 -15 -151z" />
<glyph unicode="&#x153;" horiz-adv-x="1841" d="M111 547q61 340 317 495q123 74 266 74q211 0 318 -160q164 160 372 160q303 0 371 -293q18 -68 19 -151q0 -76 -21 -189h-688q-2 -23 -2 -61q0 -127 51 -189.5t152 -60.5q158 4 331 135l78 -141q-229 -188 -475 -189q-221 0 -334 160q-160 -160 -372 -160 q-295 0 -375 279q-37 127 -8 291zM371 387q0 -215 157 -215q209 0 273 375q16 92 16 153q0 221 -155 222q-209 0 -277 -375q-14 -84 -14 -160zM1104 668h403v45q0 211 -157 211q-174 0 -246 -256z" />
<glyph unicode="&#x178;" horiz-adv-x="1259" d="M41 1489h291l207 -627l430 627h278l-626 -911l-103 -578h-272l102 578zM252 1816q0 59 39 99q41 41 100 41q57 0 98 -41t41 -98.5t-41 -98.5q-43 -43 -98 -43q-57 0 -100 43q-39 39 -39 98zM729 1816q0 57 41 98.5t98 41.5q59 0 100 -41t41 -98.5t-41 -98.5 q-43 -43 -100 -43q-51 0 -98 43q-41 39 -41 98z" />
<glyph unicode="&#x2c6;" horiz-adv-x="1069" d="M236 1280l196 319h207l195 -319h-181l-118 147l-121 -147h-178z" />
<glyph unicode="&#x2da;" horiz-adv-x="1069" d="M512 1620q82 0 137 -55q57 -57 58 -140q0 -113 -99 -168q-47 -25 -96 -24q-115 0 -168 96q-27 49 -27 96q0 113 99 168q49 27 96 27zM512 1516q-37 0 -63.5 -27t-26.5 -64q0 -35 27 -61q29 -29 63 -29q37 0 63.5 27t26.5 63q0 39 -27 66q-24 25 -63 25z" />
<glyph unicode="&#x2dc;" horiz-adv-x="1069" d="M199 1284q37 258 213 258q51 0 157 -49q102 -47 152 -47q70 0 82 94h117q-6 -260 -209 -260q-51 0 -160 47q-113 49 -154 49q-70 0 -82 -92h-116z" />
<glyph unicode="&#x2000;" horiz-adv-x="1007" />
<glyph unicode="&#x2001;" horiz-adv-x="2017" />
<glyph unicode="&#x2002;" horiz-adv-x="1007" />
<glyph unicode="&#x2003;" horiz-adv-x="2017" />
<glyph unicode="&#x2004;" horiz-adv-x="671" />
<glyph unicode="&#x2005;" horiz-adv-x="503" />
<glyph unicode="&#x2006;" horiz-adv-x="335" />
<glyph unicode="&#x2007;" horiz-adv-x="335" />
<glyph unicode="&#x2008;" horiz-adv-x="251" />
<glyph unicode="&#x2009;" horiz-adv-x="401" />
<glyph unicode="&#x200a;" horiz-adv-x="110" />
<glyph unicode="&#x2010;" horiz-adv-x="839" d="M111 500l39 219h616l-39 -219h-616z" />
<glyph unicode="&#x2011;" horiz-adv-x="839" d="M111 500l39 219h616l-39 -219h-616z" />
<glyph unicode="&#x2012;" horiz-adv-x="839" d="M111 500l39 219h616l-39 -219h-616z" />
<glyph unicode="&#x2013;" horiz-adv-x="1024" d="M0 500v219h1024v-219h-1024z" />
<glyph unicode="&#x2014;" horiz-adv-x="2048" d="M0 500v219h2048v-219h-2048z" />
<glyph unicode="&#x2018;" horiz-adv-x="614" d="M92 997l279 492h190l-213 -492h-256z" />
<glyph unicode="&#x2019;" horiz-adv-x="614" d="M92 997l213 492h256l-278 -492h-191z" />
<glyph unicode="&#x201a;" horiz-adv-x="608" d="M76 -213l213 492h256l-279 -492h-190z" />
<glyph unicode="&#x201c;" horiz-adv-x="987" d="M92 997l279 492h188l-211 -492h-256zM469 997l276 492h191l-213 -492h-254z" />
<glyph unicode="&#x201d;" horiz-adv-x="987" d="M92 997l213 492h256l-278 -492h-191zM469 997l213 492h254l-279 -492h-188z" />
<glyph unicode="&#x201e;" horiz-adv-x="987" d="M80 -213l213 492h256l-281 -492h-188zM455 -213l213 492h254l-279 -492h-188z" />
<glyph unicode="&#x2022;" horiz-adv-x="927" d="M121 713q0 199 172 297q82 47 172 47q201 0 299 -172q45 -78 45 -172q0 -203 -170 -299q-82 -47 -174 -47q-201 0 -299 172q-45 78 -45 174z" />
<glyph unicode="&#x2026;" horiz-adv-x="2048" d="M197 0v279h288v-279h-288zM881 0v279h286v-279h-286zM1563 0v279h288v-279h-288z" />
<glyph unicode="&#x202f;" horiz-adv-x="401" />
<glyph unicode="&#x2039;" horiz-adv-x="620" d="M86 518l37 205l428 283l-39 -228l-242 -157l187 -156l-41 -229z" />
<glyph unicode="&#x203a;" horiz-adv-x="620" d="M98 236l41 229l242 156l-186 157l41 228l327 -283l-35 -205z" />
<glyph unicode="&#x205f;" horiz-adv-x="503" />
<glyph unicode="&#x20ac;" horiz-adv-x="1368" d="M2 510l27 145h180q10 96 31 179h-181l27 147h203q145 324 407 461q137 70 299 69q217 0 381 -131l-178 -168q-102 82 -237 82q-248 0 -381 -313h581l-26 -147h-607q-22 -86 -30 -179h606l-27 -145h-579q23 -207 133 -279q58 -37 135 -36q133 0 297 102l94 -172 q-211 -150 -440 -150q-286 0 -424 234q-74 123 -88 301h-203z" />
<glyph unicode="&#x2122;" horiz-adv-x="2236" d="M113 1307l32 182h781l-33 -182h-287l-131 -748h-209l131 748h-284zM940 559l164 930h291l133 -582l334 582h290l-163 -930h-205l108 629l-348 -629h-160l-129 629l-108 -629h-207z" />
<glyph unicode="&#xe000;" horiz-adv-x="1095" d="M0 1095h1095v-1095h-1095v1095z" />
<glyph unicode="&#xfb01;" horiz-adv-x="1380" d="M817 0l192 1094h265l-193 -1094h-264zM1042 1284l53 295h265l-54 -295h-264zM4 895l35 199h199l14 75q47 258 213 373q88 59 194 60q119 0 244 -72l-96 -176q-76 39 -127 39q-127 0 -168 -230l-10 -69h264l-37 -199h-262l-160 -895h-262l158 895h-199z" />
<glyph unicode="&#xfb02;" horiz-adv-x="1429" d="M864 195q0 76 12 139l219 1245h265l-211 -1196q-13 -69 -13 -112q0 -26 4 -42q14 -51 80 -51q41 0 90 21l37 -172q-127 -51 -241 -52q-156 0 -209 76q-33 48 -33 144zM4 895l35 199h199l14 75q47 258 213 373q88 59 194 60q119 0 244 -72l-96 -176q-76 39 -127 39 q-127 0 -168 -230l-10 -69h264l-37 -199h-262l-160 -895h-262l158 895h-199z" />
<glyph unicode="&#xfb03;" horiz-adv-x="2162" d="M1600 0l192 1094h265l-193 -1094h-264zM1825 1284l53 295h265l-54 -295h-264zM786 895l35 199h199l14 75q47 258 213 373q88 59 194 60q119 0 244 -72l-96 -176q-76 39 -127 39q-127 0 -168 -230l-10 -69h264l-37 -199h-262l-160 -895h-262l158 895h-199zM4 895l35 199 h199l14 75q47 258 213 373q88 59 194 60q119 0 244 -72l-96 -176q-76 39 -127 39q-127 0 -168 -230l-10 -69h264l-37 -199h-262l-160 -895h-262l158 895h-199z" />
<glyph unicode="&#xfb04;" horiz-adv-x="2211" d="M1647 195q0 76 12 139l219 1245h265l-211 -1196q-13 -69 -13 -112q0 -26 4 -42q14 -51 80 -51q41 0 90 21l37 -172q-127 -51 -241 -52q-156 0 -209 76q-33 48 -33 144zM786 895l35 199h199l14 75q47 258 213 373q88 59 194 60q119 0 244 -72l-96 -176q-76 39 -127 39 q-127 0 -168 -230l-10 -69h264l-37 -199h-262l-160 -895h-262l158 895h-199zM4 895l35 199h199l14 75q47 258 213 373q88 59 194 60q119 0 244 -72l-96 -176q-76 39 -127 39q-127 0 -168 -230l-10 -69h264l-37 -199h-262l-160 -895h-262l158 895h-199z" />
</font>
</defs>
</svg>
