<?xml version="1.0" standalone="no"?>
<!DOCTYPE svg PUBLIC "-//W3C//DTD SVG 1.1//EN" "http://www.w3.org/Graphics/SVG/1.1/DTD/svg11.dtd" >
<svg xmlns="http://www.w3.org/2000/svg">
<metadata>
This is a custom SVG webfont generated by Font Squirrel.
Copyright   : Copyright c 2011 by Ana Sanfelippo anasanfegmailcom Reserved Font Names Almendra Almendra SC
Designer    : Ana Sanfelippo
Foundry     : Ana Sanfelippo
</metadata>
<defs>
<font id="AlmendraSCRegular" horiz-adv-x="972" >
<font-face units-per-em="2048" ascent="1638" descent="-410" />
<missing-glyph horiz-adv-x="368" />
<glyph unicode=" "  horiz-adv-x="368" />
<glyph unicode="&#x09;" horiz-adv-x="368" />
<glyph unicode="&#xa0;" horiz-adv-x="368" />
<glyph unicode="!" horiz-adv-x="462" d="M106 94q12 25 47 56.5t64 46.5q27 -16 62 -48t49 -55q-14 -27 -50 -67.5t-61 -57.5q-25 16 -60.5 57.5t-50.5 67.5zM147 1391q25 12 78.5 24t79.5 10q23 -20 66 -82q-96 -342 -127 -970l-54 -4z" />
<glyph unicode="&#x22;" horiz-adv-x="645" d="M129 1329q25 12 78 24.5t80 10.5l24 -27q-63 -164 -94 -448l-61 -4zM406 1329q25 12 78 24.5t79 10.5l25 -27q-63 -164 -94 -448l-62 -4z" />
<glyph unicode="#" horiz-adv-x="1126" d="M82 309l20 107l95 -8q37 -4 145 -9l33 265l-221 6l-17 12l21 109l92 -9q33 -4 137 -8l53 428q39 0 90 10l9 -6q-43 -229 -68 -436q68 -4 223 -8l54 440q39 0 90 10l8 -6q-43 -231 -68 -444v-2q205 -4 252 -2l14 -13l-20 -98l-260 6l-31 -268q197 -4 242 -2l14 -10 l-20 -101l-248 7l-55 -467h-11q-49 10 -84 43q37 203 64 426l-221 6l-56 -475h-10q-49 10 -84 43q37 203 64 426v8l-230 6zM426 395q66 -4 221 -8l33 268l-221 7z" />
<glyph unicode="$" horiz-adv-x="921" d="M113 23v26q76 94 88 230h45q0 -80 4 -125q84 -45 178 -52l18 357q-80 47 -126 77.5t-88 76.5t-42 87q0 88 85 186.5t208 160.5l6 157q33 4 56 13l8 -7q-12 -72 -14 -139q156 0 284 -33v-28q-76 -94 -88 -232h-45q0 82 -6 129q-78 29 -152 31l-12 -301q68 -39 100.5 -60.5 t82 -57.5t71 -67.5t21.5 -64.5q0 -106 -89.5 -215t-226.5 -176l-2 -184h-10q-35 10 -55 30l10 127q-162 0 -309 54zM313 817q0 -53 156 -149l10 268q-166 -19 -166 -119zM483 102q80 8 134.5 48t54.5 120q0 55 -174 158z" />
<glyph unicode="%" horiz-adv-x="1523" d="M70 797q29 180 119 275t176 95q45 0 233 -30.5t330 -30.5q129 0 176 78l12 20q78 4 133 21l6 -6q-139 -199 -297 -445l-624 -979h-10q-53 25 -80 66q207 281 250 348l358 561q98 147 192 309l-8 2q-49 -51 -141 -51q-121 0 -363 74l-6 -6q96 -90 127 -262 q-29 -180 -116.5 -275.5t-171.5 -95.5q-98 0 -182 87t-113 245zM217 817q0 -92 41 -178t107 -111q68 25 106.5 110t38.5 179t-39 179t-106 110q-66 -25 -107 -111t-41 -178zM870 301q29 180 119 275.5t176 95.5q96 0 178 -87t111 -245q-29 -180 -117 -275.5t-172 -95.5 q-98 0 -182 87t-113 245zM1018 321.5q0 -92.5 40.5 -178t106.5 -110.5q68 25 107 109.5t39 179t-39 179.5t-107 109q-66 -25 -106.5 -110.5t-40.5 -178z" />
<glyph unicode="&#x26;" horiz-adv-x="1232" d="M102 379q0 141 119 235.5t271 94.5v8q-139 8 -232.5 77.5t-93.5 192.5q74 131 195.5 235.5t261.5 141.5q145 0 286 -39q33 16 84 64l43 -29q-135 -164 -166 -391h-53q0 112 -10 190q-98 57 -236 58q-133 0 -217 -70q-14 -193 71 -285t277 -92q287 0 519 66l10 -11 q-20 -66 -27 -151l-6 -8q-94 12 -211 16v-307q0 -125 -117.5 -243t-257.5 -163q-219 0 -364.5 106.5t-145.5 303.5zM295 422q0 -150 98.5 -228.5t247.5 -78.5q117 0 193 49q14 28 14 94q0 219 -29 424h-151q-162 0 -267.5 -62.5t-105.5 -197.5z" />
<glyph unicode="'" horiz-adv-x="368" d="M129 1329q25 12 78 24.5t80 10.5l24 -27q-63 -164 -94 -448l-61 -4z" />
<glyph unicode="(" horiz-adv-x="608" d="M98 537q0 276 108.5 514.5t305.5 404.5l20 -20q-287 -391 -286 -899q0 -260 73.5 -513t212.5 -444l-20 -20q-193 164 -303.5 427t-110.5 550z" />
<glyph unicode=")" horiz-adv-x="608" d="M76 -420q139 190 212.5 443t73.5 514q0 508 -286 899l20 20q197 -166 305.5 -404.5t108.5 -514.5q0 -287 -110.5 -550t-303.5 -427z" />
<glyph unicode="*" horiz-adv-x="759" d="M88 952q0 6 51 72l-17 18q-16 15 -20 23l2 4q113 -4 236 51q-131 55 -236 51l-2 5q4 8 19.5 23t17.5 18q-2 4 -17.5 21t-24.5 29.5t-9 20.5q10 6 88 -8q0 2 6 23.5t11 29.5h6q53 -98 159 -178q-18 133 -73 229l4 5q6 0 27.5 -6.5t25.5 -6.5q27 74 37 80q10 -4 37 -80 q4 0 25.5 6.5t27.5 6.5l4 -5q-59 -96 -74 -229q106 80 160 178h6q4 -8 10.5 -29.5t6.5 -23.5q78 14 88 8q0 -6 -52 -71l18 -17q15 -16 19 -24l-2 -5q-106 4 -237 -51q123 -55 237 -51l2 -4q-4 -8 -19 -23.5t-18 -17.5q2 -4 17.5 -21.5t25 -29.5t9.5 -21q-10 -6 -88 9 q0 -2 -6.5 -24t-10.5 -30h-6q-55 100 -160 178q14 -133 74 -229l-4 -4q-6 0 -27.5 6t-25.5 6q-27 -74 -37 -80q-10 4 -37 80q-4 0 -25.5 -6t-27.5 -6l-4 4q57 96 73 229q-104 -78 -159 -178h-6q-4 8 -10.5 29.5t-6.5 24.5q-78 -14 -88 -9z" />
<glyph unicode="+" horiz-adv-x="1126" d="M119 469l18 104q250 -12 379 -14v416l96 18l11 -12q-10 -272 -11 -422v-2q76 -2 228 -2q94 0 174 6l12 -12l-18 -94h-396q0 -260 19 -455l-94 -18l-21 14v459h-381z" />
<glyph unicode="," horiz-adv-x="436" d="M74 -264q43 51 77.5 126t36.5 130q-53 49 -82 102q12 25 47 56.5t64 46.5q27 -16 62 -48t49 -55q0 -102 -70 -208.5t-164 -170.5z" />
<glyph unicode="-" horiz-adv-x="585" d="M57 496l13 94h94q180 0 352 20l16 -10l-12 -86l-444 -31z" />
<glyph unicode="." horiz-adv-x="434" d="M106 94q12 25 47 56.5t64 46.5q27 -16 62 -48t49 -55q-14 -27 -50 -67.5t-61 -57.5q-25 16 -60.5 57.5t-50.5 67.5z" />
<glyph unicode="/" horiz-adv-x="724" d="M33 -23q92 205 162 388l233 612q82 213 160 453q57 4 112 16l9 -6q-53 -121 -170 -434l-414 -1090h-10q-47 20 -82 61z" />
<glyph unicode="0" d="M41 500q53 283 187 440.5t259 157.5q143 0 266.5 -144.5t180.5 -390.5q-53 -283 -187.5 -438.5t-259.5 -155.5q-143 0 -266 142.5t-180 388.5zM238 532.5q0 -163.5 66.5 -307t182.5 -186.5q117 43 183.5 186.5t66.5 307t-66.5 307t-183.5 186.5q-117 -43 -183 -186.5 t-66 -307z" />
<glyph unicode="1" d="M270 901q0 27 6 39q160 37 275 152q25 6 57 6l8 -4q-29 -168 -28 -531v-112q0 -274 14 -383q59 -14 121 -41l-6 -39q-104 12 -209 12q-100 0 -215 -16l-4 39q72 26 129 38q18 152 18 390v112q0 211 -6 334h-156z" />
<glyph unicode="2" d="M74 -14q39 96 132 211.5t178 201.5t152.5 196t67.5 204q0 172 -192 172q-72 0 -136 -29q-14 -25 -14 -70q0 -37 21 -55l-2 -14q-53 -33 -99 -82q-25 2 -39 19.5t-14 39.5q0 94 113.5 189.5t228.5 128.5q184 0 260 -86t76 -281q-166 -258 -537 -561l4 -14q31 16 54 22 q188 6 432 -26q20 45 47 118l43 -14q-23 -80 -23 -150q0 -61 15 -120l-25 -17q-362 70 -649 68q-33 -39 -53 -70z" />
<glyph unicode="3" d="M80 49v27q78 88 88 229h45q0 -80 4 -125q49 -35 130 -59.5t142 -24.5q86 0 127 49q27 61 27 154q0 135 -77 208t-214 73l-8 12l277 326l-5 8q-31 -14 -55 -21q-119 0 -301 15q-18 -47 -41 -125l-43 14q14 82 14 133q0 70 -20 137l23 19q246 -55 573 -56q51 33 74 56 l34 -31q-80 -74 -362 -367q311 -51 311 -381q-43 -106 -152.5 -208.5t-219.5 -141.5q-84 0 -190.5 22.5t-180.5 57.5z" />
<glyph unicode="4" d="M27 313q176 201 290.5 363t219.5 371q86 20 149 51l16 -8q-26 -158 -26 -373q0 -258 2 -330q78 0 109.5 15.5t56.5 74.5l33 -6q-18 -92 -19 -188l-8 -4q-72 6 -170 6q0 -96 16 -217q43 -23 105 -37l-8 -41q-117 10 -207 10q-100 0 -228 -25l-6 41q70 31 162 54 q14 117 14 215h-493zM242 410q131 -14 286 -17l7 488h-15q-104 -229 -278 -471z" />
<glyph unicode="5" d="M102 49v27q78 88 88 229h46q0 -80 4 -125q49 -35 130 -59.5t142 -24.5q86 0 127 49q27 63 27 154q0 135 -77 208t-212 73q-80 0 -144 -35l-24 18l20 309q8 137 -4 220l43 8q10 -37 19 -56q262 8 469 54l22 -19q-25 -72 -24 -161q0 -49 10 -111l-45 -10q-19 76 -37 123 q-143 -14 -313 -15l-47 21l-9 -11l-22 -268q80 45 149 62q195 -4 300.5 -102.5t105.5 -287.5q-43 -106 -152.5 -208.5t-220.5 -141.5q-84 0 -190.5 22.5t-180.5 57.5z" />
<glyph unicode="6" d="M156 334q0 240 162.5 448.5t396.5 315.5l26 -37q-180 -129 -291.5 -299.5t-111.5 -360.5q0 -135 52 -220t165 -85q100 0 141 49q31 78 31 154q0 125 -70.5 188.5t-197.5 63.5q-31 0 -62 -6v14q66 47 117 105q184 0 288.5 -86t104.5 -259q-45 -104 -165.5 -211.5 t-229.5 -138.5q-172 0 -264 96.5t-92 268.5z" />
<glyph unicode="7" d="M193 1079l22 19q209 -43 592 -56q20 23 37 48l39 -23q-139 -207 -230 -395q-168 -350 -170 -598q98 -18 164 -45l-4 -41q-135 14 -229 12q-117 -4 -205 -23l-10 41q65 20 102 43q14 152 78.5 296.5t202.5 361.5l131 205l-6 8q-29 -12 -56 -21q-256 0 -362 11 q-18 -47 -37 -123l-45 10q10 61 10 111q0 88 -24 159z" />
<glyph unicode="8" d="M127 238q0 137 240 301q-195 121 -195 290q47 76 163 161t202 108q119 0 201.5 -52.5t82.5 -152.5q0 -125 -223 -283q63 -33 101 -56.5t81 -60t63.5 -81.5t20.5 -101q-43 -113 -153.5 -207t-233.5 -135q-141 0 -245.5 73t-104.5 196zM279 291q0 -90 71.5 -142.5 t169.5 -52.5q94 0 139 49q25 50 25 105q0 37 -13.5 66.5t-47 57t-59 44t-81 47.5t-77.5 45q-68 -51 -97.5 -99.5t-29.5 -119.5zM350 864q0 -125 205 -227q59 53 87 97t28 106q0 131 -176 131q-90 0 -134 -47q-10 -31 -10 -60z" />
<glyph unicode="9" d="M66 748q45 104 165.5 211.5t229.5 138.5q172 0 264 -96.5t92 -268.5q0 -240 -162.5 -448.5t-396.5 -315.5l-27 37q180 129 292 299.5t112 360.5q0 135 -52.5 220t-164.5 85q-100 0 -142 -49q-31 -78 -30 -154q0 -125 69.5 -188.5t198.5 -63.5q31 0 61 6v-14 q-66 -47 -116 -105q-184 0 -288.5 86t-104.5 259z" />
<glyph unicode=":" horiz-adv-x="434" d="M106 94q12 25 47 56.5t64 46.5q27 -16 62 -48t49 -55q-14 -27 -50 -67.5t-61 -57.5q-25 16 -60.5 57.5t-50.5 67.5zM106 891q12 25 47 56.5t64 45.5q27 -16 62 -47.5t49 -54.5q-14 -27 -50 -68t-61 -57q-25 16 -60.5 57t-50.5 68z" />
<glyph unicode=";" horiz-adv-x="434" d="M74 -264q43 51 77.5 126t36.5 130q-53 49 -82 102q12 25 47 56.5t64 46.5q27 -16 62 -48t49 -55q0 -102 -70 -208.5t-164 -170.5zM106 891q12 25 47 56.5t64 45.5q27 -16 62 -47.5t49 -54.5q-14 -27 -50 -68t-61 -57q-25 16 -60.5 57t-50.5 68z" />
<glyph unicode="&#x3c;" horiz-adv-x="1126" d="M106 455l29 131q115 35 381 135q254 96 455 199l49 -95l-10 -20l-736 -285v-8l736 -283l10 -20l-53 -96q-190 94 -451 198q-211 85 -410 144z" />
<glyph unicode="=" horiz-adv-x="1126" d="M109 311l18 105q348 -18 702 -19q94 0 175 6l12 -12l-19 -94h-872zM109 627l18 104q348 -18 702 -18q94 0 175 6l12 -12l-19 -95h-872z" />
<glyph unicode="&#x3e;" horiz-adv-x="1126" d="M106 209l11 20l735 283v8l-735 285l-11 20l50 95q201 -102 454 -199q266 -100 381 -135l29 -131q-199 -59 -410 -144q-260 -104 -450 -198z" />
<glyph unicode="?" horiz-adv-x="686" d="M35 1108q0 94 109.5 189.5t222.5 127.5q166 0 242.5 -79.5t76.5 -245.5q-129 -184 -324 -379q-14 -182 -22 -348l-53 -4l-43 284v39q246 246 245 455q0 76 -49 113.5t-131 37.5q-70 0 -127 -28q-14 -25 -14 -70q0 -37 20 -55l-2 -15q-53 -33 -98 -81q-25 2 -39 19t-14 40 zM199 100q12 25 47 56.5t63 46.5q27 -16 62 -48t49 -55q-14 -27 -50 -67.5t-61 -57.5q-25 16 -60.5 57.5t-49.5 67.5z" />
<glyph unicode="@" horiz-adv-x="1761" d="M113 317q0 412 231 702t627 345q715 0 715 -621q0 -305 -148.5 -522t-388.5 -252l-14 6q-72 141 -64 398q-76 10 -166 10q-102 0 -157 -10q-35 -143 -35 -217q0 -90 71 -131l-8 -35q-47 10 -162 10q-154 0 -223 -16l-8 53q61 20 135 33l248 866q-109 18 -158 33l6 53 q180 -23 353 -23q219 0 399 23l8 -53q-51 -23 -127 -37q-23 -211 -22 -393q0 -346 45 -465l12 -6q135 74 203.5 243.5t68.5 362.5q0 588 -616 588q-209 0 -363 -95q-150 -143 -238.5 -370.5t-88.5 -444.5q0 -307 147.5 -473t442.5 -166q127 0 243 45l15 -26 q-123 -86 -275 -121q-360 0 -534 173t-174 533zM766 469q61 -12 139 -12q113 0 166 12q0 344 -16 446q-39 6 -92 7q-37 0 -91 -4z" />
<glyph unicode="A" horiz-adv-x="1226" d="M-111 35q92 29 197 43l324 1147q-242 0 -310 -66q-14 -29 -14 -94q0 -57 20 -80l-2 -14q-51 -31 -102 -86q-25 2 -40 20.5t-15 42.5q0 100 121 239.5t225 176.5q309 -35 627 -59q29 37 47 94l43 -13q-29 -143 -39 -294.5t-10 -485.5q0 -338 26 -534q109 -10 225 -39 l-6 -49q-152 16 -319 16q-186 0 -295 -16l-8 51q92 29 196 43q16 135 23 436q-106 12 -209 12q-154 0 -242 -12q-49 -201 -49 -307q0 -135 88 -187l-8 -28q-63 8 -197 8q-168 0 -288 -16zM375 616q92 -14 219 -14q125 0 209 14q0 362 -10 592l-7 6q-106 10 -264 11 l-114 -473z" />
<glyph unicode="B" horiz-adv-x="1179" d="M-205 948q0 94 107.5 223t206.5 179q173 -17 503 -17q78 0 128.5 -3t109.5 -15t93 -36t57.5 -68t23.5 -107q0 -109 -80 -202t-194 -140v-8q147 0 239 -69t92 -202q0 -164 -153.5 -315.5t-331.5 -198.5q-127 0 -299 78q-35 -53 -47 -92l-43 10q49 223 49 701 q0 182 -16 559q-227 -4 -291 -66q-14 -29 -15 -94q0 -57 21 -80l-2 -14q-51 -31 -103 -86q-25 2 -40 20.5t-15 42.5zM414 666q0 -313 10 -492q106 -57 242 -57q109 0 180 49q47 100 47 225q0 316 -389 316l10 75h25q152 0 219 43q73 81 73 213q0 121 -68.5 157t-213.5 36 q-74 0 -119 -6q-16 -207 -16 -559z" />
<glyph unicode="C" horiz-adv-x="1019" d="M86 420q0 221 52 406.5t181.5 334t321.5 203.5q207 0 422 -39l-2 -45q-53 0 -98 -18q-51 -121 -68 -289h-51q-18 96 -19 184q-109 59 -235 60q-133 0 -217 -78q-104 -211 -105 -543q0 -106 6.5 -191.5t29 -178.5t60 -154.5t104.5 -101.5t157 -40q88 0 179 52.5t152 130.5 l29 -29q-150 -233 -405 -320q-176 0 -289 90.5t-159 231.5t-46 334z" />
<glyph unicode="D" horiz-adv-x="1269" d="M-205 948q0 94 107.5 223t206.5 179q174 -16 516 -17q559 0 559 -542q0 -285 -149.5 -516.5t-405.5 -305.5q-147 0 -330 78q-35 -53 -47 -92l-43 10q49 223 49 701q0 360 -18 559q-227 -4 -291 -66q-14 -29 -15 -94q0 -57 21 -80l-2 -14q-51 -31 -103 -86q-25 2 -40 20.5 t-15 42.5zM416 666q0 -313 10 -492q111 -57 270 -57q123 0 201 69q104 190 104 469q0 283 -86.5 432.5t-322.5 149.5q-94 0 -158 -10q-18 -193 -18 -561z" />
<glyph unicode="E" horiz-adv-x="1050" d="M102 379q0 141 119 235.5t271 94.5v8q-139 8 -232.5 77.5t-93.5 192.5q74 131 195.5 235.5t261.5 141.5q145 0 286 -39q33 16 84 64l43 -29q-135 -164 -166 -391h-53q0 112 -10 190q-98 57 -236 58q-133 0 -217 -70q-2 -29 -2 -56q0 -327 350 -327l-10 -76h-24 q-162 0 -267.5 -64.5t-105.5 -201.5q0 -150 98.5 -228.5t247.5 -78.5q117 0 193 49q14 29 14 94q0 57 -21 80l2 14q51 31 103 86q25 -2 40 -20.5t15 -42.5q0 -125 -117.5 -243t-257.5 -163q-219 0 -364.5 106.5t-145.5 303.5z" />
<glyph unicode="F" horiz-adv-x="999" d="M-225 948q0 100 120.5 239.5t225.5 176.5q143 -6 335 -24.5t292 -18.5q162 0 223 63l39 -20q-88 -160 -103 -373h-51q-18 88 -18 223q-53 -16 -150 -16q-63 0 -248 16q-16 -152 -16 -464q88 -16 172 -17q160 0 203 88l41 -8q-18 -66 -19 -158q0 -89 13 -178l-48 -8 q-31 78 -41 182q-78 6 -149 6q-90 0 -172 -10q2 -418 27 -575q102 -10 225 -39l-6 -49q-152 16 -320 16q-186 0 -295 -16l-8 51q92 29 197 43q22 161 22 498v30v121q0 203 -24 498h-4q-242 0 -310 -66q-14 -29 -14 -94q0 -57 20 -80l-2 -14q-51 -31 -102 -86q-25 2 -40 20.5 t-15 42.5z" />
<glyph unicode="G" horiz-adv-x="1140" d="M86 543q0 283 150.5 517t404.5 304q213 0 428 -39l-2 -45q-51 0 -98 -18q-55 -129 -68 -289h-51q-18 84 -19 190q-96 53 -241 54q-133 0 -217 -70q-104 -178 -105 -453q1 -559 357 -559q96 0 200 58v167q0 47 -8 138q-72 20 -186 41l6 43q47 -6 90 -7q180 0 330 101 l18 -37q-47 -37 -74 -74q-39 -356 -40 -665q-59 -109 -195.5 -209.5t-249.5 -100.5q-31 0 -51.5 16.5t-20.5 45.5q59 45 101 104l14 2q44 -34 117 -34h4q43 0 65 12q84 113 84 368q-113 -88 -249 -135q-246 0 -370 155t-124 419z" />
<glyph unicode="H" horiz-adv-x="1449" d="M-221 944q0 100 120.5 239.5t225.5 176.5q16 0 147 -13.5t209 -13.5q72 0 135 13l9 -52q-80 -31 -183 -55q-14 -154 -18 -457q156 -20 305 -20q158 0 297 18q-2 367 -18 557q39 125 189.5 272.5t262.5 147.5q25 0 44.5 -15.5t19.5 -39.5q-55 -51 -86 -103l-15 -2 q-23 20 -80 21q-66 0 -94 -14q-65 -76 -65 -269v-729q0 -383 26 -534q109 -10 226 -39l-6 -49q-131 16 -320 16q-170 0 -295 -16l-8 51q92 29 197 43q20 207 22 594q-152 14 -297 14q-154 0 -305 -14q2 -438 27 -600q109 -10 225 -39l-6 -49q-152 16 -320 16 q-186 0 -295 -16l-8 51q92 29 197 43q22 161 22 498v30v121q0 268 -22 494h-2q-242 0 -310 -66q-14 -29 -14 -94q0 -57 21 -80l-2 -14q-51 -31 -103 -86q-25 2 -40 20.5t-15 42.5z" />
<glyph unicode="I" horiz-adv-x="690" d="M43 1298l8 52q109 -16 295 -17q168 0 320 17l6 -50q-117 -28 -226 -38q-22 -148 -22 -504v-31q0 -459 27 -655q109 -10 225 -39l-6 -49q-152 16 -320 16q-186 0 -295 -16l-8 51q92 29 197 43q22 161 22 498v30v121q0 332 -26 528q-104 14 -197 43z" />
<glyph unicode="J" horiz-adv-x="690" d="M-215 944q0 100 121 239.5t225 176.5q16 0 147.5 -13.5t208.5 -13.5q70 0 136 13l8 -52q-80 -31 -182 -55q-25 -221 -25 -512v-121q0 -379 16 -538q-137 -276 -506 -439l-24 43q195 133 275.5 275.5t80.5 367.5v412q0 309 -18 494q-242 0 -309 -66q-14 -29 -15 -94 q0 -57 21 -80l-2 -14q-51 -31 -103 -86q-25 2 -40 20.5t-15 42.5z" />
<glyph unicode="K" horiz-adv-x="1241" d="M-221 944q0 100 120.5 239.5t225.5 176.5q16 0 147 -13.5t209 -13.5q72 0 135 13l9 -52q-80 -31 -183 -55q-18 -188 -18 -522v-113q178 188 275.5 319.5t119 186.5t21.5 109q0 59 -35 94l8 28q63 -8 141 -8q158 0 279 17l8 -52q-92 -29 -197 -43q-18 -174 -299 -442 l357 -766q80 -172 174 -215q37 0 90 26.5t66 53.5l12 4q55 -37 123 -57q6 -12 6 -27q0 -29 -34 -48.5t-95 -19.5q-129 0 -304 72t-243 148q-45 199 -100.5 346t-167.5 375q-115 -104 -205 -179q6 -311 27 -454q109 -10 225 -39l-6 -49q-152 16 -320 16q-186 0 -295 -16 l-8 51q92 29 197 43q22 161 22 498v30v121q0 268 -22 494h-2q-242 0 -310 -66q-14 -29 -14 -94q0 -57 21 -80l-2 -14q-51 -31 -103 -86q-25 2 -40 20.5t-15 42.5z" />
<glyph unicode="L" horiz-adv-x="933" d="M43 1298l8 52q109 -16 295 -17q168 0 320 17l6 -50q-123 -29 -226 -38q-26 -181 -26 -535q0 -430 16 -614q70 -4 131 -4q242 0 310 65q14 29 14 94q0 57 -21 80l2 14q51 31 103 87q25 -2 40 -20.5t15 -43.5q0 -100 -121 -239.5t-225 -176.5q-176 6 -381 60 q-29 -37 -47 -95l-43 13q43 207 49 678v102q0 358 -22 528q-104 14 -197 43z" />
<glyph unicode="M" horiz-adv-x="1769" d="M-94 944q0 100 120.5 239.5t225.5 176.5q16 0 147 -13.5t209 -13.5q68 0 133 13l9 -52q-84 -33 -84 -63q0 -129 159 -627l66 -205l14 4q2 43 254 844q0 20 -22.5 40t-46.5 26l6 28q102 -8 233 -8q225 0 332 17l10 -52q-98 -31 -198 -43q-10 -49 -11 -145 q0 -156 34 -534.5t63 -503.5q109 -10 225 -39l-6 -49q-152 16 -320 16q-184 0 -293 -16l-8 51q92 29 197 43q0 195 -22.5 536.5t-57.5 585.5l-6 2q-293 -811 -307 -987q-133 -80 -199 -156l-25 17q4 45 4 67q0 240 -268 1059l-8 -2l-64 -448q-41 -293 -41 -529 q0 -76 17.5 -125t71.5 -78l-9 -28q-63 8 -200 8q-168 0 -289 -16l-8 51q92 29 196 43l230 1143q-242 0 -310 -66q-14 -29 -14 -94q0 -57 21 -80l-3 -14q-51 -31 -102 -86q-25 2 -40 20.5t-15 42.5z" />
<glyph unicode="N" horiz-adv-x="1445" d="M-221 944q0 100 120.5 239.5t225.5 176.5q25 -2 138.5 -14.5t189.5 -12.5q72 0 135 13l8 -52q-84 -35 -84 -67q10 -55 116.5 -232.5t434.5 -687.5l8 4v295q0 350 -30.5 513t-116.5 194l8 28q63 -8 192 -8q158 0 279 17l6 -47q-145 -35 -203 -41q-26 -194 -26 -511v-24 v-121q0 -383 26 -534q104 -12 197 -37l-8 -51q-109 16 -258 16q-70 0 -138 -6q0 68 -133 301t-483 780l-8 -4v-344q0 -502 76 -655q113 -10 223 -39l-4 -49q-152 16 -320 16q-186 0 -295 -16l-8 51q92 29 197 43q22 161 22 498v30v121q0 289 -24 494q-242 0 -310 -66 q-14 -29 -14 -94q0 -57 21 -80l-2 -14q-51 -31 -103 -86q-25 2 -40 20.5t-15 42.5z" />
<glyph unicode="O" horiz-adv-x="1232" d="M86 543q0 418 303 692l25 -16q-145 -211 -146 -525q0 -223 103.5 -400t287.5 -177q121 0 203 71q102 188 103 447q0 156 -29 281.5t-99.5 213t-174.5 87.5q-53 0 -98.5 -31t-63.5 -80q0 -41 18.5 -95.5t46.5 -68.5l4 -14q-45 -55 -67 -117q-4 -2 -17 -2q-74 0 -73 131 q0 221 229 424q250 0 378 -149.5t128 -421.5q0 -283 -140.5 -505t-390.5 -319q-240 0 -385 159t-145 415z" />
<glyph unicode="P" horiz-adv-x="1048" d="M-195 948q0 94 107.5 223t206.5 179q174 -16 545 -17q197 0 296 -71.5t99 -249.5q0 -182 -149.5 -295t-348.5 -113q-31 0 -45 2l8 66h25q154 0 235.5 77.5t81.5 231.5q0 139 -68.5 194.5t-217.5 55.5q-78 0 -140 -6q-16 -182 -16 -559q0 -412 25 -594q109 -10 225 -39 l-6 -49q-152 16 -320 16q-186 0 -295 -16l-8 51q93 29 197 43q24 162 24 556v32q0 338 -20 559q-223 -4 -287 -66q-14 -29 -14 -94q0 -57 20 -80l-2 -14q-51 -31 -102 -86q-25 2 -40.5 20.5t-15.5 42.5z" />
<glyph unicode="Q" horiz-adv-x="1232" d="M109 612q0 258 146 471t386 281q250 0 378 -149.5t128 -421.5q0 -268 -126 -477.5t-366 -315.5q117 -39 355.5 -171t312.5 -132q43 0 72.5 51t29.5 102l9 15q67 0 133 20q25 -18 24 -45q0 -63 -106.5 -124.5t-229 -93.5t-198.5 -32q-420 295 -625 295q-129 0 -219 -69 l-35 32q57 51 152.5 105.5t171.5 79.5q14 0 69 -10q393 207 394 612q0 119 -20.5 219t-63.5 184t-122 131.5t-186 47.5q-123 0 -200 -70q-88 -152 -88 -379q0 -479 243 -479q53 0 98.5 30.5t63.5 79.5q0 41 -18.5 95.5t-46.5 68.5l-4 15q45 55 67 116q4 2 17 2q74 0 73 -131 q0 -221 -229 -424q-213 0 -326.5 125t-113.5 346z" />
<glyph unicode="R" horiz-adv-x="1267" d="M-166 948q0 94 107.5 223t205.5 179q174 -16 504 -17q209 0 317.5 -62.5t108.5 -238.5q0 -250 -256 -348l287 -606q104 -14 197 -43l-9 -51q-121 16 -288 16q-113 0 -177 -8l-8 28q35 35 35 117q0 164 -192 522q-51 10 -119 11l6 45h25q147 0 227 72.5t80 213.5 q0 135 -72 182.5t-225 47.5q-72 0 -119 -6q-16 -182 -16 -559q0 -434 22 -588q104 -14 197 -43l-8 -51q-109 16 -295 16q-168 0 -320 -16l-6 49q116 29 225 39q27 197 27 594q0 338 -21 559q-223 -4 -286 -66q-14 -29 -15 -94q0 -57 21 -80l-2 -14q-51 -31 -103 -86 q-25 2 -40 20.5t-15 42.5z" />
<glyph unicode="S" horiz-adv-x="952" d="M23 25q0 180 78.5 311t164.5 131q23 0 45 -14l6 -15q-27 -51 -32 -129l-13 -8q-8 4 -20 4q-33 0 -77 -24.5t-69 -49.5q-14 -29 -14 -65q0 -96 130 -165t251 -69q252 0 252 287q0 61 -60.5 133t-146.5 140l-172 138q-86 68 -146.5 144t-60.5 141q0 143 129 267.5 t293 181.5q176 0 334 -35v-41q-106 -98 -119 -303h-51q0 109 -10 191q-88 41 -207 41q-88 0 -160 -44.5t-72 -117.5q0 -61 60.5 -130t146.5 -133.5t171 -131t145.5 -143.5t60.5 -148q0 -205 -112.5 -365t-307.5 -240q-255 27 -409 144q-8 57 -8 117z" />
<glyph unicode="T" horiz-adv-x="1062" d="M-88 948q0 100 121 239.5t225 176.5q141 -6 324.5 -24.5t271.5 -18.5q68 0 107 12q94 90 133 137l32 -24q-109 -141 -131 -295l-67 18q-135 37 -303 50q-14 -223 -15 -492q0 -459 27 -655q102 -10 225 -39l-6 -49q-152 16 -319 16q-186 0 -295 -16l-9 51q92 29 197 43 q23 168 23 528v121q0 203 -25 498h-53q-242 0 -309 -66q-14 -29 -15 -94q0 -57 21 -80l-2 -14q-51 -31 -103 -86q-25 2 -40 20.5t-15 42.5z" />
<glyph unicode="U" horiz-adv-x="1361" d="M-229 944q0 100 120.5 239.5t225.5 176.5q47 -2 123.5 -14.5t136.5 -12.5q68 0 125 8l8 -28q-92 -51 -107 -189q-28 -249 -28 -539v-20q0 -100 10 -170.5t40 -133t91.5 -94.5t153.5 -32q156 0 258 94q10 266 10 435q0 365 -23 598q-104 14 -196 43l8 45q125 -16 291 -17 q193 0 323 17l7 -43q-117 -29 -226 -39q-26 -147 -26 -514v-27v-121q0 -383 26 -534q109 -10 226 -39l-7 -49q-131 16 -319 16q-82 0 -119 -2l-6 29q18 23 27 145q-119 -133 -299 -203q-231 0 -322.5 134.5t-91.5 390.5q0 117 14.5 370.5t14.5 278.5q0 37 -7 78 q-242 0 -309 -66q-14 -29 -14 -94q0 -57 20 -80l-2 -14q-51 -31 -102 -86q-25 2 -40 20.5t-15 42.5z" />
<glyph unicode="V" horiz-adv-x="1226" d="M-336 944q0 100 121 239.5t225 176.5q16 0 147.5 -13.5t209.5 -13.5q72 0 135 13l8 -52q-66 -25 -174 -53q20 -174 107 -498.5t186 -601.5q172 381 230.5 579t58.5 341q0 193 -103 252l8 28q63 -8 176 -8q168 0 289 17l8 -52q-92 -29 -196 -43q10 -72 10 -118 q0 -180 -89 -387t-343 -678q104 -14 196 -43l-8 -45q-121 16 -288 16q-129 0 -193 -8l-8 28q25 8 47 25.5t22 38.5q0 150 -272 999q-25 76 -49 138q-240 0 -307 -66q-14 -29 -15 -94q0 -57 21 -80l-2 -14q-51 -31 -103 -86q-25 2 -40 20.5t-15 42.5z" />
<glyph unicode="W" horiz-adv-x="1855" d="M-336 944q0 100 121 239.5t225 176.5q16 0 147.5 -13.5t209.5 -13.5h239q442 0 641 21l8 -51q-90 -29 -196 -48q10 -72 10 -118q0 -70 -16 -158q78 -348 245 -838q152 383 200 581t48 339q0 193 -102 252l8 28q63 -8 176 -8q168 0 289 17l8 -52q-92 -29 -196 -43 q10 -72 10 -118q0 -172 -85 -395.5t-308 -671.5q35 -18 94 -35l-6 -43q-98 8 -187 8q-129 0 -192 -8l-8 28q25 8 47 25.5t22 38.5q0 121 -145 612h-8q-97 -247 -287 -626q35 -18 94 -35l-6 -43q-98 8 -186 8q-129 0 -193 -8l-8 28q25 8 47 25.5t22 38.5q0 150 -272 999 q-25 76 -49 138q-240 0 -307 -66q-14 -29 -15 -94q0 -57 21 -80l-2 -14q-51 -31 -103 -86q-25 2 -40 20.5t-15 42.5zM336 1247q18 -168 105 -497.5t188 -608.5q152 383 200 581t48 339q0 139 -51.5 181t-198.5 42q-170 0 -291 -37z" />
<glyph unicode="X" horiz-adv-x="1320" d="M-168 944q0 100 121 239.5t225 176.5q16 0 147.5 -13.5t209.5 -13.5q72 0 135 13l8 -52q-80 -31 -182 -55q16 -133 204 -446q225 369 226 454q0 45 -41 66l8 28q102 -8 170 -8q160 0 266 17l10 -52q-98 -31 -198 -43q-109 -172 -389 -542l401 -635q104 -14 197 -43 l-9 -51q-121 16 -288 16q-113 0 -176 -8l-9 28q8 16 9 46q0 133 -236 520q-264 -440 -264 -514q109 -10 225 -39l-6 -49q-164 16 -334 16q-164 0 -280 -16l-11 51q98 31 199 43q123 195 418 592l-330 551q-205 0 -272 -66q-14 -29 -15 -94q0 -57 21 -80l-2 -14 q-51 -31 -103 -86q-25 2 -40 20.5t-15 42.5z" />
<glyph unicode="Y" horiz-adv-x="1116" d="M-340 1516q0 29 34 48t95 19q129 0 304 -71.5t243 -147.5q43 -184 95 -316.5t165 -357.5q227 444 227 557q0 45 -41 66l9 28q102 -8 170 -8q160 0 266 17l10 -52q-98 -31 -199 -43l-401 -645q0 -342 27 -538q109 -10 225 -39l-6 -49q-152 16 -320 16q-186 0 -295 -16 l-8 51q93 29 197 43q22 161 22 403v21v53l-348 745q-80 172 -174 216q-37 0 -90 -27t-66 -53l-12 -4q-55 37 -123 57q-6 12 -6 27z" />
<glyph unicode="Z" horiz-adv-x="940" d="M-76 -35q119 111 252 328l559 921q-33 -16 -69 -26q-293 63 -414 63q-131 0 -131 -135q0 -27 6 -47l-4 -16q-68 -18 -123 -56q-37 14 -37 58q0 102 154.5 204.5t298.5 141.5q198 -73 294 -84q37 -4 74 -4q152 0 217 78l46 -37q-102 -94 -187 -242l-545 -940 q104 -47 216 -131t186 -153.5t149.5 -123t126.5 -53.5q43 0 73 51.5t30 102.5l8 14q68 0 133 21q25 -18 25 -45q0 -63 -106.5 -125t-229.5 -93.5t-199 -31.5q-190 213 -314 310t-255 97q-100 0 -189 -84z" />
<glyph unicode="[" horiz-adv-x="667" d="M193 -416q20 141 20 926q0 780 -20 922l14 10q139 -35 399 -31v-43q-160 -4 -270 -35v-1650q110 -31 270 -35v-43q-260 4 -399 -31z" />
<glyph unicode="\" horiz-adv-x="718" d="M43 1425q66 23 98 43h9q53 -195 141 -458l223 -652q66 -190 148 -393q-29 -32 -84 -57h-11l-364 1071q-94 281 -160 446z" />
<glyph unicode="]" horiz-adv-x="667" d="M61 -352q160 4 271 35v1650q-111 31 -271 35v43q260 -4 400 31l14 -10q-20 -141 -20 -922q0 -784 20 -926l-14 -10q-140 35 -400 31v43z" />
<glyph unicode="^" horiz-adv-x="1060" d="M102 627q188 324 371 778l109 20q195 -487 376 -798l-59 -31l-369 592l-368 -592z" />
<glyph unicode="_" horiz-adv-x="1259" d="M-6 -365l16 91q346 -18 946 -19q219 0 299 6l13 -12l-17 -80h-1241z" />
<glyph unicode="`" horiz-adv-x="409" d="M0 1366q2 20 19.5 62t31.5 59q35 6 88 2q49 -86 122 -172t149 -137l-23 -37z" />
<glyph unicode="a" horiz-adv-x="1095" d="M-29 37q49 18 135 33l267 934q-90 14 -158 32l6 54q193 -23 371 -23q215 0 405 23l9 -54q-61 -25 -127 -37q-23 -168 -23 -419q0 -346 23 -514q41 -6 151 -31l-8 -51q-98 16 -254 16q-152 0 -233 -16l-9 53q70 23 158 33q12 119 18 329q-96 10 -182 11q-106 0 -178 -11 q-41 -170 -41 -233q0 -100 72 -141l-8 -35q-47 10 -156 10q-154 0 -229 -16zM358 496q80 -13 162 -13q113 0 182 13q0 379 -16 489q-70 4 -98 4q-39 0 -109 -4l-94 -383z" />
<glyph unicode="b" horiz-adv-x="1073" d="M78 1012v51q80 0 261 7t228 7q63 0 105.5 -3t89.5 -14t74.5 -30.5t46 -56.5t18.5 -90q0 -86 -66.5 -161t-162.5 -112v-8q123 0 198.5 -52t75.5 -161q0 -127 -131 -251t-268 -163q-49 0 -134 20.5t-139 41.5q-23 -27 -41 -76l-43 10q39 182 39 561q0 287 -18 453 q-70 27 -133 27zM383 532q0 -266 8 -380q84 -45 193 -46q94 0 147 39q35 70 35 168q0 135 -79.5 190.5t-231.5 55.5l8 72h18q127 0 185 35q51 63 51 161q0 178 -195 179q-68 0 -125 -23q-14 -139 -14 -451z" />
<glyph unicode="c" horiz-adv-x="888" d="M92 434q0 221 133 409.5t340 248.5q150 0 338 -31l-2 -45q-39 0 -74 -15q-39 -92 -51 -219h-51q-16 70 -16 144q-78 39 -181 39q-111 0 -180 -58q-80 -145 -80 -352q0 -98 11.5 -170t40 -135.5t87 -97t144.5 -33.5q141 0 266 125l29 -29q-137 -174 -330 -240 q-199 0 -311.5 126t-112.5 333z" />
<glyph unicode="d" horiz-adv-x="1103" d="M74 1012v51q82 0 254 7t217 7q233 0 359 -110.5t126 -333.5q0 -217 -138 -408t-343 -250q-53 0 -138 19.5t-141 42.5q-23 -27 -41 -76l-43 10q39 182 39 561q0 287 -18 453q-70 27 -133 27zM379 532q0 -266 8 -378q102 -47 215 -48q102 0 166 56q78 147 78 362 q0 100 -16.5 182t-52.5 152t-102.5 109t-156.5 39q-68 0 -125 -23q-14 -133 -14 -451z" />
<glyph unicode="e" horiz-adv-x="917" d="M92 434q0 221 133 409.5t340 248.5q150 0 338 -31l-2 -45q-39 0 -74 -15q-39 -92 -51 -219h-51q-16 70 -16 144q-78 39 -181 39q-111 0 -180 -58q-70 -127 -80 -303q86 -14 185 -14q170 0 204 72l43 -7q-18 -61 -18 -133q0 -47 14 -133l-49 -8q-23 61 -33 127 q-82 8 -161 8q-83 0 -185 -10q6 -182 67.5 -284.5t215.5 -102.5q141 0 266 125l29 -29q-137 -174 -330 -240q-199 0 -311.5 126t-112.5 333z" />
<glyph unicode="f" horiz-adv-x="901" d="M88 1036l6 51q154 -20 436 -20q203 0 336 23l11 -41q-82 -86 -93 -256h-51q-14 68 -14 163q-72 35 -189 35q-72 0 -120 -8q-16 -111 -17 -379q72 -14 137 -14q121 0 156 72l43 -7q-18 -61 -18 -133q0 -47 14 -133l-49 -8q-23 61 -33 127q-82 8 -113 8q-51 0 -137 -10 q0 -279 19 -438q90 -10 182 -33l-6 -51q-100 16 -254 16q-129 0 -234 -16l-8 53q61 20 129 31q18 147 19 417v97q0 188 -21 417q-74 14 -131 37z" />
<glyph unicode="g" horiz-adv-x="1007" d="M92 434q0 221 133 409.5t340 248.5q150 0 338 -31l-2 -45q-39 0 -74 -15q-39 -92 -51 -219h-51q-16 70 -16 144q-78 39 -181 39q-111 0 -180 -58q-82 -150 -82 -352q0 -205 60.5 -320.5t224.5 -115.5q88 0 174 51l-4 119q-6 96 -6 100q-57 18 -140 33l7 43q49 -4 71 -4 q141 0 256 76l21 -37q-25 -23 -45 -47q-29 -279 -37 -459h-43q-16 76 -49 125q-119 -104 -240 -144q-199 0 -311.5 126t-112.5 333z" />
<glyph unicode="h" horiz-adv-x="1265" d="M90 1030l8 53q104 -16 234 -16q135 0 241 14l7 -51q-78 -20 -170 -31q-16 -119 -17 -366q115 -16 244 -17q135 0 237 15q-2 173 -18 368q-72 12 -129 31l8 53q104 -16 234 -16q135 0 241 14l7 -51q-78 -20 -170 -31q-20 -127 -21 -417v-97q0 -295 21 -417q92 -10 170 -31 l-7 -51q-106 14 -241 14q-129 0 -234 -16l-8 53q57 18 129 31q16 231 18 462q-133 12 -237 13q-115 0 -244 -13q0 -338 19 -462q92 -10 170 -31l-7 -51q-106 14 -241 14q-129 0 -234 -16l-8 53q57 18 129 31q18 147 19 417v97q0 270 -21 417q-72 12 -129 31z" />
<glyph unicode="i" horiz-adv-x="632" d="M90 1030l8 53q104 -16 234 -16q135 0 241 14l7 -51q-78 -20 -170 -31q-17 -110 -17 -419q0 -375 19 -512q92 -10 170 -31l-7 -51q-106 14 -241 14q-129 0 -234 -16l-8 53q57 18 129 31q18 147 19 417v97q0 270 -21 417q-72 12 -129 31z" />
<glyph unicode="j" horiz-adv-x="606" d="M25 -260q121 92 168 214t47 298v328q0 309 -17 419q-92 10 -170 31l6 51q106 -14 242 -14q129 0 234 16l8 -53q-57 -18 -129 -31q-20 -147 -21 -417v-97q0 -270 19 -417q-49 -109 -143.5 -205t-209.5 -162z" />
<glyph unicode="k" horiz-adv-x="1075" d="M90 1030l8 53q104 -16 234 -16q135 0 241 14l7 -51q-78 -20 -170 -31q-17 -110 -17 -419v-84q209 221 271.5 318t62.5 161q0 45 -31 67l11 35q47 -10 112 -10q102 0 225 16l9 -53q-47 -16 -138 -33q-18 -139 -237 -346l270 -581q86 -14 135 -33l-8 -53q-76 16 -229 16 q-90 0 -139 -10l-11 35q29 29 29 86q0 137 -162 446q-41 -35 -170 -141q6 -250 19 -348q92 -10 170 -31l-7 -51q-106 14 -241 14q-129 0 -234 -16l-8 53q57 18 129 31q18 147 19 417v97q0 270 -21 417q-72 12 -129 31z" />
<glyph unicode="l" horiz-adv-x="833" d="M88 31q57 23 131 37q20 123 21 417v97q0 254 -21 417q-68 10 -129 31l8 53q104 -16 234 -16q154 0 254 16l6 -51q-92 -23 -182 -33q-16 -111 -17 -421q0 -379 17 -494q49 -8 120 -8q109 0 181 35q28 68 28 157v6h52q8 -158 57 -256l-10 -41q-133 23 -308 23 q-283 0 -436 -20z" />
<glyph unicode="m" horiz-adv-x="1482" d="M-2 37q70 23 131 33l190 934q-106 18 -157 32l6 54q147 -23 278 -23q121 0 191 14l4 -34q-55 -14 -55 -48q0 -45 127 -520l45 -153l14 4q0 53 186 667q0 35 -55 50l4 34q70 -14 191 -14q135 0 280 23l6 -54q-55 -14 -141 -30q-6 -49 -6 -117q0 -123 26.5 -418t49.5 -405 q76 -10 155 -29l-6 -51q-106 14 -237 14q-129 0 -234 -16l-8 53q67 21 145 31q-6 483 -65 911h-6q-211 -623 -226 -807q-43 -14 -100 -52t-88 -75l-25 16v54q0 127 -63 380t-141 490l-8 -2l-52 -381q-32 -229 -32 -413v-11q0 -115 71 -153l-8 -35q-61 10 -160 10 q-100 0 -219 -16z" />
<glyph unicode="n" horiz-adv-x="1275" d="M86 1036l6 54q117 -23 258 -23q115 0 170 14l4 -34q-55 -14 -55 -48q0 -14 12.5 -39.5t48 -84t81.5 -132t134.5 -219t184.5 -309.5l6 4v250q0 274 -28.5 412.5t-98.5 160.5l4 35q53 -10 158 -10q109 0 221 23l6 -54q-84 -27 -141 -32q-20 -164 -21 -422v-97 q0 -311 21 -422q86 -14 137 -32l-6 -54q-102 23 -207 23q-76 0 -125 -8q0 25 -17.5 64.5t-62.5 116.5t-96 160t-144.5 237.5t-181.5 306.5l-8 -5v-274q1 -407 62 -530q92 -10 180 -31l-6 -51q-106 14 -242 14q-129 0 -234 -16l-8 53q66 20 123 31q18 160 19 417v97 q0 274 -21 422q-55 6 -133 32z" />
<glyph unicode="o" horiz-adv-x="1077" d="M86 434q0 227 131 415.5t342 242.5q211 0 321.5 -120t110.5 -337q0 -225 -119.5 -403.5t-332.5 -256.5q-203 0 -328 128t-125 331zM260 555q0 -113 33 -213t106.5 -171t174 -71t161.5 54q82 143 82 354q0 203 -73.5 331t-239.5 128q-92 0 -160 -52q-84 -143 -84 -360z " />
<glyph unicode="p" horiz-adv-x="942" d="M88 1012v51q80 0 255 7t220 7q371 0 371 -268q0 -150 -132 -242t-300 -92q-25 0 -35 2l8 68h19q127 0 189 55t62 178q0 115 -50 171.5t-160 56.5q-68 0 -127 -23q-14 -135 -15 -457q1 -325 19 -458q86 -10 180 -33l-6 -51q-100 16 -254 16q-129 0 -234 -16l-8 53 q61 20 129 31q20 143 21 464q0 287 -19 453q-72 27 -133 27z" />
<glyph unicode="q" horiz-adv-x="1077" d="M86 434q0 227 131 415.5t342 242.5q211 0 321.5 -120t110.5 -337q0 -211 -107.5 -384t-299.5 -257q78 -2 245.5 -76t212.5 -86q66 25 121 57l25 -36q-96 -70 -174 -215l-45 32q-104 76 -234.5 134.5t-232.5 58.5q-98 0 -176 -60l-35 33q86 90 211 141q-186 12 -301 137 t-115 320zM260 555q0 -113 33 -213t106.5 -171t174 -71t161.5 54q82 143 82 354q0 203 -73.5 331t-239.5 128q-92 0 -160 -52q-84 -143 -84 -360z" />
<glyph unicode="r" horiz-adv-x="1077" d="M88 1022v41q82 0 255 7t216 7q184 0 276.5 -54t92.5 -198q0 -98 -60.5 -174t-158.5 -112l229 -469q70 -12 131 -29l-8 -55q-86 14 -223 14q-78 0 -140 -10l-8 33q27 27 27 88q0 125 -144 401q-43 8 -100 8l4 60h21q241 0 241 219q0 207 -207 207q-70 0 -124 -23 q-14 -135 -15 -457q1 -333 19 -458q90 -10 168 -31l-7 -51q-106 14 -241 14q-129 0 -234 -16l-8 53q57 18 129 31q20 154 21 464q0 338 -19 463q-80 27 -133 27z" />
<glyph unicode="s" horiz-adv-x="862" d="M43 -14q115 125 127 309h51q0 -74 6 -141v2q94 -39 186.5 -39t147.5 43t55 123q0 47 -72.5 102t-159.5 100t-159.5 109.5t-72.5 128.5q0 109 114.5 219.5t235.5 149.5q152 0 274 -31v-37q-86 -86 -96 -236h-51q0 57 -11 144q-72 33 -159 33q-76 0 -130.5 -36t-54.5 -104 q0 -47 73 -102t159 -98t158.5 -106.5t72.5 -127.5q0 -123 -108.5 -245t-239.5 -171q-129 0 -242 31q-33 -14 -67 -47z" />
<glyph unicode="t" horiz-adv-x="882" d="M-8 1053l10 34q158 -20 438 -20q289 0 463 23l12 -39q-51 -57 -69.5 -111.5t-22.5 -146.5h-51q-14 68 -14 163q-72 35 -158 35q-45 0 -68 -8q-16 -111 -16 -401q0 -344 23 -514q92 -10 170 -31l-7 -51q-106 14 -241 14q-141 0 -246 -16l-8 53q41 12 141 31q18 147 19 417 v97q0 143 -23 401q-23 8 -63 8q-82 0 -152 -28q-20 -63 -29 -170h-53q0 168 -55 260z" />
<glyph unicode="u" horiz-adv-x="1183" d="M61 1028l9 55q119 -16 213 -16q98 0 159 10l9 -35q-74 -39 -86 -141q-25 -197 -25 -440q0 -170 48 -257t187 -87q125 0 207 76q8 164 9 344q0 266 -17 462q-92 10 -170 31l6 51q106 -14 242 -14q129 0 233 16l9 -53q-57 -19 -129 -31q-20 -139 -21 -417v-97 q0 -281 21 -419q94 -12 155 -29l-6 -51q-100 14 -256 14q-55 0 -94 -6l-8 26q18 20 24 117q-106 -111 -245 -162q-352 0 -353 420q0 92 14.5 295t14.5 223q0 49 -12 82v2q-86 14 -138 31z" />
<glyph unicode="v" horiz-adv-x="1042" d="M-53 1030l8 53q82 -16 233 -16q156 0 254 16l9 -51q-111 -25 -152 -31q14 -135 85 -399t153 -489q137 305 183 462.5t46 272.5q0 147 -84 192l8 35q61 -10 154 -10q98 0 217 16l8 -53q-70 -23 -131 -33q8 -61 8 -86q0 -76 -15.5 -146.5t-71.5 -192t-98 -202.5t-159 -300 q41 -4 131 -35l-10 -45q-88 12 -227 12q-125 0 -185 -8l-6 33q18 4 35.5 21t17.5 32q0 117 -215 788q-29 90 -49 131q-68 8 -147 33z" />
<glyph unicode="w" horiz-adv-x="1521" d="M-53 1032l8 53q180 -18 577 -18q313 0 474 16l8 -53q-90 -31 -121 -35q4 -31 4 -86q0 -106 -27 -219q70 -272 181 -577q123 305 163.5 462.5t40.5 272.5q0 147 -84 192l9 35q61 -10 153 -10q84 0 203 16l8 -53q-82 -27 -117 -33q8 -61 9 -86q0 -150 -68 -319.5 t-256 -521.5q39 -18 94 -35l-10 -45q-74 12 -186 12q-119 0 -179 -8l-6 33q18 4 36 21t18 32q0 76 -101 414q-126 -293 -192 -424q39 -18 94 -35l-10 -45q-74 12 -189 12q-125 0 -184 -8l-6 33q18 4 35.5 21t17.5 32q0 117 -215 788q-29 90 -49 131q-43 6 -133 35zM285 997 q14 -135 84.5 -397t152.5 -487q121 301 161 458.5t40 276.5q0 102 -41 137t-150 35q-131 0 -247 -23z" />
<glyph unicode="x" horiz-adv-x="1079" d="M-14 37q86 27 135 33q27 41 80 112.5t136 181t130 173.5l-307 460q-57 6 -137 33l8 53q82 -16 245 -16q176 0 275 16l8 -51q-109 -25 -153 -31q4 -82 169 -354q172 285 173 344q0 37 -56 51l8 35q61 -10 160 -10q100 0 219 16l8 -53q-57 -18 -143 -33q-27 -41 -76 -105.5 t-122.5 -160.5t-122.5 -162l327 -499q86 -14 144 -33l-9 -53q-119 16 -225 16q-98 0 -160 -10l-8 35q16 10 17 36q0 96 -189 408q-197 -328 -211 -403h4q109 -14 179 -31l-9 -51q-98 16 -268 16q-139 0 -221 -16z" />
<glyph unicode="y" horiz-adv-x="952" d="M-31 1030l8 53q82 -16 234 -16q156 0 254 16l8 -51q-96 -23 -162 -31q70 -213 195 -448q182 354 182 444q0 33 -55 45l8 35q61 -10 160 -10q100 0 219 16l8 -53q-53 -18 -135 -31l-340 -512q0 -266 20 -419q90 -10 168 -31l-6 -51q-106 14 -241 14q-141 0 -246 -16l-8 53 q39 12 139 31q18 111 18 333v43q-238 479 -301 557q-57 6 -127 29z" />
<glyph unicode="z" horiz-adv-x="901" d="M8 2q94 92 152 191l465 757l-4 4h-222q-100 0 -172 -30q-12 -72 -41 -138l-49 7q4 61 4 88q0 76 -16 139q-33 18 -70 27l4 45q35 0 261.5 -21.5t363.5 -21.5q90 0 158 61l43 -33q-57 -51 -131 -178l-445 -768l6 -4h246q92 0 133 31q10 68 11 141h53q12 -186 127 -303 l-41 -29q-8 12 -33 29q-233 39 -565 39q-137 0 -195 -68z" />
<glyph unicode="{" horiz-adv-x="614" d="M90 522q147 33 148 111q0 96 -28 266t-28 266q0 90 89.5 176t187.5 115l8 -29q-55 -29 -104.5 -82t-67.5 -108q0 -96 46 -288.5t46 -274.5q-29 -70 -186 -162v-8q158 -92 186 -162q0 -82 -46 -274.5t-46 -288.5q18 -55 67.5 -108.5t104.5 -82.5l-8 -28 q-98 29 -187.5 114.5t-89.5 175.5q0 96 28 266.5t28 266.5q0 41 -42 65.5t-98 34.5z" />
<glyph unicode="|" horiz-adv-x="487" d="M182 1481q70 29 107 55l10 -2q-4 -291 -4 -1942q-37 -20 -84 -34l-14 6q0 1411 -15 1917z" />
<glyph unicode="}" horiz-adv-x="589" d="M147 -412q55 29 104.5 82.5t67.5 108.5q0 96 -46 288.5t-46 274.5q29 70 187 162v8q-158 92 -187 162q0 82 46 274.5t46 288.5q-18 55 -67.5 108t-104.5 82l9 29q98 -29 187 -115t89 -176q0 -96 -27.5 -266t-27.5 -266q0 -78 147 -111l-8 -39q-55 -10 -97 -34.5 t-42 -65.5q0 -96 27.5 -266t27.5 -267q0 -90 -89 -176t-187 -114z" />
<glyph unicode="~" horiz-adv-x="1208" d="M102 432q45 84 142.5 157t187.5 83q88 -59 196.5 -101.5t198.5 -42.5q141 0 242 119l37 -22q-41 -78 -131 -146.5t-178 -93.5q-68 0 -225.5 67.5t-225.5 67.5q-135 1 -207 -110z" />
<glyph unicode="&#xa1;" horiz-adv-x="462" d="M92 -328q96 322 127 940l53 4l43 -991q-25 -12 -78 -24.5t-79 -10.5q-23 20 -66 82zM135 893q14 23 49 54.5t62 47.5q29 -14 63.5 -45.5t46.5 -56.5q-14 -27 -50 -68t-60 -57q-25 16 -61 57t-50 68z" />
<glyph unicode="&#xa2;" horiz-adv-x="921" d="M156 420q0 193 97 355.5t259 228.5l8 200q31 4 58 13l8 -7q-10 -70 -17 -186q125 0 248 -33v-28q-80 -98 -88 -215h-45q0 80 -4 124q-78 20 -115 23l-26 -748h2q113 0 233 109l21 -20q-106 -152 -260 -224l-3 -200h-10q-33 10 -55 30l12 158q-166 8 -244.5 119.5 t-78.5 300.5zM319 532q0 -76 5.5 -131t21.5 -110t51 -90t86 -47l25 743q-78 -4 -129 -49q-60 -126 -60 -316z" />
<glyph unicode="&#xa3;" horiz-adv-x="921" d="M53 -2q76 76 148 182q12 43 12 97.5t-5 121t-5 95.5v2l-80 -7l-19 13l13 94h94q29 176 143.5 318.5t284.5 187.5q141 0 262 -33v-29q-76 -94 -88 -231h-45q0 84 -6 131q-86 29 -164 29q-102 0 -164 -54q-63 -133 -63 -315q117 4 295 25l16 -11l-12 -86l-303 -22 q-14 -199 -101 -326l6 -6q31 14 56 21q207 4 417 -43q20 45 48 118l43 -14q-23 -80 -23 -150q0 -63 14 -122l-24 -17q-315 94 -592 94q-63 -35 -123 -94z" />
<glyph unicode="&#xa4;" horiz-adv-x="1161" d="M66 225q51 43 170 154q-70 86 -70 207q0 172 106 297q-113 102 -206 184q10 53 49 96h10l215 -213q115 92 276 121q156 0 265 -74q29 29 82 86.5t75 79.5q86 -29 109 -33l4 -8l-203 -190q68 -86 68 -215q0 -182 -117 -311q174 -166 252 -236l-4 -8q-23 -4 -109 -33 l-207 215q-104 -80 -239 -106q-166 0 -281 73l-186 -182h-10q-39 43 -49 96zM315 674q0 -150 78 -238t230 -88q119 0 178 53q66 92 65 234q0 152 -77.5 239t-229.5 87q-119 0 -178 -54q-66 -92 -66 -233z" />
<glyph unicode="&#xa5;" horiz-adv-x="921" d="M-43 1042l4 41q154 -16 238 -12q137 8 213 23l10 -41q-66 -20 -103 -43q27 -121 191 -455q176 344 176 451q0 39 -27 65l7 14q59 -14 143 -14q86 0 143 8l4 -45q-72 -8 -110 -26l-295 -504v-2l90 4q129 6 172 10q8 -41 18 -63v-11l-280 -4q0 -70 2 -100l88 4 q129 6 172 10q8 -41 18 -63v-10l-276 -5q2 -100 18 -213q57 -12 129 -38l-4 -39q-115 16 -215 16q-104 0 -209 -12l-6 39q61 27 121 41q8 70 14 202h-22q-147 -4 -242 -18l-6 8q12 41 14 66l259 8q0 16 1 49t1 51h-27q-147 -4 -242 -18l-6 8q12 41 14 65l242 9 q-176 365 -268 499q-98 18 -164 45z" />
<glyph unicode="&#xa6;" horiz-adv-x="501" d="M193 383q70 29 106 55l10 -2q-4 -291 -4 -842q-37 -20 -84 -34l-14 6q-2 373 -14 817zM193 1485q70 29 106 55l10 -2q-4 -291 -4 -842q-37 -20 -84 -34l-14 6q-2 373 -14 817z" />
<glyph unicode="&#xa7;" horiz-adv-x="956" d="M37 604q16 51 70.5 131t97.5 125l28 -26q-37 -49 -36 -127q0 -59 59 -126t143 -129.5t168 -128t143.5 -141.5t59.5 -149q-47 -76 -162.5 -161t-201.5 -108q-147 0 -283 43v29q80 98 88 215h45v-29q0 -18 1 -34.5t2 -30.5t1 -23v-8q94 -35 184 -35q86 0 134 48 q14 25 14 69q0 72 -81 154t-180.5 144.5t-189.5 145.5t-104 152zM174 1096q47 76 163 160.5t202 107.5q131 0 254 -33v-28q-80 -98 -88 -216h-46q0 80 -4 125q-80 25 -155 25q-86 0 -133 -47q-14 -25 -15 -70q0 -72 81 -153.5t180.5 -144t189.5 -145.5t104 -153 q-16 -51 -70.5 -131t-97.5 -125l-28 27q37 49 37 127q0 59 -59.5 125.5t-143.5 129t-168 128t-143.5 141.5t-59.5 150z" />
<glyph unicode="&#xa8;" horiz-adv-x="600" d="M0 1354q12 25 47 56.5t64 45.5q27 -16 61.5 -47.5t48.5 -54.5q-14 -27 -50 -68t-60 -57q-25 16 -61 57t-50 68zM379 1354q12 25 47 56.5t63 45.5q27 -16 62 -47.5t49 -54.5q-14 -27 -50 -68t-61 -57q-25 16 -60.5 57t-49.5 68z" />
<glyph unicode="&#xa9;" horiz-adv-x="1566" d="M86 665.5q0 288.5 204 493.5t492.5 205t493.5 -205t205 -493.5t-205 -492.5t-493.5 -204t-492.5 204t-204 492.5zM176 666q0 -252 177 -431.5t429 -179.5t430.5 179.5t178.5 431.5t-178.5 432t-430.5 180t-429 -180t-177 -432zM457 592q0 158 99 301t247 194 q129 0 246 -26l-2 -35q-35 -4 -50 -14q-33 -72 -43 -170h-36q-14 61 -15 108q-57 31 -131 31q-66 0 -113 -33q-57 -111 -57 -264q0 -150 40 -236t153 -86q98 0 196 91l25 -27q-90 -113 -250 -182q-154 0 -231.5 92t-77.5 256z" />
<glyph unicode="&#xaa;" horiz-adv-x="839" d="M78 848q0 172 96 316.5t256 199.5q115 0 240 -35q27 41 41 88l34 -10q-37 -176 -36 -528q0 -166 12 -265q31 -14 82 -14v-37q-96 -4 -230 -33l-12 7q18 109 19 260h-7q-59 -82 -138 -160t-148 -107q-96 0 -152.5 100.5t-56.5 217.5zM223 924q0 -80 28 -166t81 -86 q57 0 139 81t109 146q0 244 -13 318q-76 41 -170 40q-78 0 -121 -40q-53 -125 -53 -293z" />
<glyph unicode="&#xab;" horiz-adv-x="845" d="M43 551v41q195 106 365 307l38 -27l-219 -292l222 -324l-41 -29q-190 219 -365 324zM403 555v41q205 113 345 276l38 -26l-198 -262l200 -293l-40 -29q-186 197 -345 293z" />
<glyph unicode="&#xac;" horiz-adv-x="1126" d="M104 502l19 104q348 -18 702 -18q94 0 174 6l13 -12q0 -131 10 -402l-10 -12l-97 18v301h-794z" />
<glyph unicode="&#xad;" horiz-adv-x="585" d="M57 496l13 94h94q180 0 352 20l16 -10l-12 -86l-444 -31z" />
<glyph unicode="&#xae;" horiz-adv-x="888" d="M43 1024q0 168 116.5 284.5t284.5 116.5t285 -116.5t117 -284.5t-117 -284.5t-285 -116.5t-284.5 116.5t-116.5 284.5zM117 1024q0 -139 95 -235.5t232.5 -96.5t230.5 96.5t93 235.5t-93 233.5t-230.5 94.5t-232.5 -94.5t-95 -233.5zM256 827v23q24 6 51 10q8 82 8 178 q0 125 -6 168q-25 8 -45 8v25q29 0 95.5 3t89.5 3q74 0 112.5 -19.5t38.5 -76.5q0 -78 -76 -109l88 -180l41 -10v-23q-43 6 -88 7q-41 0 -73 -5l-5 15q12 10 13 33q0 47 -54 153q-15 6 -30 6l2 23h8q80 0 80 80q0 70 -68 69q-20 0 -35 -6q-2 -39 -2 -164q0 -150 7 -178 l45 -10l-2 -23q-45 6 -99 7q-47 0 -96 -7z" />
<glyph unicode="&#xaf;" horiz-adv-x="561" d="M0 1278l18 102l93 -6q102 -6 213 -6q129 0 221 8l16 -10l-18 -94l-525 -6z" />
<glyph unicode="&#xb0;" horiz-adv-x="751" d="M92 1042q0 125 85 213t216 111q119 0 192.5 -61.5t73.5 -174.5q0 -123 -77.5 -207.5t-204.5 -111.5q-121 0 -203 60t-82 171zM209 1102q0 -96 48 -153.5t138 -57.5q72 0 109 35q39 59 39 149q0 98 -47.5 154.5t-139.5 56.5q-72 0 -108 -35q-39 -59 -39 -149z" />
<glyph unicode="&#xb1;" horiz-adv-x="1126" d="M102 14l19 105q346 -18 702 -19q94 0 174 6l13 -12l-19 -94h-872zM119 561l18 105q250 -12 379 -15v324l96 18l11 -12q-10 -180 -11 -330v-2q76 -2 228 -2q94 0 174 6l12 -12l-18 -94h-396q0 -168 19 -363l-94 -18l-21 14v367h-381z" />
<glyph unicode="&#xb2;" horiz-adv-x="761" d="M66 711q37 76 143 187.5t185 213.5t79 191q0 57 -40 87.5t-103 30.5q-57 0 -105 -22q-10 -25 -10 -56q0 -33 16 -43v-12q-25 -14 -81 -67q-47 4 -48 49q0 76 91.5 152.5t183.5 105.5q135 0 198.5 -65.5t63.5 -200.5q-156 -203 -389 -406l4 -6q23 10 39 14q137 6 307 -16 q20 39 41 96l35 -12q-18 -61 -19 -125q0 -43 13 -98l-21 -15q-295 61 -495 62q-29 -29 -54 -62z" />
<glyph unicode="&#xb3;" horiz-adv-x="684" d="M61 748v24q47 66 62 170h37q0 -55 2 -86q98 -55 190 -55q55 0 76 24q18 47 18 107q0 96 -48 150.5t-142 54.5l-6 8l174 244l-4 6q-23 -10 -39 -15q-92 0 -195 11q-20 -37 -32 -86l-35 12q10 57 10 104t-14 92l18 13q176 -37 416 -37q29 16 47 37l27 -23 q-43 -39 -244 -274q213 -39 213 -283q-27 -76 -104.5 -149.5t-159.5 -102.5q-145 0 -267 54z" />
<glyph unicode="&#xb4;" horiz-adv-x="409" d="M0 1180q76 51 148.5 137t121.5 172q53 4 88 -2q14 -16 32 -58.5t20 -62.5l-387 -223z" />
<glyph unicode="&#xb5;" horiz-adv-x="1083" d="M141 -434q18 129 39 727l8 385q2 180 -12 278l8 7q117 12 189 30l12 -10q-72 -293 -72 -631q0 -51 2 -77.5t10.5 -64.5t30 -55.5t56.5 -17.5q78 0 184 99.5t143 187.5q0 387 -28 539q123 12 200 30l13 -10q-41 -141 -41 -504q0 -266 14 -411q49 -16 111 -17v-43 q-131 -6 -277 -39l-14 4q23 141 22 324l-8 2q-70 -98 -178.5 -199.5t-198.5 -130.5q-51 0 -75 29q0 -215 43 -399l-7 -7q-90 -16 -155 -41z" />
<glyph unicode="&#x3bc;" horiz-adv-x="1083" d="M141 -434q18 129 39 727l8 385q2 180 -12 278l8 7q117 12 189 30l12 -10q-72 -293 -72 -631q0 -51 2 -77.5t10.5 -64.5t30 -55.5t56.5 -17.5q78 0 184 99.5t143 187.5q0 387 -28 539q123 12 200 30l13 -10q-41 -141 -41 -504q0 -266 14 -411q49 -16 111 -17v-43 q-131 -6 -277 -39l-14 4q23 141 22 324l-8 2q-70 -98 -178.5 -199.5t-198.5 -130.5q-51 0 -75 29q0 -215 43 -399l-7 -7q-90 -16 -155 -41z" />
<glyph unicode="&#xb6;" horiz-adv-x="1048" d="M-10 1012q0 336 422 336q55 0 273 -9.5t321 -9.5v-51q-102 0 -201 -33q-23 -193 -23 -579v-408q-23 -178 -146.5 -336t-279.5 -158q-25 0 -43 15.5t-20 40.5q55 51 86 102l14 2q23 -20 80 -20q66 0 94 14q62 152 58 338v410q0 406 -19 598q-20 6 -51 6q-27 0 -47 -6 q-16 -117 -16 -283q0 -266 45 -346l-5 -29q-14 -2 -45 -2q-199 0 -348 112.5t-149 295.5z" />
<glyph unicode="&#xb7;" horiz-adv-x="434" d="M106 582q12 25 47 56.5t64 45.5q27 -16 62 -47.5t49 -54.5q-14 -27 -50 -68t-61 -57q-25 16 -60.5 57t-50.5 68z" />
<glyph unicode="&#xb8;" horiz-adv-x="376" d="M0 -397q20 39 33 80l8 4q66 -51 139 -52q37 0 53 11q18 27 19 63q0 92 -170 92l-12 9l77 219l60 4l-49 -127l8 -6q94 0 152.5 -43t58.5 -129q-29 -55 -83 -101.5t-114 -66.5q-90 0 -180 43z" />
<glyph unicode="&#xb9;" horiz-adv-x="620" d="M139 1366q0 23 4 35q147 41 226 123q25 4 53 4l6 -4q-23 -166 -22 -348v-138q0 -166 12 -260q49 -16 92 -35l-6 -34q-82 12 -170 12q-96 0 -176 -14l-4 34q51 23 102 33q16 141 16 264v138q0 90 -6 186h-123z" />
<glyph unicode="&#xba;" horiz-adv-x="808" d="M66 874q0 168 98 308.5t258 181.5q158 0 239.5 -90t81.5 -252q0 -154 -95 -293t-242 -199q-147 0 -243.5 98.5t-96.5 245.5zM211 963q0 -121 60.5 -221.5t162.5 -100.5q66 0 111 41q53 96 53 252q0 133 -55 227t-166 94q-70 0 -111 -38q-55 -109 -55 -254z" />
<glyph unicode="&#xbb;" horiz-adv-x="845" d="M57 291l201 293l-195 262l35 26q139 -164 344 -276v-41q-158 -96 -344 -293zM397 256l221 324l-215 292l35 27q170 -201 365 -307v-41q-174 -104 -365 -324z" />
<glyph unicode="&#xbc;" horiz-adv-x="1699" d="M139 1202q0 23 4 35q147 41 226 123q25 4 53 4l6 -4q-23 -166 -22 -348v-138q0 -166 12 -260q49 -16 92 -34l-6 -35q-82 12 -170 12q-96 0 -176 -14l-4 35q51 22 102 32q16 141 16 264v138q0 90 -6 186h-123zM240 -2q190 242 256 330l520 719q121 168 270 395 q45 -10 109 -15l8 -6q-66 -82 -279 -377l-815 -1130l-10 2q-35 29 -59 82zM963 252q281 328 391 545q74 8 145 34l12 -4q-18 -98 -18 -288v-220q113 0 135 66l29 -8q-14 -66 -10 -150l-9 -4q-49 4 -143 4q0 -92 10 -143q27 -14 92 -33l-6 -37q-82 12 -186 13q-96 0 -164 -17 l-4 35q55 25 111 35q10 59 10 147h-387zM1137 334q88 -12 221 -12l4 356h-10q-68 -143 -215 -344z" />
<glyph unicode="&#xbd;" horiz-adv-x="1699" d="M139 1202q0 23 4 35q147 41 226 123q25 4 53 4l6 -4q-23 -166 -22 -348v-138q0 -166 12 -260q49 -16 92 -34l-6 -35q-82 12 -170 12q-96 0 -176 -14l-4 35q51 22 102 32q16 141 16 264v138q0 90 -6 186h-123zM240 -2q190 242 256 330l520 719q121 168 270 395 q45 -10 109 -15l8 -6q-66 -82 -279 -377l-815 -1130l-10 2q-35 29 -59 82zM1001 16q37 76 143.5 187.5t185.5 214t79 190.5q0 57 -40 88t-103 31q-57 0 -105 -22q-10 -25 -10 -56q0 -33 16 -43v-12q-25 -14 -82 -68q-47 4 -47 49q0 76 91.5 153t183.5 106q135 0 198.5 -66 t63.5 -201q-156 -203 -389 -405l4 -6q23 10 39 14q139 6 307 -16q20 39 41 96l35 -12q-18 -61 -19 -125q0 -43 13 -99l-21 -14q-295 61 -495 61q-29 -29 -54 -61z" />
<glyph unicode="&#xbe;" horiz-adv-x="1699" d="M61 584v24q47 66 62 170h37q0 -55 2 -86q98 -55 190 -55q55 0 76 25q18 47 18 106q0 96 -48 150.5t-142 54.5l-6 8l174 244l-4 6q-23 -10 -39 -14q-92 0 -195 10q-20 -37 -32 -86l-35 12q10 57 10 104.5t-14 92.5l18 12q176 -37 416 -37q29 16 47 37l27 -23 q-43 -39 -244 -274q213 -39 213 -283q-27 -76 -104.5 -149.5t-159.5 -102.5q-145 0 -267 54zM240 -2q190 242 256 330l520 719q121 168 270 395q45 -10 109 -15l8 -6q-66 -82 -279 -377l-815 -1130l-10 2q-35 29 -59 82zM963 252q281 328 391 545q74 8 145 34l12 -4 q-18 -98 -18 -288v-220q113 0 135 66l29 -8q-14 -66 -10 -150l-9 -4q-49 4 -143 4q0 -92 10 -143q27 -14 92 -33l-6 -37q-82 12 -186 13q-96 0 -164 -17l-4 35q55 25 111 35q10 59 10 147h-387zM1137 334q88 -12 221 -12l4 356h-10q-68 -143 -215 -344z" />
<glyph unicode="&#xbf;" horiz-adv-x="686" d="M0 -115q129 184 324 379q14 182 22 348l53 4l43 -284v-39q-246 -246 -245 -455q0 -76 49 -113.5t131 -37.5q70 0 127 28q14 25 14 70q0 37 -20 55l2 15q53 33 98 82q25 -2 39 -19.5t14 -40.5q0 -94 -109.5 -189.5t-222.5 -127.5q-166 0 -242.5 79.5t-76.5 245.5zM262 893 q14 23 49 54.5t62 47.5q29 -14 63.5 -45.5t46.5 -56.5q-14 -27 -50 -68t-60 -57q-25 16 -61 57t-50 68z" />
<glyph unicode="&#xc0;" horiz-adv-x="1226" d="M-111 35q92 29 197 43l324 1147q-242 0 -310 -66q-14 -29 -14 -94q0 -57 20 -80l-2 -14q-51 -31 -102 -86q-25 2 -40 20.5t-15 42.5q0 100 121 239.5t225 176.5q309 -35 627 -59q29 37 47 94l43 -13q-29 -143 -39 -294.5t-10 -485.5q0 -338 26 -534q109 -10 225 -39 l-6 -49q-152 16 -319 16q-186 0 -295 -16l-8 51q92 29 196 43q16 135 23 436q-106 12 -209 12q-154 0 -242 -12q-49 -201 -49 -307q0 -135 88 -187l-8 -28q-63 8 -197 8q-168 0 -288 -16zM336 1651q-2 20 9 64t22 63q41 14 86 18q154 -184 321 -258l-16 -41zM375 616 q92 -14 219 -14q125 0 209 14q0 362 -10 592l-7 6q-106 10 -264 11l-114 -473z" />
<glyph unicode="&#xc1;" horiz-adv-x="1226" d="M-111 35q92 29 197 43l324 1147q-242 0 -310 -66q-14 -29 -14 -94q0 -57 20 -80l-2 -14q-51 -31 -102 -86q-25 2 -40 20.5t-15 42.5q0 100 121 239.5t225 176.5q309 -35 627 -59q29 37 47 94l43 -13q-29 -143 -39 -294.5t-10 -485.5q0 -338 26 -534q109 -10 225 -39 l-6 -49q-152 16 -319 16q-186 0 -295 -16l-8 51q92 29 196 43q16 135 23 436q-106 12 -209 12q-154 0 -242 -12q-49 -201 -49 -307q0 -135 88 -187l-8 -28q-63 8 -197 8q-168 0 -288 -16zM375 616q92 -14 219 -14q125 0 209 14q0 362 -10 592l-7 6q-106 10 -264 11 l-114 -473zM645 1520q168 74 322 258q45 -4 86 -19q10 -18 21 -62.5t9 -64.5l-421 -153z" />
<glyph unicode="&#xc2;" horiz-adv-x="1226" d="M-111 35q92 29 197 43l324 1147q-242 0 -310 -66q-14 -29 -14 -94q0 -57 20 -80l-2 -14q-51 -31 -102 -86q-25 2 -40 20.5t-15 42.5q0 100 121 239.5t225 176.5q309 -35 627 -59q29 37 47 94l43 -13q-29 -143 -39 -294.5t-10 -485.5q0 -338 26 -534q109 -10 225 -39 l-6 -49q-152 16 -319 16q-186 0 -295 -16l-8 51q92 29 196 43q16 135 23 436q-106 12 -209 12q-154 0 -242 -12q-49 -201 -49 -307q0 -135 88 -187l-8 -28q-63 8 -197 8q-168 0 -288 -16zM362 1503q188 119 330 309h41q141 -190 330 -309l-21 -39l-329 154l-330 -154z M375 616q92 -14 219 -14q125 0 209 14q0 362 -10 592l-7 6q-106 10 -264 11l-114 -473z" />
<glyph unicode="&#xc3;" horiz-adv-x="1226" d="M-111 35q92 29 197 43l324 1147q-242 0 -310 -66q-14 -29 -14 -94q0 -57 20 -80l-2 -14q-51 -31 -102 -86q-25 2 -40 20.5t-15 42.5q0 100 121 239.5t225 176.5q309 -35 627 -59q29 37 47 94l43 -13q-29 -143 -39 -294.5t-10 -485.5q0 -338 26 -534q109 -10 225 -39 l-6 -49q-152 16 -319 16q-186 0 -295 -16l-8 51q92 29 196 43q16 135 23 436q-106 12 -209 12q-154 0 -242 -12q-49 -201 -49 -307q0 -135 88 -187l-8 -28q-63 8 -197 8q-168 0 -288 -16zM375 616q92 -14 219 -14q125 0 209 14q0 362 -10 592l-7 6q-106 10 -264 11 l-114 -473zM375 1546q115 125 262 168q121 -63 244 -63q92 0 133 49l37 -23q-115 -125 -213 -168q-43 0 -148.5 32t-148.5 32q-88 0 -129 -49z" />
<glyph unicode="&#xc4;" horiz-adv-x="1226" d="M-111 35q92 29 197 43l324 1147q-242 0 -310 -66q-14 -29 -14 -94q0 -57 20 -80l-2 -14q-51 -31 -102 -86q-25 2 -40 20.5t-15 42.5q0 100 121 239.5t225 176.5q309 -35 627 -59q29 37 47 94l43 -13q-29 -143 -39 -294.5t-10 -485.5q0 -338 26 -534q109 -10 225 -39 l-6 -49q-152 16 -319 16q-186 0 -295 -16l-8 51q92 29 196 43q16 135 23 436q-106 12 -209 12q-154 0 -242 -12q-49 -201 -49 -307q0 -135 88 -187l-8 -28q-63 8 -197 8q-168 0 -288 -16zM375 616q92 -14 219 -14q125 0 209 14q0 362 -10 592l-7 6q-106 10 -264 11 l-114 -473zM414 1645q12 25 47 56.5t63 45.5q27 -16 62 -47.5t49 -54.5q-14 -27 -50 -68t-61 -57q-25 16 -60.5 57t-49.5 68zM793 1645q12 25 46.5 56.5t63.5 45.5q27 -16 62 -47.5t49 -54.5q-14 -27 -50 -68t-61 -57q-25 16 -60.5 57t-49.5 68z" />
<glyph unicode="&#xc5;" horiz-adv-x="1226" d="M-111 35q92 29 197 43l324 1147q-242 0 -310 -66q-14 -29 -14 -94q0 -57 20 -80l-2 -14q-51 -31 -102 -86q-25 2 -40 20.5t-15 42.5q0 100 121 239.5t225 176.5q309 -35 627 -59q29 37 47 94l43 -13q-29 -143 -39 -294.5t-10 -485.5q0 -338 26 -534q109 -10 225 -39 l-6 -49q-152 16 -319 16q-186 0 -295 -16l-8 51q92 29 196 43q16 135 23 436q-106 12 -209 12q-154 0 -242 -12q-49 -201 -49 -307q0 -135 88 -187l-8 -28q-63 8 -197 8q-168 0 -288 -16zM375 616q92 -14 219 -14q125 0 209 14q0 362 -10 592l-7 6q-106 10 -264 11 l-114 -473zM498 1591q0 82 60.5 142.5t148.5 78.5q186 0 186 -151q0 -80 -54 -136.5t-142 -82.5q-84 0 -141.5 38.5t-57.5 110.5zM594 1634q0 -53 33 -87t86 -34q39 0 61 19q23 33 23 88t-32 88t-87 33q-41 0 -61 -19q-23 -35 -23 -88z" />
<glyph unicode="&#xc6;" horiz-adv-x="1523" d="M-111 35q92 29 197 43l426 1179q-242 0 -309 -65q-14 -29 -15 -94q0 -57 21 -80l-2 -14q-51 -31 -103 -86q-25 2 -40 20t-15 43q0 100 121 239.5t225 176.5q282 -64 563 -64q276 0 543 23l8 -41q-106 -109 -120 -324h-52q-18 88 -18 223q-88 43 -221 43q-98 0 -156 -10 q-14 -45 -24 -123q-16 -143 -27 -376q63 -14 158 -15q182 0 223 88l41 -8q-18 -66 -19 -158q0 -89 13 -178l-47 -8q-31 78 -41 182q-76 6 -170 6q-90 0 -160 -10v-88q0 -102 10 -172t38 -132t85 -93t145 -31q147 0 303 160l29 -27q-170 -225 -375 -295q-227 0 -317 142.5 t-86 404.5l2 129q-63 12 -148 12q-104 0 -155 -12l-29 -94q-78 -258 -78 -365q0 -121 78 -166l-8 -28q-63 8 -197 8q-168 0 -288 -16zM457 745q47 -12 123 -12q96 0 147 15q4 76 9 166t9.5 148t4.5 81q0 76 -7 108q-27 6 -65.5 6t-73.5 -6z" />
<glyph unicode="&#xc7;" horiz-adv-x="1019" d="M86 543q0 283 150.5 517t404.5 304q207 0 422 -39l-2 -45q-53 0 -98 -18q-51 -121 -68 -283h-51q-18 82 -19 190q-96 51 -231 52q-133 0 -221 -74q-104 -178 -105 -453q0 -121 15.5 -214t51.5 -176t109.5 -128t178.5 -45q166 0 333 160l29 -27q-170 -217 -405 -295 q-27 0 -39 2l-25 -65l8 -6q94 0 152.5 -43t58.5 -129q-29 -55 -83 -101.5t-113 -66.5q-90 0 -181 43q20 39 33 80l8 4q66 -51 140 -52q37 0 53 11q18 27 18 63q0 92 -170 92l-12 9l59 167q-201 29 -301 178.5t-100 387.5z" />
<glyph unicode="&#xc8;" horiz-adv-x="1050" d="M104 379q0 141 119 235.5t271 94.5v8q-139 8 -232.5 77.5t-93.5 192.5q74 131 195.5 235.5t261.5 141.5q145 0 286 -39q33 16 84 64l43 -29q-135 -164 -166 -391h-53q0 112 -10 190q-98 57 -236 58q-133 0 -217 -70q-31 -383 349 -383l-11 -76h-24q-162 0 -267.5 -64.5 t-105.5 -201.5q0 -150 98.5 -228.5t247.5 -78.5q117 0 193 49q14 29 14 94q0 57 -21 80l2 14q51 31 103 86q25 -2 40 -20.5t15 -42.5q0 -125 -117.5 -243t-257.5 -163q-219 0 -364.5 106.5t-145.5 303.5zM264 1651q-2 20 9.5 64t21.5 63q41 14 86 18q154 -184 321 -258 l-16 -41z" />
<glyph unicode="&#xc9;" horiz-adv-x="1050" d="M102 379q0 141 119 235.5t271 94.5v8q-139 8 -232.5 77.5t-93.5 192.5q74 131 195.5 235.5t261.5 141.5q145 0 286 -39q33 16 84 64l43 -29q-135 -164 -166 -391h-53q0 112 -10 190q-98 57 -236 58q-133 0 -217 -70q-31 -383 348 -383l-10 -76h-24q-162 0 -267.5 -64.5 t-105.5 -201.5q0 -150 98.5 -228.5t247.5 -78.5q117 0 193 49q14 29 14 94q0 57 -21 80l2 14q51 31 103 86q25 -2 40 -20.5t15 -42.5q0 -125 -117.5 -243t-257.5 -163q-219 0 -364.5 106.5t-145.5 303.5zM539 1520q168 74 321 258q45 -4 86 -19q10 -18 21.5 -62.5t9.5 -64.5 l-422 -153z" />
<glyph unicode="&#xca;" horiz-adv-x="1050" d="M102 379q0 141 119 235.5t271 94.5v8q-139 8 -232.5 77.5t-93.5 192.5q74 131 195.5 235.5t261.5 141.5q145 0 286 -39q33 16 84 64l43 -29q-135 -164 -166 -391h-53q0 112 -10 190q-98 57 -236 58q-133 0 -217 -70q-31 -383 348 -383l-10 -76h-24q-162 0 -267.5 -64.5 t-105.5 -201.5q0 -150 98.5 -228.5t247.5 -78.5q117 0 193 49q14 29 14 94q0 57 -21 80l2 14q51 31 103 86q25 -2 40 -20.5t15 -42.5q0 -125 -117.5 -243t-257.5 -163q-219 0 -364.5 106.5t-145.5 303.5zM270 1503q188 119 330 309h41q141 -190 330 -309l-21 -39l-329 154 l-330 -154z" />
<glyph unicode="&#xcb;" horiz-adv-x="1050" d="M102 379q0 141 119 235.5t271 94.5v8q-139 8 -232.5 77.5t-93.5 192.5q74 131 195.5 235.5t261.5 141.5q145 0 286 -39q33 16 84 64l43 -29q-135 -164 -166 -391h-53q0 112 -10 190q-98 57 -236 58q-133 0 -217 -70q-31 -383 348 -383l-10 -76h-24q-162 0 -267.5 -64.5 t-105.5 -201.5q0 -150 98.5 -228.5t247.5 -78.5q117 0 193 49q14 29 14 94q0 57 -21 80l2 14q51 31 103 86q25 -2 40 -20.5t15 -42.5q0 -125 -117.5 -243t-257.5 -163q-219 0 -364.5 106.5t-145.5 303.5zM324 1645q12 25 47 56.5t63 45.5q27 -16 62 -47.5t49 -54.5 q-14 -27 -50 -68t-61 -57q-25 16 -60.5 57t-49.5 68zM702 1645q12 25 47 56.5t64 45.5q27 -16 62 -47.5t49 -54.5q-14 -27 -50 -68t-61 -57q-25 16 -60.5 57t-50.5 68z" />
<glyph unicode="&#xcc;" horiz-adv-x="690" d="M43 1298l8 52q109 -16 295 -17q168 0 320 17l6 -50q-117 -28 -226 -38q-23 -154 -22 -535q0 -459 27 -655q109 -10 225 -39l-6 -49q-152 16 -320 16q-186 0 -295 -16l-8 51q92 29 197 43q23 168 22 528v121q0 332 -26 528q-104 14 -197 43zM47 1651q-2 20 9.5 64t21.5 63 q41 14 86 18q154 -184 321 -258l-16 -41z" />
<glyph unicode="&#xcd;" horiz-adv-x="690" d="M43 1298l8 52q109 -16 295 -17q168 0 320 17l6 -50q-117 -28 -226 -38q-23 -154 -22 -535q0 -459 27 -655q109 -10 225 -39l-6 -49q-152 16 -320 16q-186 0 -295 -16l-8 51q92 29 197 43q23 168 22 528v121q0 332 -26 528q-104 14 -197 43zM207 1520q168 74 321 258 q45 -4 86 -19q10 -18 21.5 -62.5t9.5 -64.5l-422 -153z" />
<glyph unicode="&#xce;" horiz-adv-x="690" d="M6 1503q188 119 330 309h41q141 -190 330 -309l-21 -39l-330 154l-329 -154z" />
<glyph unicode="&#xcf;" horiz-adv-x="690" d="M43 1298l8 52q109 -16 295 -17q168 0 320 17l6 -50q-117 -28 -226 -38q-23 -154 -22 -535q0 -459 27 -655q109 -10 225 -39l-6 -49q-152 16 -320 16q-186 0 -295 -16l-8 51q92 29 197 43q23 168 22 528v121q0 332 -26 528q-104 14 -197 43zM55 1645q12 25 47 56.5 t64 45.5q27 -16 61.5 -47.5t48.5 -54.5q-14 -27 -50 -68t-60 -57q-25 16 -60.5 57t-50.5 68zM434 1645q12 25 47 56.5t64 45.5q27 -16 61.5 -47.5t48.5 -54.5q-14 -27 -50 -68t-60 -57q-25 16 -60.5 57t-50.5 68z" />
<glyph unicode="&#xd0;" horiz-adv-x="1269" d="M-205 948q0 94 107.5 223t206.5 179q174 -16 516 -17q559 0 559 -542q0 -285 -149.5 -516.5t-405.5 -305.5q-147 0 -330 78q-35 -53 -47 -92l-43 10q49 221 49 699q-125 -6 -219 -19l-6 8q12 41 14 66l211 6q-2 289 -18 500q-227 -4 -291 -66q-14 -29 -15 -94 q0 -57 21 -80l-2 -14q-51 -31 -103 -86q-25 2 -40 20.5t-15 42.5zM416 666q0 -313 10 -492q111 -57 270 -57q123 0 201 69q104 190 104 469q0 283 -87 432.5t-322 149.5q-94 0 -158 -10q-18 -178 -18 -496l125 4q131 6 172 10q8 -41 18 -63v-10l-250 -4z" />
<glyph unicode="&#xd1;" horiz-adv-x="1445" d="M-221 944q0 100 120.5 239.5t225.5 176.5q25 -2 138.5 -14.5t189.5 -12.5q72 0 135 13l8 -52q-84 -35 -84 -67q10 -55 116.5 -232.5t434.5 -687.5l8 4v295q0 350 -30.5 513t-116.5 194l8 28q63 -8 192 -8q158 0 279 17l6 -47q-145 -35 -203 -41q-27 -201 -26 -535v-121 q0 -383 26 -534q104 -12 197 -37l-8 -51q-109 16 -258 16q-70 0 -138 -6q0 68 -133 301t-483 780l-8 -4v-344q0 -502 76 -655q113 -10 223 -39l-4 -49q-152 16 -320 16q-186 0 -295 -16l-8 51q92 29 197 43q23 168 22 528v121q0 289 -24 494q-242 0 -310 -66 q-14 -29 -14 -94q0 -57 21 -80l-2 -14q-51 -31 -103 -86q-25 2 -40 20.5t-15 42.5zM412 1546q115 125 262 168q121 -63 244 -63q92 0 133 49l36 -23q-115 -125 -213 -168q-43 0 -148 32t-148 32q-88 0 -129 -49z" />
<glyph unicode="&#xd2;" horiz-adv-x="1232" d="M86 543q0 418 303 692l25 -16q-145 -211 -146 -525q0 -223 103.5 -400t287.5 -177q121 0 203 71q102 188 103 447q0 156 -29 281.5t-99.5 213t-174.5 87.5q-53 0 -98.5 -31t-63.5 -80q0 -41 18.5 -95.5t46.5 -68.5l4 -14q-45 -55 -67 -117q-4 -2 -17 -2q-74 0 -73 131 q0 221 229 424q250 0 378 -149.5t128 -421.5q0 -283 -140.5 -505t-390.5 -319q-240 0 -385 159t-145 415zM346 1651q-2 20 9.5 64t21.5 63q41 14 86 18q154 -184 321 -258l-16 -41z" />
<glyph unicode="&#xd3;" horiz-adv-x="1232" d="M86 543q0 418 303 692l25 -16q-145 -211 -146 -525q0 -223 103.5 -400t287.5 -177q121 0 203 71q102 188 103 447q0 156 -29 281.5t-99.5 213t-174.5 87.5q-53 0 -98.5 -31t-63.5 -80q0 -41 18.5 -95.5t46.5 -68.5l4 -14q-45 -55 -67 -117q-4 -2 -17 -2q-74 0 -73 131 q0 221 229 424q250 0 378 -149.5t128 -421.5q0 -283 -140.5 -505t-390.5 -319q-240 0 -385 159t-145 415zM555 1520q168 74 322 258q45 -4 86 -19q10 -18 21 -62.5t9 -64.5l-422 -153z" />
<glyph unicode="&#xd4;" horiz-adv-x="1232" d="M86 543q0 418 303 692l25 -16q-145 -211 -146 -525q0 -223 103.5 -400t287.5 -177q121 0 203 71q102 188 103 447q0 156 -29 281.5t-99.5 213t-174.5 87.5q-53 0 -98.5 -31t-63.5 -80q0 -41 18.5 -95.5t46.5 -68.5l4 -14q-45 -55 -67 -117q-4 -2 -17 -2q-74 0 -73 131 q0 221 229 424q250 0 378 -149.5t128 -421.5q0 -283 -140.5 -505t-390.5 -319q-240 0 -385 159t-145 415zM307 1503q188 119 330 309h41q141 -190 330 -309l-21 -39l-330 154l-329 -154z" />
<glyph unicode="&#xd5;" horiz-adv-x="1232" d="M86 543q0 418 303 692l25 -16q-145 -211 -146 -525q0 -223 103.5 -400t287.5 -177q121 0 203 71q102 188 103 447q0 156 -29 281.5t-99.5 213t-174.5 87.5q-53 0 -98.5 -31t-63.5 -80q0 -41 18.5 -95.5t46.5 -68.5l4 -14q-45 -55 -67 -117q-4 -2 -17 -2q-74 0 -73 131 q0 221 229 424q250 0 378 -149.5t128 -421.5q0 -283 -140.5 -505t-390.5 -319q-240 0 -385 159t-145 415zM322 1546q115 125 262 168q121 -63 243 -63q92 0 134 49l36 -23q-115 -125 -213 -168q-43 0 -148.5 32t-148.5 32q-88 0 -129 -49z" />
<glyph unicode="&#xd6;" horiz-adv-x="1232" d="M86 543q0 418 303 692l25 -16q-145 -211 -146 -525q0 -223 103.5 -400t287.5 -177q121 0 203 71q102 188 103 447q0 156 -29 281.5t-99.5 213t-174.5 87.5q-53 0 -98.5 -31t-63.5 -80q0 -41 18.5 -95.5t46.5 -68.5l4 -14q-45 -55 -67 -117q-4 -2 -17 -2q-74 0 -73 131 q0 221 229 424q250 0 378 -149.5t128 -421.5q0 -283 -140.5 -505t-390.5 -319q-240 0 -385 159t-145 415zM358 1645q12 25 47 56.5t64 45.5q27 -16 62 -47.5t49 -54.5q-14 -27 -50 -68t-61 -57q-25 16 -60.5 57t-50.5 68zM737 1645q12 25 47 56.5t64 45.5q27 -16 61.5 -47.5 t48.5 -54.5q-14 -27 -50 -68t-60 -57q-25 16 -60.5 57t-50.5 68z" />
<glyph unicode="&#xd7;" horiz-adv-x="1126" d="M166 182q266 238 334 307l-314 310l78 71l17 -2q88 -98 288 -309l289 309l16 2l78 -71l-315 -310q57 -59 113.5 -110t127 -113.5t95.5 -83.5l-58 -80h-22l-324 318l-323 -318h-23z" />
<glyph unicode="&#xd8;" horiz-adv-x="1232" d="M86 543q0 418 303 692l25 -16q-145 -211 -146 -525q0 -223 103.5 -400t287.5 -177q121 0 203 71q102 188 103 447q0 156 -29 281.5t-99.5 213t-174.5 87.5q-53 0 -98.5 -31t-63.5 -80q0 -41 18.5 -95.5t46.5 -68.5l4 -14q-45 -55 -67 -117q-4 -2 -17 -2q-74 0 -73 131 q0 221 229 424q250 0 378 -149.5t128 -421.5q0 -283 -140.5 -505t-390.5 -319q-240 0 -385 159t-145 415zM260 -129q98 219 176 422l287 754q82 213 160 452q47 4 78 14l8 -6q-27 -61 -170 -434l-475 -1251h-11q-33 18 -53 49z" />
<glyph unicode="&#xd9;" horiz-adv-x="1361" d="M-229 944q0 100 120.5 239.5t225.5 176.5q47 -2 123.5 -14.5t136.5 -12.5q68 0 125 8l8 -28q-92 -51 -107 -189q-29 -258 -28 -559q0 -100 10 -170.5t40 -133t91.5 -94.5t153.5 -32q156 0 258 94q10 266 10 435q0 365 -23 598q-104 14 -196 43l8 45q125 -16 291 -17 q193 0 323 17l7 -43q-117 -29 -226 -39q-27 -152 -26 -541v-121q0 -383 26 -534q109 -10 226 -39l-7 -49q-131 16 -319 16q-82 0 -119 -2l-6 29q18 23 27 145q-119 -133 -299 -203q-231 0 -322.5 134.5t-91.5 390.5q0 117 14.5 370.5t14.5 278.5q0 37 -7 78q-242 0 -309 -66 q-14 -29 -14 -94q0 -57 20 -80l-2 -14q-51 -31 -102 -86q-25 2 -40 20.5t-15 42.5zM381 1651q-2 20 9 64t22 63q41 14 86 18q154 -184 321 -258l-16 -41z" />
<glyph unicode="&#xda;" horiz-adv-x="1361" d="M-229 944q0 100 120.5 239.5t225.5 176.5q47 -2 123.5 -14.5t136.5 -12.5q68 0 125 8l8 -28q-92 -51 -107 -189q-29 -258 -28 -559q0 -100 10 -170.5t40 -133t91.5 -94.5t153.5 -32q156 0 258 94q10 266 10 435q0 365 -23 598q-104 14 -196 43l8 45q125 -16 291 -17 q193 0 323 17l7 -43q-117 -29 -226 -39q-27 -152 -26 -541v-121q0 -383 26 -534q109 -10 226 -39l-7 -49q-131 16 -319 16q-82 0 -119 -2l-6 29q18 23 27 145q-119 -133 -299 -203q-231 0 -322.5 134.5t-91.5 390.5q0 117 14.5 370.5t14.5 278.5q0 37 -7 78q-242 0 -309 -66 q-14 -29 -14 -94q0 -57 20 -80l-2 -14q-51 -31 -102 -86q-25 2 -40 20.5t-15 42.5zM664 1520q168 74 321 258q45 -4 86 -19q10 -18 21.5 -62.5t9.5 -64.5l-422 -153z" />
<glyph unicode="&#xdb;" horiz-adv-x="1361" d="M-229 944q0 100 120.5 239.5t225.5 176.5q47 -2 123.5 -14.5t136.5 -12.5q68 0 125 8l8 -28q-92 -51 -107 -189q-29 -258 -28 -559q0 -100 10 -170.5t40 -133t91.5 -94.5t153.5 -32q156 0 258 94q10 266 10 435q0 365 -23 598q-104 14 -196 43l8 45q125 -16 291 -17 q193 0 323 17l7 -43q-117 -29 -226 -39q-27 -152 -26 -541v-121q0 -383 26 -534q109 -10 226 -39l-7 -49q-131 16 -319 16q-82 0 -119 -2l-6 29q18 23 27 145q-119 -133 -299 -203q-231 0 -322.5 134.5t-91.5 390.5q0 117 14.5 370.5t14.5 278.5q0 37 -7 78q-242 0 -309 -66 q-14 -29 -14 -94q0 -57 20 -80l-2 -14q-51 -31 -102 -86q-25 2 -40 20.5t-15 42.5zM377 1503q188 119 330 309h41q141 -190 329 -309l-20 -39l-330 154l-330 -154z" />
<glyph unicode="&#xdc;" horiz-adv-x="1361" d="M-229 944q0 100 120.5 239.5t225.5 176.5q47 -2 123.5 -14.5t136.5 -12.5q68 0 125 8l8 -28q-92 -51 -107 -189q-29 -258 -28 -559q0 -100 10 -170.5t40 -133t91.5 -94.5t153.5 -32q156 0 258 94q10 266 10 435q0 365 -23 598q-104 14 -196 43l8 45q125 -16 291 -17 q193 0 323 17l7 -43q-117 -29 -226 -39q-27 -152 -26 -541v-121q0 -383 26 -534q109 -10 226 -39l-7 -49q-131 16 -319 16q-82 0 -119 -2l-6 29q18 23 27 145q-119 -133 -299 -203q-231 0 -322.5 134.5t-91.5 390.5q0 117 14.5 370.5t14.5 278.5q0 37 -7 78q-242 0 -309 -66 q-14 -29 -14 -94q0 -57 20 -80l-2 -14q-51 -31 -102 -86q-25 2 -40 20.5t-15 42.5zM428 1645q12 25 47 56.5t64 45.5q27 -16 61.5 -47.5t48.5 -54.5q-14 -27 -50 -68t-60 -57q-25 16 -61 57t-50 68zM807 1645q12 25 47 56.5t64 45.5q27 -16 61.5 -47.5t48.5 -54.5 q-14 -27 -50 -68t-60 -57q-25 16 -61 57t-50 68z" />
<glyph unicode="&#xdd;" horiz-adv-x="1116" d="M-340 1516q0 29 34 48t95 19q129 0 304 -71.5t243 -147.5q43 -184 95 -316.5t165 -357.5q227 444 227 557q0 45 -41 66l9 28q102 -8 170 -8q160 0 266 17l10 -52q-98 -31 -199 -43l-401 -645q0 -342 27 -538q109 -10 225 -39l-6 -49q-152 16 -320 16q-186 0 -295 -16 l-8 51q93 29 197 43q23 168 22 424v53l-348 745q-80 172 -174 216q-37 0 -90 -27t-66 -53l-12 -4q-55 37 -123 57q-6 12 -6 27zM571 1520q168 74 322 258q45 -4 86 -19q10 -18 21.5 -62.5t9.5 -64.5l-422 -153z" />
<glyph unicode="&#xde;" horiz-adv-x="1058" d="M43 1298l8 52q109 -16 295 -17q168 0 320 17l6 -50q-117 -28 -226 -38q-8 -39 -14 -187q29 0 96.5 3t96.5 3q422 0 422 -336q0 -182 -149.5 -294.5t-348.5 -112.5q-31 0 -45 2l8 66h25q154 0 235.5 77.5t81.5 231.5q0 145 -63.5 218t-200.5 73q-82 0 -160 -27h-2 q-4 -82 -4 -252q0 -459 27 -655q109 -10 225 -39l-6 -49q-152 16 -320 16q-186 0 -295 -16l-8 51q92 29 197 43q23 168 22 528v121q0 332 -26 528q-104 14 -197 43z" />
<glyph unicode="&#xdf;" horiz-adv-x="1705" d="M43 -14q115 125 127 309h51q0 -74 6 -141v2q94 -39 186.5 -39t147.5 43t55 123q0 47 -72.5 102t-159.5 100t-159.5 109.5t-72.5 128.5q0 109 114.5 219.5t235.5 149.5q152 0 274 -31v-37q-86 -86 -96 -236h-51q0 57 -11 144q-72 33 -159 33q-76 0 -130.5 -36t-54.5 -104 q0 -47 73 -102t159 -98t158.5 -106.5t72.5 -127.5q0 -123 -108.5 -245t-239.5 -171q-129 0 -242 31q-33 -14 -67 -47zM905 -14q115 125 127 309h51q0 -74 7 -141v2q94 -39 186 -39t147.5 43t55.5 123q0 47 -73 102t-160 100t-159.5 109.5t-72.5 128.5q0 109 114.5 219.5 t235.5 149.5q152 0 274 -31v-37q-86 -86 -96 -236h-51q0 57 -10 144q-72 33 -160 33q-76 0 -130 -36t-54 -104q0 -47 72.5 -102t158.5 -98t158.5 -106.5t72.5 -127.5q0 -123 -108.5 -245t-239.5 -171q-129 0 -241 31q-33 -14 -68 -47z" />
<glyph unicode="&#xe0;" horiz-adv-x="1095" d="M-29 37q49 18 135 33l267 934q-90 14 -158 32l6 54q193 -23 371 -23q215 0 405 23l9 -54q-61 -25 -127 -37q-23 -168 -23 -419q0 -346 23 -514q41 -6 151 -31l-8 -51q-98 16 -254 16q-152 0 -233 -16l-9 53q70 23 158 33q12 119 18 329q-96 10 -182 11q-106 0 -178 -11 q-41 -170 -41 -233q0 -100 72 -141l-8 -35q-47 10 -156 10q-154 0 -229 -16zM272 1366q2 20 19.5 62t32.5 59q35 6 88 2q49 -86 121.5 -172t148.5 -137l-23 -37zM358 496q80 -13 162 -13q113 0 182 13q0 379 -16 489q-70 4 -98 4q-39 0 -109 -4l-94 -383z" />
<glyph unicode="&#xe1;" horiz-adv-x="1095" d="M-29 37q49 18 135 33l267 934q-90 14 -158 32l6 54q193 -23 371 -23q215 0 405 23l9 -54q-61 -25 -127 -37q-23 -168 -23 -419q0 -346 23 -514q41 -6 151 -31l-8 -51q-98 16 -254 16q-152 0 -233 -16l-9 53q70 23 158 33q12 119 18 329q-96 10 -182 11q-106 0 -178 -11 q-41 -170 -41 -233q0 -100 72 -141l-8 -35q-47 10 -156 10q-154 0 -229 -16zM358 496q80 -13 162 -13q113 0 182 13q0 379 -16 489q-70 4 -98 4q-39 0 -109 -4l-94 -383zM555 1180q76 51 148.5 137t121.5 172q53 4 88 -2q14 -16 32 -58.5t20 -62.5l-387 -223z" />
<glyph unicode="&#xe2;" horiz-adv-x="1095" d="M-29 37q49 18 135 33l267 934q-90 14 -158 32l6 54q193 -23 371 -23q215 0 405 23l9 -54q-61 -25 -127 -37q-23 -168 -23 -419q0 -346 23 -514q41 -6 151 -31l-8 -51q-98 16 -254 16q-152 0 -233 -16l-9 53q70 23 158 33q12 119 18 329q-96 10 -182 11q-106 0 -178 -11 q-41 -170 -41 -233q0 -100 72 -141l-8 -35q-47 10 -156 10q-154 0 -229 -16zM358 496q80 -13 162 -13q113 0 182 13q0 379 -16 489q-70 4 -98 4q-39 0 -109 -4l-94 -383zM322 1169q172 145 281 344h41q109 -199 280 -344l-27 -34l-274 184l-274 -184z" />
<glyph unicode="&#xe3;" horiz-adv-x="1095" d="M-29 37q49 18 135 33l267 934q-90 14 -158 32l6 54q193 -23 371 -23q215 0 405 23l9 -54q-61 -25 -127 -37q-23 -168 -23 -419q0 -346 23 -514q41 -6 151 -31l-8 -51q-98 16 -254 16q-152 0 -233 -16l-9 53q70 23 158 33q12 119 18 329q-96 10 -182 11q-106 0 -178 -11 q-41 -170 -41 -233q0 -100 72 -141l-8 -35q-47 10 -156 10q-154 0 -229 -16zM358 496q80 -13 162 -13q113 0 182 13q0 379 -16 489q-70 4 -98 4q-39 0 -109 -4l-94 -383zM303 1257q115 125 262 168q121 -63 244 -63q92 0 133 49l37 -22q-115 -125 -213 -168 q-43 0 -148.5 31.5t-148.5 31.5q-88 0 -129 -49z" />
<glyph unicode="&#xe4;" horiz-adv-x="1095" d="M-29 37q49 18 135 33l267 934q-90 14 -158 32l6 54q193 -23 371 -23q215 0 405 23l9 -54q-61 -25 -127 -37q-23 -168 -23 -419q0 -346 23 -514q41 -6 151 -31l-8 -51q-98 16 -254 16q-152 0 -233 -16l-9 53q70 23 158 33q12 119 18 329q-96 10 -182 11q-106 0 -178 -11 q-41 -170 -41 -233q0 -100 72 -141l-8 -35q-47 10 -156 10q-154 0 -229 -16zM309 1354q12 25 47 56.5t64 45.5q27 -16 61.5 -47.5t48.5 -54.5q-14 -27 -50 -68t-60 -57q-25 16 -60.5 57t-50.5 68zM358 496q80 -13 162 -13q113 0 182 13q0 379 -16 489q-70 4 -98 4 q-39 0 -109 -4l-94 -383zM688 1354q12 25 47 56.5t64 45.5q27 -16 61.5 -47.5t48.5 -54.5q-14 -27 -50 -68t-60 -57q-25 16 -61 57t-50 68z" />
<glyph unicode="&#xe5;" horiz-adv-x="1052" d="M-29 37q49 18 135 33l267 934q-90 14 -158 32l6 54q193 -23 371 -23q215 0 405 23l9 -54q-61 -25 -127 -37q-23 -168 -23 -419q0 -346 23 -514q41 -6 151 -31l-8 -51q-98 16 -254 16q-152 0 -233 -16l-9 53q70 23 158 33q12 119 18 329q-96 10 -182 11q-106 0 -178 -11 q-41 -170 -41 -233q0 -100 72 -141l-8 -35q-47 10 -156 10q-154 0 -229 -16zM358 496q80 -13 162 -13q113 0 182 13q0 379 -16 489q-70 4 -98 4q-39 0 -109 -4l-94 -383zM438 1292q0 82 60.5 142.5t148.5 78.5q186 0 187 -151q0 -80 -54.5 -136.5t-142.5 -82.5 q-84 0 -141.5 38.5t-57.5 110.5zM534.5 1335q0.5 -53 33 -87t85.5 -34q39 0 62 19q23 33 22.5 88t-32.5 88t-87 33q-41 0 -61 -19q-23 -35 -22.5 -88z" />
<glyph unicode="&#xe6;" horiz-adv-x="1296" d="M-33 37q49 19 135 33l324 934q-96 16 -152 32l7 54q193 -23 454 -23q287 0 537 25l10 -41q-82 -86 -92 -250h-51q-14 68 -15 164q-72 35 -178 34q-88 0 -125 -8q-14 -39 -20 -96q-12 -100 -23 -285q72 -14 142 -14q125 0 159 72l43 -6q-18 -61 -18 -134q0 -47 14 -133 l-49 -8q-23 61 -33 127q-82 8 -116 8q-55 0 -142 -10v-61q0 -162 46 -247t180 -85q129 0 243 114l23 -20q-139 -180 -303 -238q-356 0 -346 435l2 102q-57 10 -117 10q-80 0 -123 -10l-18 -66q-61 -221 -62 -288q0 -98 62 -133l-9 -35q-47 10 -153 10q-152 0 -228 -16z M414 606q39 -10 96 -10q74 0 115 12q4 82 11 178.5t7 114.5q0 59 -4 86q-25 6 -53.5 6t-55.5 -6z" />
<glyph unicode="&#xe7;" horiz-adv-x="792" d="M92 434q0 221 133 409.5t340 248.5q150 0 338 -31l-2 -45q-39 0 -74 -15q-39 -92 -51 -219h-51q-16 70 -16 144q-78 39 -181 39q-111 0 -180 -58q-80 -145 -80 -352q0 -98 11.5 -170t40 -135.5t87 -97t144.5 -33.5q141 0 266 125l29 -29q-137 -174 -330 -240 q-199 0 -311.5 126t-112.5 333zM299 -397q20 39 33 80l8 4q66 -51 139 -52q37 0 53 11q18 27 19 63q0 92 -170 92l-12 9l77 219l60 4l-49 -127l8 -6q94 0 152.5 -43t58.5 -129q-29 -55 -83 -101.5t-114 -66.5q-90 0 -180 43z" />
<glyph unicode="&#xe8;" horiz-adv-x="917" d="M92 434q0 221 133 409.5t340 248.5q150 0 338 -31l-2 -45q-39 0 -74 -15q-39 -92 -51 -219h-51q-16 70 -16 144q-78 39 -181 39q-111 0 -180 -58q-70 -127 -80 -303q86 -14 185 -14q170 0 204 72l43 -7q-18 -61 -18 -133q0 -47 14 -133l-49 -8q-23 61 -33 127 q-82 8 -161 8q-83 0 -185 -10q6 -182 67.5 -284.5t215.5 -102.5q141 0 266 125l29 -29q-137 -174 -330 -240q-199 0 -311.5 126t-112.5 333zM244 1366q2 20 19.5 62t31.5 59q35 6 88 2q49 -86 122 -172t149 -137l-23 -37z" />
<glyph unicode="&#xe9;" horiz-adv-x="917" d="M92 434q0 221 133 409.5t340 248.5q150 0 338 -31l-2 -45q-39 0 -74 -15q-39 -92 -51 -219h-51q-16 70 -16 144q-78 39 -181 39q-111 0 -180 -58q-70 -127 -80 -303q86 -14 185 -14q170 0 204 72l43 -7q-18 -61 -18 -133q0 -47 14 -133l-49 -8q-23 61 -33 127 q-82 8 -161 8q-83 0 -185 -10q6 -182 67.5 -284.5t215.5 -102.5q141 0 266 125l29 -29q-137 -174 -330 -240q-199 0 -311.5 126t-112.5 333zM440 1180q76 51 149 137t122 172q53 4 88 -2q14 -16 31.5 -58.5t19.5 -62.5l-387 -223z" />
<glyph unicode="&#xea;" horiz-adv-x="917" d="M92 434q0 221 133 409.5t340 248.5q150 0 338 -31l-2 -45q-39 0 -74 -15q-39 -92 -51 -219h-51q-16 70 -16 144q-78 39 -181 39q-111 0 -180 -58q-70 -127 -80 -303q86 -14 185 -14q170 0 204 72l43 -7q-18 -61 -18 -133q0 -47 14 -133l-49 -8q-23 61 -33 127 q-82 8 -161 8q-83 0 -185 -10q6 -182 67.5 -284.5t215.5 -102.5q141 0 266 125l29 -29q-137 -174 -330 -240q-199 0 -311.5 126t-112.5 333zM248 1169q172 145 280 344h41q109 -199 281 -344l-27 -34l-274 184l-275 -184z" />
<glyph unicode="&#xeb;" horiz-adv-x="917" d="M92 434q0 221 133 409.5t340 248.5q150 0 338 -31l-2 -45q-39 0 -74 -15q-39 -92 -51 -219h-51q-16 70 -16 144q-78 39 -181 39q-111 0 -180 -58q-70 -127 -80 -303q86 -14 185 -14q170 0 204 72l43 -7q-18 -61 -18 -133q0 -47 14 -133l-49 -8q-23 61 -33 127 q-82 8 -161 8q-83 0 -185 -10q6 -182 67.5 -284.5t215.5 -102.5q141 0 266 125l29 -29q-137 -174 -330 -240q-199 0 -311.5 126t-112.5 333zM250 1354q12 25 47 56.5t64 45.5q27 -16 61.5 -47.5t48.5 -54.5q-14 -27 -50 -68t-60 -57q-25 16 -61 57t-50 68zM629 1354 q12 25 47 56.5t63 45.5q27 -16 62 -47.5t49 -54.5q-14 -27 -50 -68t-61 -57q-25 16 -60.5 57t-49.5 68z" />
<glyph unicode="&#xec;" horiz-adv-x="632" d="M90 1030l8 53q104 -16 234 -16q135 0 241 14l7 -51q-78 -20 -170 -31q-17 -110 -17 -419q0 -375 19 -512q92 -10 170 -31l-7 -51q-106 14 -241 14q-129 0 -234 -16l-8 53q57 18 129 31q18 147 19 417v97q0 270 -21 417q-72 12 -129 31zM61 1366q2 20 19.5 62t31.5 59 q35 6 88 2q49 -86 122 -172t149 -137l-23 -37z" />
<glyph unicode="&#xed;" horiz-adv-x="632" d="M90 1030l8 53q104 -16 234 -16q135 0 241 14l7 -51q-78 -20 -170 -31q-17 -110 -17 -419q0 -375 19 -512q92 -10 170 -31l-7 -51q-106 14 -241 14q-129 0 -234 -16l-8 53q57 18 129 31q18 147 19 417v97q0 270 -21 417q-72 12 -129 31zM184 1180q76 51 149 137t122 172 q53 4 88 -2q14 -16 31.5 -58.5t19.5 -62.5l-387 -223z" />
<glyph unicode="&#xee;" horiz-adv-x="632" d="M29 1169q172 145 280 344h41q109 -199 281 -344l-27 -34l-274 184l-275 -184zM90 1030l8 53q104 -16 234 -16q135 0 241 14l7 -51q-78 -20 -170 -31q-17 -110 -17 -419q0 -375 19 -512q92 -10 170 -31l-7 -51q-106 14 -241 14q-129 0 -234 -16l-8 53q57 18 129 31 q18 147 19 417v97q0 270 -21 417q-72 12 -129 31z" />
<glyph unicode="&#xef;" horiz-adv-x="632" d="M45 1354q12 25 47 56.5t64 45.5q27 -16 61.5 -47.5t48.5 -54.5q-14 -27 -50 -68t-60 -57q-25 16 -61 57t-50 68zM90 1030l8 53q104 -16 234 -16q135 0 241 14l7 -51q-78 -20 -170 -31q-17 -110 -17 -419q0 -375 19 -512q92 -10 170 -31l-7 -51q-106 14 -241 14 q-129 0 -234 -16l-8 53q57 18 129 31q18 147 19 417v97q0 270 -21 417q-72 12 -129 31zM395 1354q12 25 47 56.5t64 45.5q27 -16 61.5 -47.5t48.5 -54.5q-14 -27 -50 -68t-60 -57q-25 16 -60.5 57t-50.5 68z" />
<glyph unicode="&#xf0;" horiz-adv-x="1103" d="M59 512q12 41 15 66l151 6q-2 272 -18 401q-70 27 -133 27v51q82 0 254 7t217 7q233 0 359 -110.5t126 -333.5q0 -217 -138 -408t-343 -250q-53 0 -138 19.5t-141 42.5q-23 -27 -41 -76l-43 10q39 190 39 549q-63 -2 -159 -16zM379 528q0 -264 8 -374q102 -47 215 -48 q102 0 166 56q78 147 78 362q0 100 -16.5 182t-52.5 152t-102.5 109t-156.5 39q-68 0 -125 -23q-14 -125 -14 -391l45 2q129 6 172 10q8 -41 18 -63v-11z" />
<glyph unicode="&#xf1;" horiz-adv-x="1275" d="M86 1036l6 54q117 -23 258 -23q115 0 170 14l4 -34q-55 -14 -55 -48q0 -14 12.5 -39.5t48 -84t81.5 -132t134.5 -219t184.5 -309.5l6 4v250q0 274 -28.5 412.5t-98.5 160.5l4 35q53 -10 158 -10q109 0 221 23l6 -54q-84 -27 -141 -32q-20 -164 -21 -422v-97 q0 -311 21 -422q86 -14 137 -32l-6 -54q-102 23 -207 23q-76 0 -125 -8q0 25 -17.5 64.5t-62.5 116.5t-96 160t-144.5 237.5t-181.5 306.5l-8 -5v-274q1 -407 62 -530q92 -10 180 -31l-6 -51q-106 14 -242 14q-129 0 -234 -16l-8 53q66 20 123 31q18 160 19 417v97 q0 274 -21 422q-55 6 -133 32zM303 1257q115 125 262 168q121 -63 244 -63q92 0 133 49l37 -22q-115 -125 -213 -168q-43 0 -148.5 31.5t-148.5 31.5q-88 0 -129 -49z" />
<glyph unicode="&#xf2;" horiz-adv-x="1077" d="M86 434q0 227 131 415.5t342 242.5q211 0 321.5 -120t110.5 -337q0 -225 -119.5 -403.5t-332.5 -256.5q-203 0 -328 128t-125 331zM231 1366q2 20 19.5 62t32.5 59q35 6 88 2q49 -86 121.5 -172t148.5 -137l-23 -37zM260 555q0 -113 33 -213t106.5 -171t174 -71t161.5 54 q82 143 82 354q0 203 -73.5 331t-239.5 128q-92 0 -160 -52q-84 -143 -84 -360z" />
<glyph unicode="&#xf3;" horiz-adv-x="1077" d="M86 434q0 227 131 415.5t342 242.5q211 0 321.5 -120t110.5 -337q0 -225 -119.5 -403.5t-332.5 -256.5q-203 0 -328 128t-125 331zM260 555q0 -113 33 -213t106.5 -171t174 -71t161.5 54q82 143 82 354q0 203 -73.5 331t-239.5 128q-92 0 -160 -52q-84 -143 -84 -360z M449 1180q76 51 148.5 137t121.5 172q53 4 88 -2q14 -16 31.5 -58.5t19.5 -62.5l-387 -223z" />
<glyph unicode="&#xf4;" horiz-adv-x="1077" d="M86 434q0 227 131 415.5t342 242.5q211 0 321.5 -120t110.5 -337q0 -225 -119.5 -403.5t-332.5 -256.5q-203 0 -328 128t-125 331zM260 555q0 -113 33 -213t106.5 -171t174 -71t161.5 54q82 143 82 354q0 203 -73.5 331t-239.5 128q-92 0 -160 -52q-84 -143 -84 -360z M244 1169q172 145 281 344h41q109 -199 280 -344l-27 -34l-274 184l-274 -184z" />
<glyph unicode="&#xf5;" horiz-adv-x="1077" d="M86 434q0 227 131 415.5t342 242.5q211 0 321.5 -120t110.5 -337q0 -225 -119.5 -403.5t-332.5 -256.5q-203 0 -328 128t-125 331zM221 1257q115 125 262 168q121 -63 244 -63q92 0 133 49l37 -22q-115 -125 -213 -168q-43 0 -148.5 31.5t-148.5 31.5q-88 0 -129 -49z M260 555q0 -113 33 -213t106.5 -171t174 -71t161.5 54q82 143 82 354q0 203 -73.5 331t-239.5 128q-92 0 -160 -52q-84 -143 -84 -360z" />
<glyph unicode="&#xf6;" horiz-adv-x="1077" d="M86 434q0 227 131 415.5t342 242.5q211 0 321.5 -120t110.5 -337q0 -225 -119.5 -403.5t-332.5 -256.5q-203 0 -328 128t-125 331zM260 555q0 -113 33 -213t106.5 -171t174 -71t161.5 54q82 143 82 354q0 203 -73.5 331t-239.5 128q-92 0 -160 -52q-84 -143 -84 -360z M246 1354q12 25 47 56.5t64 45.5q27 -16 61.5 -47.5t48.5 -54.5q-14 -27 -50 -68t-60 -57q-25 16 -61 57t-50 68zM625 1354q12 25 47 56.5t63 45.5q27 -16 62 -47.5t49 -54.5q-14 -27 -50 -68t-61 -57q-25 16 -60.5 57t-49.5 68z" />
<glyph unicode="&#xf7;" horiz-adv-x="1126" d="M109 469l18 104q348 -18 702 -18q94 0 175 6l12 -12l-19 -94h-872zM469 229q0 33 29.5 63t62.5 30t61.5 -29t28.5 -63.5t-28.5 -64.5t-61.5 -30t-62.5 30t-29.5 64zM469 788.5q0 34.5 29.5 63.5t62.5 29t61.5 -29t28.5 -63.5t-28.5 -64.5t-61.5 -30t-62.5 30t-29.5 64.5z " />
<glyph unicode="&#xf8;" horiz-adv-x="1077" d="M86 434q0 227 131 415.5t342 242.5q211 0 321.5 -120t110.5 -337q0 -225 -119.5 -403.5t-332.5 -256.5q-203 0 -328 128t-125 331zM211 -129q98 219 176 422l195 512q82 213 159 452q47 4 78 15l8 -6q-27 -61 -170 -435l-383 -1009h-10q-33 18 -53 49zM260 555 q0 -113 33 -213t106.5 -171t174 -71t161.5 54q82 143 82 354q0 203 -73.5 331t-239.5 128q-92 0 -160 -52q-84 -143 -84 -360z" />
<glyph unicode="&#xf9;" horiz-adv-x="1183" d="M61 1028l9 55q119 -16 213 -16q98 0 159 10l9 -35q-74 -39 -86 -141q-25 -197 -25 -440q0 -170 48 -257t187 -87q125 0 207 76q8 164 9 344q0 266 -17 462q-92 10 -170 31l6 51q106 -14 242 -14q129 0 233 16l9 -53q-57 -19 -129 -31q-20 -139 -21 -417v-97 q0 -281 21 -419q94 -12 155 -29l-6 -51q-100 14 -256 14q-55 0 -94 -6l-8 26q18 20 24 117q-106 -111 -245 -162q-352 0 -353 420q0 92 14.5 295t14.5 223q0 49 -12 82v2q-86 14 -138 31zM270 1366q2 20 19.5 62t31.5 59q35 6 88 2q49 -86 122 -172t149 -137l-23 -37z" />
<glyph unicode="&#xfa;" horiz-adv-x="1191" d="M70 1028l8 55q119 -16 213 -16q98 0 160 10l8 -35q-74 -39 -86 -141q-25 -197 -25 -440q0 -170 48 -257t188 -87q125 0 207 76q8 164 8 344q0 266 -17 462q-92 10 -170 31l6 51q106 -14 242 -14q129 0 234 16l8 -53q-57 -19 -129 -31q-20 -139 -21 -417v-97 q0 -281 21 -419q94 -12 155 -29l-6 -51q-100 14 -256 14q-55 0 -94 -6l-8 26q18 20 24 117q-106 -111 -245 -162q-352 0 -353 420q0 92 14.5 295t14.5 223q0 49 -12 82v2q-86 14 -137 31zM539 1180q76 51 148.5 137t121.5 172q53 4 88 -2q14 -16 31.5 -58.5t19.5 -62.5 l-387 -223z" />
<glyph unicode="&#xfb;" horiz-adv-x="1183" d="M61 1028l9 55q119 -16 213 -16q98 0 159 10l9 -35q-74 -39 -86 -141q-25 -197 -25 -440q0 -170 48 -257t187 -87q125 0 207 76q8 164 9 344q0 266 -17 462q-92 10 -170 31l6 51q106 -14 242 -14q129 0 233 16l9 -53q-57 -19 -129 -31q-20 -139 -21 -417v-97 q0 -281 21 -419q94 -12 155 -29l-6 -51q-100 14 -256 14q-55 0 -94 -6l-8 26q18 20 24 117q-106 -111 -245 -162q-352 0 -353 420q0 92 14.5 295t14.5 223q0 49 -12 82v2q-86 14 -138 31zM281 1169q172 145 280 344h41q109 -199 281 -344l-27 -34l-274 184l-275 -184z" />
<glyph unicode="&#xfc;" horiz-adv-x="1183" d="M61 1028l9 55q119 -16 213 -16q98 0 159 10l9 -35q-74 -39 -86 -141q-25 -197 -25 -440q0 -170 48 -257t187 -87q125 0 207 76q8 164 9 344q0 266 -17 462q-92 10 -170 31l6 51q106 -14 242 -14q129 0 233 16l9 -53q-57 -19 -129 -31q-20 -139 -21 -417v-97 q0 -281 21 -419q94 -12 155 -29l-6 -51q-100 14 -256 14q-55 0 -94 -6l-8 26q18 20 24 117q-106 -111 -245 -162q-352 0 -353 420q0 92 14.5 295t14.5 223q0 49 -12 82v2q-86 14 -138 31zM283 1354q12 25 47 56.5t64 45.5q27 -16 61.5 -47.5t48.5 -54.5q-14 -27 -50 -68 t-60 -57q-25 16 -61 57t-50 68zM662 1354q12 25 47 56.5t63 45.5q27 -16 62 -47.5t49 -54.5q-14 -27 -50 -68t-61 -57q-25 16 -60.5 57t-49.5 68z" />
<glyph unicode="&#xfd;" horiz-adv-x="1110" d="M-6 1030l8 53q82 -16 234 -16q156 0 253 16l9 -51q-96 -23 -162 -31q70 -213 194 -448q182 354 183 444q0 33 -56 45l9 35q61 -10 159 -10q100 0 219 16l9 -53q-53 -18 -135 -31l-340 -512q0 -266 20 -419q90 -10 168 -31l-6 -51q-106 14 -242 14q-141 0 -246 -16l-8 53 q39 12 139 31q18 111 19 333v43q-238 479 -301 557q-57 6 -127 29zM526 1180q76 51 149 137t122 172q53 4 88 -2q14 -16 31.5 -58.5t19.5 -62.5l-387 -223z" />
<glyph unicode="&#xfe;" horiz-adv-x="931" d="M90 1030l8 53q104 -16 234 -16q135 0 241 14l7 -51q-78 -20 -170 -31q-6 -39 -11 -131q119 4 154 4q371 0 371 -268q0 -150 -132.5 -242t-299.5 -92q-25 0 -35 2l8 68h18q127 0 189.5 55.5t62.5 177.5q0 115 -50 171.5t-161 56.5q-70 0 -129 -23q-2 -65 -2 -198 q0 -375 19 -512q92 -10 170 -31l-7 -51q-106 14 -241 14q-129 0 -234 -16l-8 53q57 18 129 31q18 147 19 417v97q0 270 -21 417q-72 12 -129 31z" />
<glyph unicode="&#xff;" horiz-adv-x="1110" d="M-6 1030l8 53q82 -16 234 -16q156 0 253 16l9 -51q-96 -23 -162 -31q70 -213 194 -448q182 354 183 444q0 33 -56 45l9 35q61 -10 159 -10q100 0 219 16l9 -53q-53 -18 -135 -31l-340 -512q0 -266 20 -419q90 -10 168 -31l-6 -51q-106 14 -242 14q-141 0 -246 -16l-8 53 q39 12 139 31q18 111 19 333v43q-238 479 -301 557q-57 6 -127 29zM231 1354q12 25 47 56.5t64 45.5q27 -16 62 -47.5t49 -54.5q-14 -27 -50 -68t-61 -57q-25 16 -60.5 57t-50.5 68zM610 1354q12 25 47 56.5t64 45.5q27 -16 61.5 -47.5t48.5 -54.5q-14 -27 -50 -68t-60 -57 q-25 16 -60.5 57t-50.5 68z" />
<glyph unicode="&#x131;" horiz-adv-x="632" d="M90 1030l8 53q104 -16 234 -16q135 0 241 14l7 -51q-78 -20 -170 -31q-17 -110 -17 -419q0 -375 19 -512q92 -10 170 -31l-7 -51q-106 14 -241 14q-129 0 -234 -16l-8 53q57 18 129 31q18 147 19 417v97q0 270 -21 417q-72 12 -129 31z" />
<glyph unicode="&#x152;" horiz-adv-x="1660" d="M86 506q0 207 92 393t259 310t370 147q49 0 141 -11.5t172 -11.5q281 0 518 23l9 -41q-106 -109 -121 -324h-51q-18 88 -19 223q-88 43 -221 43q-100 0 -156 -10q-14 -45 -24 -123q-16 -143 -27 -376q66 -14 158 -15q182 0 223 88l41 -8q-18 -66 -18 -158q0 -89 12 -178 l-47 -8q-31 78 -41 182q-78 6 -170 6q-90 0 -160 -10v-88q0 -80 5 -138.5t23.5 -116.5t48.5 -94t81 -57.5t123 -21.5q141 0 301 160l28 -27q-170 -225 -374 -295q-254 0 -349 197h-8q-150 -152 -385 -197q-203 35 -318.5 181.5t-115.5 355.5zM289 575q0 -193 93 -333 t259 -140q98 0 158 43q37 49 48 122t11 249q0 174 12.5 400.5t12.5 265.5q-109 47 -217 47q-111 0 -172 -45q-205 -203 -205 -609z" />
<glyph unicode="&#x153;" horiz-adv-x="1400" d="M86 408q0 252 177 454.5t427 229.5q39 0 115 -9.5t141 -9.5q242 0 430 19l10 -41q-82 -86 -92 -250h-51q-14 68 -14 164q-72 35 -178 34q-88 0 -125 -8q-14 -39 -21 -96q-12 -100 -22 -285q72 -14 141 -14q123 0 160 72l43 -6q-18 -61 -19 -134q0 -47 15 -133l-49 -8 q-23 61 -33 127q-82 8 -117 8q-55 0 -141 -10v-61q0 -162 46 -247t179 -85q129 0 244 114l22 -20q-139 -180 -303 -238q-215 0 -291 160h-6q-119 -121 -313 -160q-166 29 -270.5 148t-104.5 285zM276 465q0 -154 73 -261.5t208 -107.5q84 0 125 29q29 39 38 97.5t9 193.5 q0 141 10.5 319t10.5 209q-82 33 -172 33q-86 0 -138 -31q-164 -158 -164 -481z" />
<glyph unicode="&#x178;" horiz-adv-x="1116" d="M-340 1516q0 29 34 48t95 19q129 0 304 -71.5t243 -147.5q43 -184 95 -316.5t165 -357.5q227 444 227 557q0 45 -41 66l9 28q102 -8 170 -8q160 0 266 17l10 -52q-98 -31 -199 -43l-401 -645q0 -342 27 -538q109 -10 225 -39l-6 -49q-152 16 -320 16q-186 0 -295 -16 l-8 51q93 29 197 43q23 168 22 424v53l-348 745q-80 172 -174 216q-37 0 -90 -27t-66 -53l-12 -4q-55 37 -123 57q-6 12 -6 27zM319 1645q12 25 47 56.5t64 45.5q27 -16 62 -47.5t49 -54.5q-14 -27 -50 -68t-61 -57q-25 16 -60.5 57t-50.5 68zM698 1645q12 25 47 56.5 t64 45.5q27 -16 62 -47.5t49 -54.5q-14 -27 -50 -68t-61 -57q-25 16 -60.5 57t-50.5 68z" />
<glyph unicode="&#x2c6;" horiz-adv-x="602" d="M0 1169q172 145 281 344h41q109 -199 280 -344l-27 -34l-274 184l-274 -184z" />
<glyph unicode="&#x2da;" horiz-adv-x="395" d="M0 1292q0 82 60.5 142.5t148.5 78.5q186 0 186 -151q0 -80 -54 -136.5t-142 -82.5q-84 0 -141.5 38.5t-57.5 110.5zM96 1335q0 -53 33 -87t86 -34q39 0 61 19q23 33 23 88t-32 88t-87 33q-41 0 -61 -19q-23 -35 -23 -88z" />
<glyph unicode="&#x2dc;" horiz-adv-x="675" d="M0 1257q115 125 262 168q121 -63 244 -63q92 0 133 49l37 -22q-115 -125 -213 -168q-43 0 -148.5 31.5t-148.5 31.5q-88 0 -129 -49z" />
<glyph unicode="&#x2000;" horiz-adv-x="906" />
<glyph unicode="&#x2001;" horiz-adv-x="1812" />
<glyph unicode="&#x2002;" horiz-adv-x="906" />
<glyph unicode="&#x2003;" horiz-adv-x="1812" />
<glyph unicode="&#x2004;" horiz-adv-x="604" />
<glyph unicode="&#x2005;" horiz-adv-x="453" />
<glyph unicode="&#x2006;" horiz-adv-x="302" />
<glyph unicode="&#x2007;" horiz-adv-x="302" />
<glyph unicode="&#x2008;" horiz-adv-x="226" />
<glyph unicode="&#x2009;" horiz-adv-x="362" />
<glyph unicode="&#x200a;" horiz-adv-x="100" />
<glyph unicode="&#x2010;" horiz-adv-x="585" d="M57 496l13 94h94q180 0 352 20l16 -10l-12 -86l-444 -31z" />
<glyph unicode="&#x2011;" horiz-adv-x="585" d="M57 496l13 94h94q180 0 352 20l16 -10l-12 -86l-444 -31z" />
<glyph unicode="&#x2012;" horiz-adv-x="585" d="M57 496l13 94h94q180 0 352 20l16 -10l-12 -86l-444 -31z" />
<glyph unicode="&#x2013;" horiz-adv-x="839" d="M-10 516l16 90q256 -18 639 -18q117 0 197 6l12 -12l-16 -80h-832z" />
<glyph unicode="&#x2014;" horiz-adv-x="1259" d="M-6 516l16 90q346 -18 946 -18q219 0 299 6l13 -12l-17 -80h-1241z" />
<glyph unicode="&#x2018;" horiz-adv-x="436" d="M109 985q0 102 69.5 208.5t163.5 170.5l20 -21q-43 -51 -77.5 -125.5t-36.5 -130.5q53 -49 82 -102q-12 -25 -47 -56.5t-64 -45.5q-27 16 -61.5 47.5t-48.5 54.5z" />
<glyph unicode="&#x2019;" horiz-adv-x="436" d="M74 903q43 51 77.5 126t36.5 130q-53 49 -82 103q12 25 47 56.5t64 45.5q27 -16 62 -47.5t49 -54.5q0 -102 -70 -209t-164 -170z" />
<glyph unicode="&#x201a;" horiz-adv-x="425" d="M74 -236q104 100 114 228q-53 49 -82 102q12 25 47 56.5t64 46.5q27 -16 62 -48t49 -55q0 -102 -66.5 -198.5t-167.5 -153.5z" />
<glyph unicode="&#x201c;" horiz-adv-x="749" d="M109 985q0 102 69.5 208.5t163.5 170.5l20 -21q-43 -51 -77.5 -125.5t-36.5 -130.5q53 -49 82 -102q-12 -25 -47 -56.5t-64 -45.5q-27 16 -61.5 47.5t-48.5 54.5zM422 985q0 102 69.5 208.5t163.5 170.5l21 -21q-43 -51 -78 -125.5t-37 -130.5q53 -49 82 -102 q-12 -25 -47 -56.5t-64 -45.5q-27 16 -61.5 47.5t-48.5 54.5z" />
<glyph unicode="&#x201d;" horiz-adv-x="749" d="M74 903q43 51 77.5 126t36.5 130q-53 49 -82 103q12 25 47 56.5t64 45.5q27 -16 62 -47.5t49 -54.5q0 -102 -70 -209t-164 -170zM387 903q43 51 78 126t37 130q-53 49 -82 103q12 25 47 56.5t63 45.5q27 -16 62 -47.5t49 -54.5q0 -102 -69.5 -209t-163.5 -170z" />
<glyph unicode="&#x201e;" horiz-adv-x="739" d="M74 -236q104 100 114 228q-53 49 -82 102q12 25 47 56.5t64 46.5q27 -16 62 -48t49 -55q0 -102 -66.5 -198.5t-167.5 -153.5zM387 -236q104 100 115 228q-53 49 -82 102q12 25 47 56.5t63 46.5q27 -16 62 -48t49 -55q0 -102 -66.5 -198.5t-166.5 -153.5z" />
<glyph unicode="&#x2022;" horiz-adv-x="714" d="M106 559v29q8 6 36 28.5t35 28.5t29.5 25.5t31 29t26 27.5t27.5 32.5t22.5 34t24.5 40.5h41q12 -20 24.5 -41t22.5 -34.5t27.5 -31.5t25.5 -27.5t30.5 -29t29 -24.5t35 -27.5t34.5 -28.5v-29q-158 -131 -229 -272h-41q-74 145 -232 270z" />
<glyph unicode="&#x2026;" horiz-adv-x="1302" d="M974 94q12 25 47 56.5t64 46.5q27 -16 62 -48t49 -55q-14 -27 -50 -67.5t-61 -57.5q-25 16 -60.5 57.5t-50.5 67.5zM540 94q12 25 47 56.5t64 46.5q27 -16 62 -48t49 -55q-14 -27 -50 -67.5t-61 -57.5q-25 16 -60.5 57.5t-50.5 67.5zM106 94q12 25 47 56.5t64 46.5 q27 -16 62 -48t49 -55q-14 -27 -50 -67.5t-61 -57.5q-25 16 -60.5 57.5t-50.5 67.5z" />
<glyph unicode="&#x202f;" horiz-adv-x="362" />
<glyph unicode="&#x2039;" horiz-adv-x="505" d="M43 551v41q195 106 365 307l38 -27l-219 -292l222 -324l-41 -29q-190 219 -365 324z" />
<glyph unicode="&#x203a;" horiz-adv-x="505" d="M57 256l222 324l-216 292l35 27q170 -201 365 -307v-41q-174 -104 -365 -324z" />
<glyph unicode="&#x205f;" horiz-adv-x="453" />
<glyph unicode="&#x20ac;" horiz-adv-x="933" d="M59 416q12 41 15 65l80 2q2 33 14 99q-59 -2 -102 -11l-7 9q12 41 15 65l108 4q47 164 154.5 286t259.5 167q145 0 268 -33v-29q-76 -98 -88 -231h-45q0 82 -6 131q-86 29 -172 29q-94 0 -158 -56q-53 -115 -73 -260l262 11q129 6 172 10q8 -41 18 -64v-10l-250 -4 l-209 -6v-35v-66l269 11q129 6 172 10q8 -41 18 -64v-10l-250 -4l-205 -6q10 -147 63.5 -228t180.5 -81q121 0 262 129l21 -21q-123 -178 -320 -258q-186 0 -277 123t-95 328l-88 -10z" />
<glyph unicode="&#x2122;" horiz-adv-x="2831" d="M968 944q0 100 120.5 239.5t225.5 176.5q16 0 147 -13.5t209 -13.5q68 0 133 13l9 -52q-84 -33 -84 -63q0 -129 159 -627l66 -205l14 4q2 43 254 844q0 20 -22.5 40t-46.5 26l6 28q102 -8 233 -8q225 0 332 17l10 -52q-98 -31 -198 -43q-10 -49 -11 -145 q0 -156 34 -534.5t63 -503.5q109 -10 225 -39l-6 -49q-152 16 -320 16q-184 0 -293 -16l-8 51q92 29 197 43q0 195 -22.5 536.5t-57.5 585.5l-6 2q-293 -811 -307 -987q-133 -80 -199 -156l-25 17q4 45 4 67q0 240 -268 1059l-8 -2l-64 -448q-41 -293 -41 -529 q0 -76 17.5 -125t71.5 -78l-9 -28q-63 8 -200 8q-168 0 -289 -16l-8 51q92 29 196 43l230 1143q-242 0 -310 -66q-14 -29 -14 -94q0 -57 21 -80l-3 -14q-51 -31 -102 -86q-25 2 -40 20.5t-15 42.5zM-88 948q0 100 121 239.5t225 176.5q141 -6 324.5 -24.5t271.5 -18.5 q68 0 107 12q94 90 133 137l32 -24q-109 -141 -131 -295l-67 18q-135 37 -303 50q-14 -223 -15 -492q0 -459 27 -655q102 -10 225 -39l-6 -49q-152 16 -319 16q-186 0 -295 -16l-9 51q92 29 197 43q23 168 23 528v121q0 203 -25 498h-53q-242 0 -309 -66q-14 -29 -15 -94 q0 -57 21 -80l-2 -14q-51 -31 -103 -86q-25 2 -40 20.5t-15 42.5z" />
<glyph unicode="&#xe000;" horiz-adv-x="1085" d="M0 1085h1085v-1085h-1085v1085z" />
<glyph unicode="&#xfb01;" horiz-adv-x="1533" d="M991 1030l8 53q104 -16 234 -16q135 0 241 14l7 -51q-78 -20 -170 -31q-17 -110 -17 -419q0 -375 19 -512q92 -10 170 -31l-7 -51q-106 14 -241 14q-129 0 -234 -16l-8 53q57 18 129 31q18 147 19 417v97q0 270 -21 417q-72 12 -129 31zM88 1036l6 51q154 -20 436 -20 q203 0 336 23l11 -41q-82 -86 -93 -256h-51q-14 68 -14 163q-72 35 -189 35q-72 0 -120 -8q-16 -111 -17 -379q72 -14 137 -14q121 0 156 72l43 -7q-18 -61 -18 -133q0 -47 14 -133l-49 -8q-23 61 -33 127q-82 8 -113 8q-51 0 -137 -10q0 -279 19 -438q90 -10 182 -33 l-6 -51q-100 16 -254 16q-129 0 -234 -16l-8 53q61 20 129 31q18 147 19 417v97q0 188 -21 417q-74 14 -131 37z" />
<glyph unicode="&#xfb02;" horiz-adv-x="1734" d="M989 31q57 23 131 37q20 123 21 417v97q0 254 -21 417q-68 10 -129 31l8 53q104 -16 234 -16q154 0 254 16l6 -51q-92 -23 -182 -33q-16 -111 -17 -421q0 -379 17 -494q49 -8 120 -8q109 0 181 35q28 68 28 157v6h52q8 -158 57 -256l-10 -41q-133 23 -308 23 q-283 0 -436 -20zM88 1036l6 51q154 -20 436 -20q203 0 336 23l11 -41q-82 -86 -93 -256h-51q-14 68 -14 163q-72 35 -189 35q-72 0 -120 -8q-16 -111 -17 -379q72 -14 137 -14q121 0 156 72l43 -7q-18 -61 -18 -133q0 -47 14 -133l-49 -8q-23 61 -33 127q-82 8 -113 8 q-51 0 -137 -10q0 -279 19 -438q90 -10 182 -33l-6 -51q-100 16 -254 16q-129 0 -234 -16l-8 53q61 20 129 31q18 147 19 417v97q0 188 -21 417q-74 14 -131 37z" />
<glyph unicode="&#xfb03;" horiz-adv-x="2434" d="M1892 1030l8 53q104 -16 234 -16q135 0 241 14l7 -51q-78 -20 -170 -31q-17 -110 -17 -419q0 -375 19 -512q92 -10 170 -31l-7 -51q-106 14 -241 14q-129 0 -234 -16l-8 53q57 18 129 31q18 147 19 417v97q0 270 -21 417q-72 12 -129 31zM989 1036l6 51q154 -20 436 -20 q203 0 336 23l11 -41q-82 -86 -93 -256h-51q-14 68 -14 163q-72 35 -189 35q-72 0 -120 -8q-16 -111 -17 -379q72 -14 137 -14q121 0 156 72l43 -7q-18 -61 -18 -133q0 -47 14 -133l-49 -8q-23 61 -33 127q-82 8 -113 8q-51 0 -137 -10q0 -279 19 -438q90 -10 182 -33 l-6 -51q-100 16 -254 16q-129 0 -234 -16l-8 53q61 20 129 31q18 147 19 417v97q0 188 -21 417q-74 14 -131 37zM88 1036l6 51q154 -20 436 -20q203 0 336 23l11 -41q-82 -86 -93 -256h-51q-14 68 -14 163q-72 35 -189 35q-72 0 -120 -8q-16 -111 -17 -379q72 -14 137 -14 q121 0 156 72l43 -7q-18 -61 -18 -133q0 -47 14 -133l-49 -8q-23 61 -33 127q-82 8 -113 8q-51 0 -137 -10q0 -279 19 -438q90 -10 182 -33l-6 -51q-100 16 -254 16q-129 0 -234 -16l-8 53q61 20 129 31q18 147 19 417v97q0 188 -21 417q-74 14 -131 37z" />
<glyph unicode="&#xfb04;" horiz-adv-x="2635" d="M1890 31q57 23 131 37q20 123 21 417v97q0 254 -21 417q-68 10 -129 31l8 53q104 -16 234 -16q154 0 254 16l6 -51q-92 -23 -182 -33q-16 -111 -17 -421q0 -379 17 -494q49 -8 120 -8q109 0 181 35q28 68 28 157v6h52q8 -158 57 -256l-10 -41q-133 23 -308 23 q-283 0 -436 -20zM989 1036l6 51q154 -20 436 -20q203 0 336 23l11 -41q-82 -86 -93 -256h-51q-14 68 -14 163q-72 35 -189 35q-72 0 -120 -8q-16 -111 -17 -379q72 -14 137 -14q121 0 156 72l43 -7q-18 -61 -18 -133q0 -47 14 -133l-49 -8q-23 61 -33 127q-82 8 -113 8 q-51 0 -137 -10q0 -279 19 -438q90 -10 182 -33l-6 -51q-100 16 -254 16q-129 0 -234 -16l-8 53q61 20 129 31q18 147 19 417v97q0 188 -21 417q-74 14 -131 37zM88 1036l6 51q154 -20 436 -20q203 0 336 23l11 -41q-82 -86 -93 -256h-51q-14 68 -14 163q-72 35 -189 35 q-72 0 -120 -8q-16 -111 -17 -379q72 -14 137 -14q121 0 156 72l43 -7q-18 -61 -18 -133q0 -47 14 -133l-49 -8q-23 61 -33 127q-82 8 -113 8q-51 0 -137 -10q0 -279 19 -438q90 -10 182 -33l-6 -51q-100 16 -254 16q-129 0 -234 -16l-8 53q61 20 129 31q18 147 19 417v97 q0 188 -21 417q-74 14 -131 37z" />
<glyph horiz-adv-x="368" />
</font>
</defs>
</svg>
